<?xml version="1.0" encoding="UTF-8" standalone="no"?>
<!DOCTYPE svg PUBLIC "-//W3C//DTD SVG 1.1//EN"
 "http://www.w3.org/Graphics/SVG/1.1/DTD/svg11.dtd">
<!-- Generated by graphviz version 2.38.0 (20140413.2041)
 -->
<!-- Title: basic_init Pages: 1 -->
<svg width="275pt" height="142pt"
 viewBox="0.00 0.00 275.00 142.00" xmlns="http://www.w3.org/2000/svg" xmlns:xlink="http://www.w3.org/1999/xlink">
<g id="graph0" class="graph" transform="scale(1 1) rotate(0) translate(4 138)">
<title>basic_init</title>
<!-- Node1 -->
<g id="node1" class="node"><title>Node1</title>
<polygon fill="#bfbfbf" stroke="black" points="0,-76.5 0,-95.5 58,-95.5 58,-76.5 0,-76.5"/>
<text text-anchor="middle" x="29" y="-83.5" font-family="Helvetica,sans-Serif" font-size="10.00">basic_init</text>
</g>
<!-- Node2 -->
<g id="node2" class="node"><title>Node2</title>
<g id="a_node2"><a xlink:href="printing_8c.html#aa893fecf81f3b8383deb48439b24a27d" target="_top" xlink:title="Print a NEW LINE character. ">
<polygon fill="none" stroke="black" points="200.5,-114.5 200.5,-133.5 250.5,-133.5 250.5,-114.5 200.5,-114.5"/>
<text text-anchor="middle" x="225.5" y="-121.5" font-family="Helvetica,sans-Serif" font-size="10.00">newline</text>
</a>
</g>
</g>
<!-- Node1&#45;&gt;Node2 -->
<g id="edge1" class="edge"><title>Node1&#45;&gt;Node2</title>
<path fill="none" stroke="midnightblue" d="M58.1266,-95.3033C69.2121,-98.7185 82.1144,-102.385 94,-105 126.23,-112.092 163.538,-117.221 189.987,-120.349"/>
<polygon fill="midnightblue" stroke="midnightblue" points="189.926,-123.865 200.26,-121.528 190.724,-116.911 189.926,-123.865"/>
</g>
<!-- Node3 -->
<g id="node3" class="node"><title>Node3</title>
<g id="a_node3"><a xlink:href="printing_8c.html#a7a9e102ce8d3edbc9937a84bcbc8c83f" target="_top" xlink:title="Print selected message from FLASH (with new&#45;line) ">
<polygon fill="none" stroke="black" points="94,-76.5 94,-95.5 148,-95.5 148,-76.5 94,-76.5"/>
<text text-anchor="middle" x="121" y="-83.5" font-family="Helvetica,sans-Serif" font-size="10.00">printmsg</text>
</a>
</g>
</g>
<!-- Node1&#45;&gt;Node3 -->
<g id="edge2" class="edge"><title>Node1&#45;&gt;Node3</title>
<path fill="none" stroke="midnightblue" d="M58.4766,-86C66.4427,-86 75.2111,-86 83.5699,-86"/>
<polygon fill="midnightblue" stroke="midnightblue" points="83.8474,-89.5001 93.8474,-86 83.8473,-82.5001 83.8474,-89.5001"/>
</g>
<!-- Node5 -->
<g id="node5" class="node"><title>Node5</title>
<g id="a_node5"><a xlink:href="printing_8c.html#ad62df87f7908fc3dd518b4f9f2cba2d2" target="_top" xlink:title="Print specified integer number. ">
<polygon fill="none" stroke="black" points="94,-38.5 94,-57.5 148,-57.5 148,-38.5 94,-38.5"/>
<text text-anchor="middle" x="121" y="-45.5" font-family="Helvetica,sans-Serif" font-size="10.00">printnum</text>
</a>
</g>
</g>
<!-- Node1&#45;&gt;Node5 -->
<g id="edge5" class="edge"><title>Node1&#45;&gt;Node5</title>
<path fill="none" stroke="midnightblue" d="M52.7108,-76.411C63.3696,-71.9106 76.2605,-66.4678 87.8953,-61.5553"/>
<polygon fill="midnightblue" stroke="midnightblue" points="89.4454,-64.7001 97.2965,-57.5859 86.7225,-58.2513 89.4454,-64.7001"/>
</g>
<!-- Node3&#45;&gt;Node2 -->
<g id="edge4" class="edge"><title>Node3&#45;&gt;Node2</title>
<path fill="none" stroke="midnightblue" d="M147.865,-95.589C160.846,-100.401 176.733,-106.291 190.67,-111.458"/>
<polygon fill="midnightblue" stroke="midnightblue" points="189.81,-114.872 200.404,-115.067 192.244,-108.309 189.81,-114.872"/>
</g>
<!-- Node4 -->
<g id="node4" class="node"><title>Node4</title>
<g id="a_node4"><a xlink:href="printing_8c.html#aac89e2103a98020e1f0cf85e5d1df175" target="_top" xlink:title="Print selected message from FLASH (without new&#45;line) ">
<polygon fill="none" stroke="black" points="184,-76.5 184,-95.5 267,-95.5 267,-76.5 184,-76.5"/>
<text text-anchor="middle" x="225.5" y="-83.5" font-family="Helvetica,sans-Serif" font-size="10.00">printmsg_noNL</text>
</a>
</g>
</g>
<!-- Node3&#45;&gt;Node4 -->
<g id="edge3" class="edge"><title>Node3&#45;&gt;Node4</title>
<path fill="none" stroke="midnightblue" d="M148.13,-86C155.889,-86 164.669,-86 173.44,-86"/>
<polygon fill="midnightblue" stroke="midnightblue" points="173.673,-89.5001 183.673,-86 173.673,-82.5001 173.673,-89.5001"/>
</g>
<!-- Node6 -->
<g id="node6" class="node"><title>Node6</title>
<g id="a_node6"><a xlink:href="main_8c.html#a55596b0bb88dc1bd3952f30685e42564" target="_top" xlink:title="Push a byte in the STACK. ">
<polygon fill="none" stroke="black" points="194.5,-38.5 194.5,-57.5 256.5,-57.5 256.5,-38.5 194.5,-38.5"/>
<text text-anchor="middle" x="225.5" y="-45.5" font-family="Helvetica,sans-Serif" font-size="10.00">push_byte</text>
</a>
</g>
</g>
<!-- Node5&#45;&gt;Node6 -->
<g id="edge6" class="edge"><title>Node5&#45;&gt;Node6</title>
<path fill="none" stroke="midnightblue" d="M148.13,-48C159.048,-48 171.987,-48 184.083,-48"/>
<polygon fill="midnightblue" stroke="midnightblue" points="184.423,-51.5001 194.423,-48 184.423,-44.5001 184.423,-51.5001"/>
</g>
<!-- Node7 -->
<g id="node7" class="node"><title>Node7</title>
<g id="a_node7"><a xlink:href="main_8c.html#adf3033740afb6eb9200e539dbf783239" target="_top" xlink:title="Pop a byte from the STACK. ">
<polygon fill="none" stroke="black" points="197.5,-0.5 197.5,-19.5 253.5,-19.5 253.5,-0.5 197.5,-0.5"/>
<text text-anchor="middle" x="225.5" y="-7.5" font-family="Helvetica,sans-Serif" font-size="10.00">pop_byte</text>
</a>
</g>
</g>
<!-- Node5&#45;&gt;Node7 -->
<g id="edge7" class="edge"><title>Node5&#45;&gt;Node7</title>
<path fill="none" stroke="midnightblue" d="M147.865,-38.411C160.368,-33.7756 175.569,-28.1404 189.125,-23.1147"/>
<polygon fill="midnightblue" stroke="midnightblue" points="190.483,-26.3439 198.643,-19.5859 188.05,-19.7804 190.483,-26.3439"/>
</g>
</g>
</svg>
