<?xml version="1.0" encoding="UTF-8" standalone="no"?>
<!DOCTYPE svg PUBLIC "-//W3C//DTD SVG 1.1//EN"
 "http://www.w3.org/Graphics/SVG/1.1/DTD/svg11.dtd">
<!-- Generated by graphviz version 2.38.0 (20140413.2041)
 -->
<!-- Title: interpreter Pages: 1 -->
<!--zoomable 737 -->
<svg id="main" version="1.1" xmlns="http://www.w3.org/2000/svg" xmlns:xlink="http://www.w3.org/1999/xlink" xml:space="preserve" onload="init(evt)">
<style type="text/css"><![CDATA[
.edge:hover path { stroke: red; }
.edge:hover polygon { stroke: red; fill: red; }
]]></style>
<script type="text/javascript"><![CDATA[
var edges = document.getElementsByTagName('g');
if (edges && edges.length) {
  for (var i=0;i<edges.length;i++) {
    if (edges[i].id.substr(0,4)=='edge') {
      edges[i].setAttribute('class','edge');
    }
  }
}
]]></script>
        <defs>
                <circle id="rim" cx="0" cy="0" r="7"/>
                <circle id="rim2" cx="0" cy="0" r="3.5"/>
                <g id="zoomPlus">
                        <use xlink:href="#rim" fill="#404040">
                                <set attributeName="fill" to="#808080" begin="zoomplus.mouseover" end="zoomplus.mouseout"/>
                        </use>
                        <path d="M-4,0h8M0,-4v8" fill="none" stroke="white" stroke-width="1.5" pointer-events="none"/>
                </g>
                <g id="zoomMin">
                        <use xlink:href="#rim" fill="#404040">
                                <set attributeName="fill" to="#808080" begin="zoomminus.mouseover" end="zoomminus.mouseout"/>
                        </use>
                        <path d="M-4,0h8" fill="none" stroke="white" stroke-width="1.5" pointer-events="none"/>
                </g>
                <g id="dirArrow">
                        <path fill="none" stroke="white" stroke-width="1.5" d="M0,-3.0v7 M-2.5,-0.5L0,-3.0L2.5,-0.5"/>
                </g>
               <g id="resetDef">
                       <use xlink:href="#rim2" fill="#404040">
                               <set attributeName="fill" to="#808080" begin="reset.mouseover" end="reset.mouseout"/>
                       </use>
               </g>
        </defs>

<script type="text/javascript">
var viewWidth = 894;
var viewHeight = 737;
var sectionId = 'dynsection-9';
</script>
<script xlink:href="svgpan.js"/>
<svg id="graph" class="graph">
<g id="viewport">
<title>interpreter</title>
<!-- Node1 -->
<g id="node1" class="node"><title>Node1</title>
<polygon fill="#bfbfbf" stroke="black" points="0,-207.777 0,-226.777 60,-226.777 60,-207.777 0,-207.777"/>
<text text-anchor="middle" x="30" y="-214.777" font-family="Helvetica,sans-Serif" font-size="10.00">interpreter</text>
</g>
<!-- Node2 -->
<g id="node2" class="node"><title>Node2</title>
<g id="a_node2"><a xlink:href="interpreter_8c.html#afe087d3248bda92aa0ace94a8d3839b8" target="_top" xlink:title="Print appropriate error mesage. ">
<polygon fill="none" stroke="black" points="96,-606.777 96,-625.777 177,-625.777 177,-606.777 96,-606.777"/>
<text text-anchor="middle" x="136.5" y="-613.777" font-family="Helvetica,sans-Serif" font-size="10.00">error_message</text>
</a>
</g>
</g>
<!-- Node1&#45;&gt;Node2 -->
<g id="edge1" class="edge"><title>Node1&#45;&gt;Node2</title>
<path fill="none" stroke="midnightblue" d="M32.8106,-226.969C39.705,-263.426 65.4737,-395.673 96,-502.277 105.707,-536.175 119.728,-574.786 128.192,-597.255"/>
<polygon fill="midnightblue" stroke="midnightblue" points="124.931,-598.528 131.756,-606.632 131.475,-596.041 124.931,-598.528"/>
</g>
<!-- Node12 -->
<g id="node12" class="node"><title>Node12</title>
<g id="a_node12"><a xlink:href="interpreter_8c.html#ae0c498ea10540cc81b1388062c7cf86e" target="_top" xlink:title="Execute specified line. ">
<polygon fill="none" stroke="black" points="107,-359.777 107,-378.777 166,-378.777 166,-359.777 107,-359.777"/>
<text text-anchor="middle" x="136.5" y="-366.777" font-family="Helvetica,sans-Serif" font-size="10.00">execution</text>
</a>
</g>
</g>
<!-- Node1&#45;&gt;Node12 -->
<g id="edge14" class="edge"><title>Node1&#45;&gt;Node12</title>
<path fill="none" stroke="midnightblue" d="M35.3729,-227.008C44.8002,-247.444 68.4297,-295.861 96,-331.277 101.966,-338.941 109.453,-346.534 116.301,-352.894"/>
<polygon fill="midnightblue" stroke="midnightblue" points="114.134,-355.653 123.915,-359.725 118.809,-350.442 114.134,-355.653"/>
</g>
<!-- Node16 -->
<g id="node16" class="node"><title>Node16</title>
<g id="a_node16"><a xlink:href="main_8c.html#ae363da215544e897ef8e44a64dabce48" target="_top" xlink:title="Ignore whitespace characters. ">
<polygon fill="none" stroke="black" points="817,-283.777 817,-302.777 886,-302.777 886,-283.777 817,-283.777"/>
<text text-anchor="middle" x="851.5" y="-290.777" font-family="Helvetica,sans-Serif" font-size="10.00">ignorespace</text>
</a>
</g>
</g>
<!-- Node1&#45;&gt;Node16 -->
<g id="edge38" class="edge"><title>Node1&#45;&gt;Node16</title>
<path fill="none" stroke="midnightblue" d="M60.1028,-218.036C89.582,-218.626 136.484,-219.076 177,-217.277 272.17,-213.051 295.236,-198.277 390.5,-198.277 390.5,-198.277 390.5,-198.277 636.5,-198.277 713.32,-198.277 793.343,-250.049 829.976,-277.155"/>
<polygon fill="midnightblue" stroke="midnightblue" points="828.238,-280.229 838.326,-283.468 832.46,-274.645 828.238,-280.229"/>
</g>
<!-- Node22 -->
<g id="node22" class="node"><title>Node22</title>
<g id="a_node22"><a xlink:href="main_8c.html#a4fb1091799fbbfe6111481081e0b8e8d" target="_top" xlink:title="find_line">
<polygon fill="none" stroke="black" points="110,-302.777 110,-321.777 163,-321.777 163,-302.777 110,-302.777"/>
<text text-anchor="middle" x="136.5" y="-309.777" font-family="Helvetica,sans-Serif" font-size="10.00">find_line</text>
</a>
</g>
</g>
<!-- Node1&#45;&gt;Node22 -->
<g id="edge31" class="edge"><title>Node1&#45;&gt;Node22</title>
<path fill="none" stroke="midnightblue" d="M37.1811,-226.799C47.69,-242.388 70.4056,-273.585 96,-293.277 98.0581,-294.86 100.269,-296.359 102.557,-297.768"/>
<polygon fill="midnightblue" stroke="midnightblue" points="101.142,-300.985 111.589,-302.743 104.519,-294.853 101.142,-300.985"/>
</g>
<!-- Node23 -->
<g id="node23" class="node"><title>Node23</title>
<g id="a_node23"><a xlink:href="main_8c.html#af44d438dc813084f712e286e88697bca" target="_top" xlink:title="Get line(s) from EEPROM, SERIAL or STDIO. ">
<polygon fill="none" stroke="black" points="111.5,-264.777 111.5,-283.777 161.5,-283.777 161.5,-264.777 111.5,-264.777"/>
<text text-anchor="middle" x="136.5" y="-271.777" font-family="Helvetica,sans-Serif" font-size="10.00">get_line</text>
</a>
</g>
</g>
<!-- Node1&#45;&gt;Node23 -->
<g id="edge32" class="edge"><title>Node1&#45;&gt;Node23</title>
<path fill="none" stroke="midnightblue" d="M48.727,-226.946C65.2655,-235.967 90.1567,-249.544 109.045,-259.847"/>
<polygon fill="midnightblue" stroke="midnightblue" points="107.58,-263.035 118.035,-264.75 110.932,-256.889 107.58,-263.035"/>
</g>
<!-- Node25 -->
<g id="node25" class="node"><title>Node25</title>
<g id="a_node25"><a xlink:href="interpreter_8c.html#a2d6b18b46373b8375ce476c14b9f1955" target="_top" xlink:title="Get current line number. ">
<polygon fill="none" stroke="black" points="585,-74.777 585,-93.777 686,-93.777 686,-74.777 585,-74.777"/>
<text text-anchor="middle" x="635.5" y="-81.777" font-family="Helvetica,sans-Serif" font-size="10.00">get_line_numberber</text>
</a>
</g>
</g>
<!-- Node1&#45;&gt;Node25 -->
<g id="edge36" class="edge"><title>Node1&#45;&gt;Node25</title>
<path fill="none" stroke="midnightblue" d="M30.9803,-207.389C31.5033,-175.391 37.8659,-74.0381 96,-27.277 154.036,19.4048 188.02,-8.27697 262.5,-8.27697 262.5,-8.27697 262.5,-8.27697 392.5,-8.27697 473.972,-8.27697 564.077,-47.97 607.787,-69.9847"/>
<polygon fill="midnightblue" stroke="midnightblue" points="606.389,-73.2013 616.884,-74.6515 609.584,-66.973 606.389,-73.2013"/>
</g>
<!-- Node26 -->
<g id="node26" class="node"><title>Node26</title>
<g id="a_node26"><a xlink:href="interpreter_8c.html#af49382b389812666243c96753baca38f" target="_top" xlink:title="Insert new line in the program. ">
<polygon fill="none" stroke="black" points="106,-188.777 106,-207.777 167,-207.777 167,-188.777 106,-188.777"/>
<text text-anchor="middle" x="136.5" y="-195.777" font-family="Helvetica,sans-Serif" font-size="10.00">insert_line</text>
</a>
</g>
</g>
<!-- Node1&#45;&gt;Node26 -->
<g id="edge39" class="edge"><title>Node1&#45;&gt;Node26</title>
<path fill="none" stroke="midnightblue" d="M60.1091,-211.984C71.1325,-209.98 83.878,-207.663 95.7167,-205.51"/>
<polygon fill="midnightblue" stroke="midnightblue" points="96.6084,-208.906 105.821,-203.673 95.3561,-202.019 96.6084,-208.906"/>
</g>
<!-- Node27 -->
<g id="node27" class="node"><title>Node27</title>
<g id="a_node27"><a xlink:href="interpreter_8c.html#a3fc708ab62376ff333a697900b557961" target="_top" xlink:title="Move line at the end of program memory. ">
<polygon fill="none" stroke="black" points="106,-150.777 106,-169.777 167,-169.777 167,-150.777 106,-150.777"/>
<text text-anchor="middle" x="136.5" y="-157.777" font-family="Helvetica,sans-Serif" font-size="10.00">move_line</text>
</a>
</g>
</g>
<!-- Node1&#45;&gt;Node27 -->
<g id="edge40" class="edge"><title>Node1&#45;&gt;Node27</title>
<path fill="none" stroke="midnightblue" d="M46.5609,-207.703C59.6049,-199.793 78.803,-188.421 96,-179.277 99.118,-177.619 102.404,-175.938 105.694,-174.296"/>
<polygon fill="midnightblue" stroke="midnightblue" points="107.393,-177.362 114.841,-169.827 104.32,-171.072 107.393,-177.362"/>
</g>
<!-- Node28 -->
<g id="node28" class="node"><title>Node28</title>
<g id="a_node28"><a xlink:href="interpreter_8c.html#ac78b765daf8c1127f58a6ae260d05454" target="_top" xlink:title="Prepare line for merging with the program. ">
<polygon fill="none" stroke="black" points="108.5,-112.777 108.5,-131.777 164.5,-131.777 164.5,-112.777 108.5,-112.777"/>
<text text-anchor="middle" x="136.5" y="-119.777" font-family="Helvetica,sans-Serif" font-size="10.00">prep_line</text>
</a>
</g>
</g>
<!-- Node1&#45;&gt;Node28 -->
<g id="edge41" class="edge"><title>Node1&#45;&gt;Node28</title>
<path fill="none" stroke="midnightblue" d="M37.1811,-207.754C47.69,-192.166 70.4056,-160.969 96,-141.277 98.0581,-139.693 100.269,-138.194 102.557,-136.786"/>
<polygon fill="midnightblue" stroke="midnightblue" points="104.519,-139.701 111.589,-131.811 101.142,-133.569 104.519,-139.701"/>
</g>
<!-- Node29 -->
<g id="node29" class="node"><title>Node29</title>
<g id="a_node29"><a xlink:href="interpreter_8c.html#a80f48f3afb5e7166e7d9b93a20248afe" target="_top" xlink:title="Remove line from program. ">
<polygon fill="none" stroke="black" points="102,-74.777 102,-93.777 171,-93.777 171,-74.777 102,-74.777"/>
<text text-anchor="middle" x="136.5" y="-81.777" font-family="Helvetica,sans-Serif" font-size="10.00">remove_line</text>
</a>
</g>
</g>
<!-- Node1&#45;&gt;Node29 -->
<g id="edge42" class="edge"><title>Node1&#45;&gt;Node29</title>
<path fill="none" stroke="midnightblue" d="M34.1863,-207.759C41.7474,-186.452 62.6748,-134.352 96,-103.277 97.6279,-101.759 99.3995,-100.34 101.261,-99.0168"/>
<polygon fill="midnightblue" stroke="midnightblue" points="103.09,-102 109.826,-93.8226 99.4608,-96.015 103.09,-102"/>
</g>
<!-- Node30 -->
<g id="node30" class="node"><title>Node30</title>
<g id="a_node30"><a xlink:href="main_8c.html#a465c7ff93dae090d15d81d192c23e086" target="_top" xlink:title="Transform to uppercase. ">
<polygon fill="none" stroke="black" points="105.5,-36.777 105.5,-55.777 167.5,-55.777 167.5,-36.777 105.5,-36.777"/>
<text text-anchor="middle" x="136.5" y="-43.777" font-family="Helvetica,sans-Serif" font-size="10.00">uppercase</text>
</a>
</g>
</g>
<!-- Node1&#45;&gt;Node30 -->
<g id="edge43" class="edge"><title>Node1&#45;&gt;Node30</title>
<path fill="none" stroke="midnightblue" d="M32.7185,-207.421C37.7795,-181.092 54.9303,-108.205 96,-65.277 97.2297,-63.9917 98.5641,-62.7827 99.9739,-61.6468"/>
<polygon fill="midnightblue" stroke="midnightblue" points="102.244,-64.3428 108.668,-55.9179 98.392,-58.4976 102.244,-64.3428"/>
</g>
<!-- Node31 -->
<g id="node31" class="node"><title>Node31</title>
<g id="a_node31"><a xlink:href="interpreter_8c.html#ad441e17fe29b6b71e917f8ff03fd347c" target="_top" xlink:title="Perform a warm&#45;reset. ">
<polygon fill="none" stroke="black" points="102.5,-473.777 102.5,-492.777 170.5,-492.777 170.5,-473.777 102.5,-473.777"/>
<text text-anchor="middle" x="136.5" y="-480.777" font-family="Helvetica,sans-Serif" font-size="10.00">warm_reset</text>
</a>
</g>
</g>
<!-- Node1&#45;&gt;Node31 -->
<g id="edge44" class="edge"><title>Node1&#45;&gt;Node31</title>
<path fill="none" stroke="midnightblue" d="M34.5614,-226.959C44.198,-253.089 71.6972,-327.191 96,-388.277 106.53,-414.743 119.268,-445.1 127.378,-464.23"/>
<polygon fill="midnightblue" stroke="midnightblue" points="124.231,-465.773 131.364,-473.607 130.673,-463.035 124.231,-465.773"/>
</g>
<!-- Node3 -->
<g id="node3" class="node"><title>Node3</title>
<g id="a_node3"><a xlink:href="printing_8c.html#aa893fecf81f3b8383deb48439b24a27d" target="_top" xlink:title="Print a NEW LINE character. ">
<polygon fill="none" stroke="black" points="366.5,-530.777 366.5,-549.777 416.5,-549.777 416.5,-530.777 366.5,-530.777"/>
<text text-anchor="middle" x="391.5" y="-537.777" font-family="Helvetica,sans-Serif" font-size="10.00">newline</text>
</a>
</g>
</g>
<!-- Node2&#45;&gt;Node3 -->
<g id="edge2" class="edge"><title>Node2&#45;&gt;Node3</title>
<path fill="none" stroke="midnightblue" d="M169.286,-606.728C217.113,-592.362 307.203,-565.299 356.369,-550.53"/>
<polygon fill="midnightblue" stroke="midnightblue" points="357.64,-553.803 366.21,-547.574 355.626,-547.099 357.64,-553.803"/>
</g>
<!-- Node4 -->
<g id="node4" class="node"><title>Node4</title>
<g id="a_node4"><a xlink:href="io_8c.html#addfd18c48b34a434eefe9ea8b4db82ee" target="_top" xlink:title="Change on&#45;screen background colour. ">
<polygon fill="none" stroke="black" points="230,-644.777 230,-663.777 297,-663.777 297,-644.777 230,-644.777"/>
<text text-anchor="middle" x="263.5" y="-651.777" font-family="Helvetica,sans-Serif" font-size="10.00">paper_color</text>
</a>
</g>
</g>
<!-- Node2&#45;&gt;Node4 -->
<g id="edge3" class="edge"><title>Node2&#45;&gt;Node4</title>
<path fill="none" stroke="midnightblue" d="M169.043,-625.866C184.883,-630.681 204.273,-636.576 221.276,-641.745"/>
<polygon fill="midnightblue" stroke="midnightblue" points="220.382,-645.131 230.967,-644.691 222.418,-638.434 220.382,-645.131"/>
</g>
<!-- Node5 -->
<g id="node5" class="node"><title>Node5</title>
<g id="a_node5"><a xlink:href="printing_8c.html#a8788c3947bf9ede0778e41c57171473a" target="_top" xlink:title="Print a program line. ">
<polygon fill="none" stroke="black" points="238.5,-606.777 238.5,-625.777 288.5,-625.777 288.5,-606.777 238.5,-606.777"/>
<text text-anchor="middle" x="263.5" y="-613.777" font-family="Helvetica,sans-Serif" font-size="10.00">printline</text>
</a>
</g>
</g>
<!-- Node2&#45;&gt;Node5 -->
<g id="edge4" class="edge"><title>Node2&#45;&gt;Node5</title>
<path fill="none" stroke="midnightblue" d="M177.051,-616.277C193.439,-616.277 212.272,-616.277 228.08,-616.277"/>
<polygon fill="midnightblue" stroke="midnightblue" points="228.473,-619.777 238.473,-616.277 228.473,-612.777 228.473,-619.777"/>
</g>
<!-- Node9 -->
<g id="node9" class="node"><title>Node9</title>
<g id="a_node9"><a xlink:href="printing_8c.html#a7a9e102ce8d3edbc9937a84bcbc8c83f" target="_top" xlink:title="Print selected message from FLASH (with new&#45;line) ">
<polygon fill="none" stroke="black" points="236.5,-530.777 236.5,-549.777 290.5,-549.777 290.5,-530.777 236.5,-530.777"/>
<text text-anchor="middle" x="263.5" y="-537.777" font-family="Helvetica,sans-Serif" font-size="10.00">printmsg</text>
</a>
</g>
</g>
<!-- Node2&#45;&gt;Node9 -->
<g id="edge9" class="edge"><title>Node2&#45;&gt;Node9</title>
<path fill="none" stroke="midnightblue" d="M150.202,-606.642C164.9,-595.705 190.031,-577.652 213,-564.277 218.989,-560.79 225.56,-557.351 231.901,-554.214"/>
<polygon fill="midnightblue" stroke="midnightblue" points="233.444,-557.356 240.934,-549.862 230.406,-551.049 233.444,-557.356"/>
</g>
<!-- Node10 -->
<g id="node10" class="node"><title>Node10</title>
<g id="a_node10"><a xlink:href="printing_8c.html#aac89e2103a98020e1f0cf85e5d1df175" target="_top" xlink:title="Print selected message from FLASH (without new&#45;line) ">
<polygon fill="none" stroke="black" points="350,-568.777 350,-587.777 433,-587.777 433,-568.777 350,-568.777"/>
<text text-anchor="middle" x="391.5" y="-575.777" font-family="Helvetica,sans-Serif" font-size="10.00">printmsg_noNL</text>
</a>
</g>
</g>
<!-- Node2&#45;&gt;Node10 -->
<g id="edge12" class="edge"><title>Node2&#45;&gt;Node10</title>
<path fill="none" stroke="midnightblue" d="M141.585,-625.905C150.813,-646.232 175.433,-693.147 213,-711.277 253.427,-730.787 277.794,-737.812 314,-711.277 356.856,-679.869 315.004,-637.257 350,-597.277 351.023,-596.108 352.133,-595.006 353.311,-593.967"/>
<polygon fill="midnightblue" stroke="midnightblue" points="355.662,-596.595 361.853,-587.997 351.651,-590.857 355.662,-596.595"/>
</g>
<!-- Node11 -->
<g id="node11" class="node"><title>Node11</title>
<g id="a_node11"><a xlink:href="io_8c.html#a7d70114448d3feba71392e25e0eb4d78" target="_top" xlink:title="Change on&#45;screen text colour. ">
<polygon fill="none" stroke="black" points="234,-682.777 234,-701.777 293,-701.777 293,-682.777 234,-682.777"/>
<text text-anchor="middle" x="263.5" y="-689.777" font-family="Helvetica,sans-Serif" font-size="10.00">text_color</text>
</a>
</g>
</g>
<!-- Node2&#45;&gt;Node11 -->
<g id="edge13" class="edge"><title>Node2&#45;&gt;Node11</title>
<path fill="none" stroke="midnightblue" d="M148.085,-625.807C162.113,-638.062 188.012,-659.411 213,-673.277 216.667,-675.312 220.597,-677.224 224.58,-678.993"/>
<polygon fill="midnightblue" stroke="midnightblue" points="223.293,-682.249 233.871,-682.851 225.978,-675.784 223.293,-682.249"/>
</g>
<!-- Node5&#45;&gt;Node3 -->
<g id="edge8" class="edge"><title>Node5&#45;&gt;Node3</title>
<path fill="none" stroke="midnightblue" d="M287.689,-606.729C296.26,-602.769 305.863,-597.805 314,-592.277 331.954,-580.081 331.968,-571.358 350,-559.277 352.42,-557.656 354.999,-556.102 357.64,-554.63"/>
<polygon fill="midnightblue" stroke="midnightblue" points="359.419,-557.651 366.713,-549.966 356.219,-551.426 359.419,-557.651"/>
</g>
<!-- Node6 -->
<g id="node6" class="node"><title>Node6</title>
<g id="a_node6"><a xlink:href="printing_8c.html#ad62df87f7908fc3dd518b4f9f2cba2d2" target="_top" xlink:title="Print specified integer number. ">
<polygon fill="none" stroke="black" points="364.5,-606.777 364.5,-625.777 418.5,-625.777 418.5,-606.777 364.5,-606.777"/>
<text text-anchor="middle" x="391.5" y="-613.777" font-family="Helvetica,sans-Serif" font-size="10.00">printnum</text>
</a>
</g>
</g>
<!-- Node5&#45;&gt;Node6 -->
<g id="edge5" class="edge"><title>Node5&#45;&gt;Node6</title>
<path fill="none" stroke="midnightblue" d="M288.794,-616.277C307.269,-616.277 332.995,-616.277 353.951,-616.277"/>
<polygon fill="midnightblue" stroke="midnightblue" points="354.105,-619.777 364.105,-616.277 354.105,-612.777 354.105,-619.777"/>
</g>
<!-- Node7 -->
<g id="node7" class="node"><title>Node7</title>
<g id="a_node7"><a xlink:href="main_8c.html#a55596b0bb88dc1bd3952f30685e42564" target="_top" xlink:title="Push a byte in the STACK. ">
<polygon fill="none" stroke="black" points="478,-625.777 478,-644.777 540,-644.777 540,-625.777 478,-625.777"/>
<text text-anchor="middle" x="509" y="-632.777" font-family="Helvetica,sans-Serif" font-size="10.00">push_byte</text>
</a>
</g>
</g>
<!-- Node6&#45;&gt;Node7 -->
<g id="edge6" class="edge"><title>Node6&#45;&gt;Node7</title>
<path fill="none" stroke="midnightblue" d="M418.709,-620.588C433.123,-622.959 451.318,-625.953 467.517,-628.617"/>
<polygon fill="midnightblue" stroke="midnightblue" points="467.378,-632.142 477.814,-630.311 468.515,-625.234 467.378,-632.142"/>
</g>
<!-- Node8 -->
<g id="node8" class="node"><title>Node8</title>
<g id="a_node8"><a xlink:href="main_8c.html#adf3033740afb6eb9200e539dbf783239" target="_top" xlink:title="Pop a byte from the STACK. ">
<polygon fill="none" stroke="black" points="481,-587.777 481,-606.777 537,-606.777 537,-587.777 481,-587.777"/>
<text text-anchor="middle" x="509" y="-594.777" font-family="Helvetica,sans-Serif" font-size="10.00">pop_byte</text>
</a>
</g>
</g>
<!-- Node6&#45;&gt;Node8 -->
<g id="edge7" class="edge"><title>Node6&#45;&gt;Node8</title>
<path fill="none" stroke="midnightblue" d="M418.709,-611.966C434.031,-609.445 453.628,-606.221 470.556,-603.437"/>
<polygon fill="midnightblue" stroke="midnightblue" points="471.391,-606.846 480.69,-601.77 470.254,-599.939 471.391,-606.846"/>
</g>
<!-- Node9&#45;&gt;Node3 -->
<g id="edge11" class="edge"><title>Node9&#45;&gt;Node3</title>
<path fill="none" stroke="midnightblue" d="M290.607,-540.277C309.513,-540.277 335.263,-540.277 355.884,-540.277"/>
<polygon fill="midnightblue" stroke="midnightblue" points="356.136,-543.777 366.136,-540.277 356.136,-536.777 356.136,-543.777"/>
</g>
<!-- Node9&#45;&gt;Node10 -->
<g id="edge10" class="edge"><title>Node9&#45;&gt;Node10</title>
<path fill="none" stroke="midnightblue" d="M290.607,-548.151C307.426,-553.223 329.661,-559.929 348.883,-565.726"/>
<polygon fill="midnightblue" stroke="midnightblue" points="348.031,-569.125 358.616,-568.661 350.052,-562.423 348.031,-569.125"/>
</g>
<!-- Node12&#45;&gt;Node9 -->
<g id="edge29" class="edge"><title>Node12&#45;&gt;Node9</title>
<path fill="none" stroke="midnightblue" d="M141.21,-378.914C152.935,-408.957 189.787,-500.161 213,-521.277 217.086,-524.994 221.975,-528.012 227.067,-530.455"/>
<polygon fill="midnightblue" stroke="midnightblue" points="225.743,-533.694 236.322,-534.257 228.403,-527.219 225.743,-533.694"/>
</g>
<!-- Node13 -->
<g id="node13" class="node"><title>Node13</title>
<g id="a_node13"><a xlink:href="main_8c.html#acd9b94c6ca68bfcee93930f454e37b6b" target="_top" xlink:title="Check if BREAK button was pressed. ">
<polygon fill="none" stroke="black" points="232.5,-454.777 232.5,-473.777 294.5,-473.777 294.5,-454.777 232.5,-454.777"/>
<text text-anchor="middle" x="263.5" y="-461.777" font-family="Helvetica,sans-Serif" font-size="10.00">break_test</text>
</a>
</g>
</g>
<!-- Node12&#45;&gt;Node13 -->
<g id="edge15" class="edge"><title>Node12&#45;&gt;Node13</title>
<path fill="none" stroke="midnightblue" d="M146.018,-378.989C159.247,-393.653 186.029,-421.703 213,-440.277 218.265,-443.903 224.161,-447.273 229.998,-450.274"/>
<polygon fill="midnightblue" stroke="midnightblue" points="228.5,-453.438 239.023,-454.669 231.565,-447.144 228.5,-453.438"/>
</g>
<!-- Node14 -->
<g id="node14" class="node"><title>Node14</title>
<g id="a_node14"><a xlink:href="io_8c.html#a0d79c14d617757baa2806dc42d26f11a" target="_top" xlink:title="BEEP or flash the LED. ">
<polygon fill="none" stroke="black" points="237,-264.777 237,-283.777 290,-283.777 290,-264.777 237,-264.777"/>
<text text-anchor="middle" x="263.5" y="-271.777" font-family="Helvetica,sans-Serif" font-size="10.00">do_beep</text>
</a>
</g>
</g>
<!-- Node12&#45;&gt;Node14 -->
<g id="edge16" class="edge"><title>Node12&#45;&gt;Node14</title>
<path fill="none" stroke="midnightblue" d="M147.702,-359.528C167.472,-340.658 209.388,-300.764 213,-298.277 218.265,-294.651 224.161,-291.28 229.998,-288.28"/>
<polygon fill="midnightblue" stroke="midnightblue" points="231.565,-291.41 239.023,-283.885 228.5,-285.116 231.565,-291.41"/>
</g>
<!-- Node15 -->
<g id="node15" class="node"><title>Node15</title>
<g id="a_node15"><a xlink:href="main_8c.html#a77995f5f32cf02e2670d84114fa3c6b1" target="_top" xlink:title="Busy&#45;delay functions. ">
<polygon fill="none" stroke="black" points="227.5,-492.777 227.5,-511.777 299.5,-511.777 299.5,-492.777 227.5,-492.777"/>
<text text-anchor="middle" x="263.5" y="-499.777" font-family="Helvetica,sans-Serif" font-size="10.00">fx_delay_ms</text>
</a>
</g>
</g>
<!-- Node12&#45;&gt;Node15 -->
<g id="edge17" class="edge"><title>Node12&#45;&gt;Node15</title>
<path fill="none" stroke="midnightblue" d="M141.442,-378.99C150.717,-400.698 175.969,-453.565 213,-483.277 215.147,-485 217.468,-486.579 219.893,-488.026"/>
<polygon fill="midnightblue" stroke="midnightblue" points="218.509,-491.249 229.005,-492.697 221.703,-485.02 218.509,-491.249"/>
</g>
<!-- Node12&#45;&gt;Node16 -->
<g id="edge18" class="edge"><title>Node12&#45;&gt;Node16</title>
<path fill="none" stroke="midnightblue" d="M166.283,-372.851C213.175,-378.355 309.012,-388.277 390.5,-388.277 390.5,-388.277 390.5,-388.277 636.5,-388.277 713.32,-388.277 793.343,-336.505 829.976,-309.399"/>
<polygon fill="midnightblue" stroke="midnightblue" points="832.46,-311.909 838.326,-303.086 828.238,-306.325 832.46,-311.909"/>
</g>
<!-- Node17 -->
<g id="node17" class="node"><title>Node17</title>
<g id="a_node17"><a xlink:href="parser_8c.html#a4fe92c8d54d0ce4ec516d64f098ee056" target="_top" xlink:title="Search for relational operators. ">
<polygon fill="none" stroke="black" points="223.5,-340.777 223.5,-359.777 303.5,-359.777 303.5,-340.777 223.5,-340.777"/>
<text text-anchor="middle" x="263.5" y="-347.777" font-family="Helvetica,sans-Serif" font-size="10.00">parse_expr_s1</text>
</a>
</g>
</g>
<!-- Node12&#45;&gt;Node17 -->
<g id="edge19" class="edge"><title>Node12&#45;&gt;Node17</title>
<path fill="none" stroke="midnightblue" d="M166.178,-364.918C180.013,-362.815 197.013,-360.231 212.861,-357.822"/>
<polygon fill="midnightblue" stroke="midnightblue" points="213.703,-361.234 223.063,-356.271 212.651,-354.314 213.703,-361.234"/>
</g>
<!-- Node21 -->
<g id="node21" class="node"><title>Node21</title>
<g id="a_node21"><a xlink:href="parser_8c.html#ad7ccacd8a08ca721b55ce29bf016a849" target="_top" xlink:title="Search for any string in specified table. ">
<polygon fill="none" stroke="black" points="722,-264.777 722,-283.777 781,-283.777 781,-264.777 722,-264.777"/>
<text text-anchor="middle" x="751.5" y="-271.777" font-family="Helvetica,sans-Serif" font-size="10.00">scantable</text>
</a>
</g>
</g>
<!-- Node12&#45;&gt;Node21 -->
<g id="edge30" class="edge"><title>Node12&#45;&gt;Node21</title>
<path fill="none" stroke="midnightblue" d="M153.801,-359.69C168.77,-351.226 191.782,-339.054 213,-331.277 370.174,-273.666 417.755,-279.472 585,-272.277 628.261,-270.416 677.937,-271.439 711.486,-272.595"/>
<polygon fill="midnightblue" stroke="midnightblue" points="711.661,-276.104 721.783,-272.972 711.917,-269.109 711.661,-276.104"/>
</g>
<!-- Node18 -->
<g id="node18" class="node"><title>Node18</title>
<g id="a_node18"><a xlink:href="parser_8c.html#aaa34262580f9ec1997162ce62c1dcb94" target="_top" xlink:title="Search for subtraction or addition operators. ">
<polygon fill="none" stroke="black" points="351.5,-340.777 351.5,-359.777 431.5,-359.777 431.5,-340.777 351.5,-340.777"/>
<text text-anchor="middle" x="391.5" y="-347.777" font-family="Helvetica,sans-Serif" font-size="10.00">parse_expr_s2</text>
</a>
</g>
</g>
<!-- Node17&#45;&gt;Node18 -->
<g id="edge20" class="edge"><title>Node17&#45;&gt;Node18</title>
<path fill="none" stroke="midnightblue" d="M303.677,-350.277C315.529,-350.277 328.7,-350.277 341.128,-350.277"/>
<polygon fill="midnightblue" stroke="midnightblue" points="341.348,-353.777 351.348,-350.277 341.348,-346.777 341.348,-353.777"/>
</g>
<!-- Node17&#45;&gt;Node21 -->
<g id="edge28" class="edge"><title>Node17&#45;&gt;Node21</title>
<path fill="none" stroke="midnightblue" d="M285.475,-340.749C302.508,-333.424 327.335,-323.674 350,-318.277 480.096,-287.297 639.25,-278.049 711.5,-275.353"/>
<polygon fill="midnightblue" stroke="midnightblue" points="712.053,-278.835 721.924,-274.987 711.808,-271.84 712.053,-278.835"/>
</g>
<!-- Node19 -->
<g id="node19" class="node"><title>Node19</title>
<g id="a_node19"><a xlink:href="parser_8c.html#ae642e2964ae1b7ad02e9f31475d6167b" target="_top" xlink:title="Search for multiplication or division operators. ">
<polygon fill="none" stroke="black" points="469,-340.777 469,-359.777 549,-359.777 549,-340.777 469,-340.777"/>
<text text-anchor="middle" x="509" y="-347.777" font-family="Helvetica,sans-Serif" font-size="10.00">parse_expr_s3</text>
</a>
</g>
</g>
<!-- Node18&#45;&gt;Node19 -->
<g id="edge21" class="edge"><title>Node18&#45;&gt;Node19</title>
<path fill="none" stroke="midnightblue" d="M431.603,-350.277C440.352,-350.277 449.741,-350.277 458.839,-350.277"/>
<polygon fill="midnightblue" stroke="midnightblue" points="458.937,-353.777 468.937,-350.277 458.937,-346.777 458.937,-353.777"/>
</g>
<!-- Node19&#45;&gt;Node16 -->
<g id="edge27" class="edge"><title>Node19&#45;&gt;Node16</title>
<path fill="none" stroke="midnightblue" d="M549.075,-347.896C602.182,-344.057 699.835,-334.857 781,-315.277 791.722,-312.69 803.198,-309.315 813.673,-305.988"/>
<polygon fill="midnightblue" stroke="midnightblue" points="814.923,-309.262 823.351,-302.841 812.758,-302.605 814.923,-309.262"/>
</g>
<!-- Node20 -->
<g id="node20" class="node"><title>Node20</title>
<g id="a_node20"><a xlink:href="parser_8c.html#ad38a783e0f6ac48469c7e9ff1175f217" target="_top" xlink:title="Search for numbers, variables or functions. ">
<polygon fill="none" stroke="black" points="595.5,-302.777 595.5,-321.777 675.5,-321.777 675.5,-302.777 595.5,-302.777"/>
<text text-anchor="middle" x="635.5" y="-309.777" font-family="Helvetica,sans-Serif" font-size="10.00">parse_expr_s4</text>
</a>
</g>
</g>
<!-- Node19&#45;&gt;Node20 -->
<g id="edge22" class="edge"><title>Node19&#45;&gt;Node20</title>
<path fill="none" stroke="midnightblue" d="M541.417,-340.688C557.193,-335.873 576.505,-329.978 593.441,-324.809"/>
<polygon fill="midnightblue" stroke="midnightblue" points="594.551,-328.13 603.093,-321.863 592.507,-321.435 594.551,-328.13"/>
</g>
<!-- Node20&#45;&gt;Node16 -->
<g id="edge23" class="edge"><title>Node20&#45;&gt;Node16</title>
<path fill="none" stroke="midnightblue" d="M675.751,-308.792C712.7,-305.512 767.958,-300.605 806.409,-297.192"/>
<polygon fill="midnightblue" stroke="midnightblue" points="807.128,-300.642 816.779,-296.271 806.509,-293.669 807.128,-300.642"/>
</g>
<!-- Node20&#45;&gt;Node17 -->
<g id="edge26" class="edge"><title>Node20&#45;&gt;Node17</title>
<path fill="none" stroke="midnightblue" d="M595.187,-313.017C540.112,-314.48 436.974,-318.783 350,-331.277 337.536,-333.068 324.188,-335.688 311.834,-338.414"/>
<polygon fill="midnightblue" stroke="midnightblue" points="310.705,-335.081 301.73,-340.712 312.258,-341.907 310.705,-335.081"/>
</g>
<!-- Node20&#45;&gt;Node21 -->
<g id="edge24" class="edge"><title>Node20&#45;&gt;Node21</title>
<path fill="none" stroke="midnightblue" d="M665.267,-302.688C679.443,-297.963 696.737,-292.198 712.032,-287.1"/>
<polygon fill="midnightblue" stroke="midnightblue" points="713.362,-290.346 721.742,-283.863 711.149,-283.705 713.362,-290.346"/>
</g>
<!-- Node21&#45;&gt;Node16 -->
<g id="edge25" class="edge"><title>Node21&#45;&gt;Node16</title>
<path fill="none" stroke="midnightblue" d="M781.109,-279.824C789.149,-281.382 798.081,-283.114 806.787,-284.802"/>
<polygon fill="midnightblue" stroke="midnightblue" points="806.354,-288.283 816.837,-286.751 807.686,-281.411 806.354,-288.283"/>
</g>
<!-- Node23&#45;&gt;Node3 -->
<g id="edge35" class="edge"><title>Node23&#45;&gt;Node3</title>
<path fill="none" stroke="midnightblue" d="M161.753,-282.748C167.241,-285.485 172.708,-288.959 177,-293.277 203.35,-319.784 189.381,-340.31 213,-369.277 248.501,-412.816 273.629,-406.211 314,-445.277 339.223,-469.684 363.853,-502.311 378.085,-522.281"/>
<polygon fill="midnightblue" stroke="midnightblue" points="375.412,-524.565 384.025,-530.734 381.139,-520.54 375.412,-524.565"/>
</g>
<!-- Node23&#45;&gt;Node14 -->
<g id="edge34" class="edge"><title>Node23&#45;&gt;Node14</title>
<path fill="none" stroke="midnightblue" d="M161.601,-274.277C180.051,-274.277 205.79,-274.277 226.653,-274.277"/>
<polygon fill="midnightblue" stroke="midnightblue" points="226.752,-277.777 236.751,-274.277 226.751,-270.777 226.752,-277.777"/>
</g>
<!-- Node24 -->
<g id="node24" class="node"><title>Node24</title>
<g id="a_node24"><a xlink:href="main_8c.html#a98840489c057199354470e80b0779dfa" target="_top" xlink:title="Read from SERIAL or EEPROM. ">
<polygon fill="none" stroke="black" points="213,-226.777 213,-245.777 314,-245.777 314,-226.777 213,-226.777"/>
<text text-anchor="middle" x="263.5" y="-233.777" font-family="Helvetica,sans-Serif" font-size="10.00">read_serial_eeprom</text>
</a>
</g>
</g>
<!-- Node23&#45;&gt;Node24 -->
<g id="edge33" class="edge"><title>Node23&#45;&gt;Node24</title>
<path fill="none" stroke="midnightblue" d="M161.601,-266.95C178.473,-261.821 201.441,-254.839 221.201,-248.832"/>
<polygon fill="midnightblue" stroke="midnightblue" points="222.347,-252.142 230.897,-245.884 220.311,-245.444 222.347,-252.142"/>
</g>
<!-- Node25&#45;&gt;Node16 -->
<g id="edge37" class="edge"><title>Node25&#45;&gt;Node16</title>
<path fill="none" stroke="midnightblue" d="M655.121,-93.9624C684.449,-109.872 742.063,-143.841 781,-184.277 807.714,-212.019 829.843,-251.547 841.53,-274.594"/>
<polygon fill="midnightblue" stroke="midnightblue" points="838.441,-276.242 846.014,-283.652 844.714,-273.137 838.441,-276.242"/>
</g>
<!-- Node31&#45;&gt;Node9 -->
<g id="edge45" class="edge"><title>Node31&#45;&gt;Node9</title>
<path fill="none" stroke="midnightblue" d="M155.259,-492.848C170.409,-500.858 192.869,-512.374 213,-521.277 217.449,-523.244 222.17,-525.209 226.862,-527.089"/>
<polygon fill="midnightblue" stroke="midnightblue" points="225.766,-530.418 236.354,-530.8 228.315,-523.899 225.766,-530.418"/>
</g>
</g>
</svg>
        <g id="navigator" transform="translate(0 0)" fill="#404254">
                <rect fill="#f2f5e9" fill-opacity="0.5" stroke="#606060" stroke-width=".5" x="0" y="0" width="60" height="60"/>
                <use id="zoomplus" xlink:href="#zoomPlus" x="17" y="9" onmousedown="handleZoom(evt,'in')"/>
                <use id="zoomminus" xlink:href="#zoomMin" x="42" y="9" onmousedown="handleZoom(evt,'out')"/>
                <use id="reset" xlink:href="#resetDef" x="30" y="36" onmousedown="handleReset()"/>
                <g id="arrowUp" xlink:href="#dirArrow" transform="translate(30 24)" onmousedown="handlePan(0,-1)">
                  <use xlink:href="#rim" fill="#404040">
                        <set attributeName="fill" to="#808080" begin="arrowUp.mouseover" end="arrowUp.mouseout"/>
                  </use>
                  <path fill="none" stroke="white" stroke-width="1.5" d="M0,-3.0v7 M-2.5,-0.5L0,-3.0L2.5,-0.5"/>
                </g>
                <g id="arrowRight" xlink:href="#dirArrow" transform="rotate(90) translate(36 -43)" onmousedown="handlePan(1,0)">
                  <use xlink:href="#rim" fill="#404040">
                        <set attributeName="fill" to="#808080" begin="arrowRight.mouseover" end="arrowRight.mouseout"/>
                  </use>
                  <path fill="none" stroke="white" stroke-width="1.5" d="M0,-3.0v7 M-2.5,-0.5L0,-3.0L2.5,-0.5"/>
                </g>
                <g id="arrowDown" xlink:href="#dirArrow" transform="rotate(180) translate(-30 -48)" onmousedown="handlePan(0,1)">
                  <use xlink:href="#rim" fill="#404040">
                        <set attributeName="fill" to="#808080" begin="arrowDown.mouseover" end="arrowDown.mouseout"/>
                  </use>
                  <path fill="none" stroke="white" stroke-width="1.5" d="M0,-3.0v7 M-2.5,-0.5L0,-3.0L2.5,-0.5"/>
                </g>
                <g id="arrowLeft" xlink:href="#dirArrow" transform="rotate(270) translate(-36 17)" onmousedown="handlePan(-1,0)">
                  <use xlink:href="#rim" fill="#404040">
                        <set attributeName="fill" to="#808080" begin="arrowLeft.mouseover" end="arrowLeft.mouseout"/>
                  </use>
                  <path fill="none" stroke="white" stroke-width="1.5" d="M0,-3.0v7 M-2.5,-0.5L0,-3.0L2.5,-0.5"/>
                </g>
        </g>
        <svg viewBox="0 0 15 15" width="100%" height="30px" preserveAspectRatio="xMaxYMin meet">
         <g id="arrow_out" transform="scale(0.3 0.3)">
          <a xlink:href="interpreter_8c_a08a98a5503e4f3e1a5a19222d425275a_cgraph_org.svg" target="_base">
           <rect id="button" ry="5" rx="5" y="6" x="6" height="38" width="38"
                fill="#f2f5e9" fill-opacity="0.5" stroke="#606060" stroke-width="1.0"/>
           <path id="arrow"
             d="M 11.500037,31.436501 C 11.940474,20.09759 22.043105,11.32322 32.158766,21.979434 L 37.068811,17.246167 C 37.068811,17.246167 37.088388,32 37.088388,32 L 22.160133,31.978069 C 22.160133,31.978069 26.997745,27.140456 26.997745,27.140456 C 18.528582,18.264221 13.291696,25.230495 11.500037,31.436501 z"
             style="fill:#404040;"/>
          </a>
         </g>
        </svg>
</svg>
