<?xml version="1.0" encoding="UTF-8" standalone="no"?>
<!DOCTYPE svg PUBLIC "-//W3C//DTD SVG 1.1//EN"
 "http://www.w3.org/Graphics/SVG/1.1/DTD/svg11.dtd">
<!-- Generated by graphviz version 2.38.0 (20140413.2041)
 -->
<!-- Title: error_message Pages: 1 -->
<svg width="409pt" height="237pt"
 viewBox="0.00 0.00 409.00 237.00" xmlns="http://www.w3.org/2000/svg" xmlns:xlink="http://www.w3.org/1999/xlink">
<g id="graph0" class="graph" transform="scale(1 1) rotate(0) translate(4 233)">
<title>error_message</title>
<!-- Node1 -->
<g id="node1" class="node"><title>Node1</title>
<polygon fill="#bfbfbf" stroke="black" points="0,-95.5 0,-114.5 81,-114.5 81,-95.5 0,-95.5"/>
<text text-anchor="middle" x="40.5" y="-102.5" font-family="Helvetica,sans-Serif" font-size="10.00">error_message</text>
</g>
<!-- Node2 -->
<g id="node2" class="node"><title>Node2</title>
<g id="a_node2"><a xlink:href="printing_8c.html#aa893fecf81f3b8383deb48439b24a27d" target="_top" xlink:title="Print a NEW LINE character. ">
<polygon fill="none" stroke="black" points="236.5,-114.5 236.5,-133.5 286.5,-133.5 286.5,-114.5 236.5,-114.5"/>
<text text-anchor="middle" x="261.5" y="-121.5" font-family="Helvetica,sans-Serif" font-size="10.00">newline</text>
</a>
</g>
</g>
<!-- Node1&#45;&gt;Node2 -->
<g id="edge1" class="edge"><title>Node1&#45;&gt;Node2</title>
<path fill="none" stroke="midnightblue" d="M81.1592,-108.441C122.597,-112.036 186.936,-117.618 226.238,-121.028"/>
<polygon fill="midnightblue" stroke="midnightblue" points="226.115,-124.53 236.38,-121.907 226.72,-117.556 226.115,-124.53"/>
</g>
<!-- Node3 -->
<g id="node3" class="node"><title>Node3</title>
<g id="a_node3"><a xlink:href="io_8c.html#addfd18c48b34a434eefe9ea8b4db82ee" target="_top" xlink:title="Change on&#45;screen background colour. ">
<polygon fill="none" stroke="black" points="117,-152.5 117,-171.5 184,-171.5 184,-152.5 117,-152.5"/>
<text text-anchor="middle" x="150.5" y="-159.5" font-family="Helvetica,sans-Serif" font-size="10.00">paper_color</text>
</a>
</g>
</g>
<!-- Node1&#45;&gt;Node3 -->
<g id="edge2" class="edge"><title>Node1&#45;&gt;Node3</title>
<path fill="none" stroke="midnightblue" d="M59.8207,-114.669C76.9912,-123.731 102.873,-137.391 122.426,-147.711"/>
<polygon fill="midnightblue" stroke="midnightblue" points="120.972,-150.901 131.45,-152.474 124.24,-144.711 120.972,-150.901"/>
</g>
<!-- Node4 -->
<g id="node4" class="node"><title>Node4</title>
<g id="a_node4"><a xlink:href="printing_8c.html#a8788c3947bf9ede0778e41c57171473a" target="_top" xlink:title="Print a program line. ">
<polygon fill="none" stroke="black" points="125.5,-190.5 125.5,-209.5 175.5,-209.5 175.5,-190.5 125.5,-190.5"/>
<text text-anchor="middle" x="150.5" y="-197.5" font-family="Helvetica,sans-Serif" font-size="10.00">printline</text>
</a>
</g>
</g>
<!-- Node1&#45;&gt;Node4 -->
<g id="edge3" class="edge"><title>Node1&#45;&gt;Node4</title>
<path fill="none" stroke="midnightblue" d="M49.6361,-114.682C62.7763,-129.953 89.9417,-160.049 117,-181 118.764,-182.365 120.634,-183.705 122.553,-185"/>
<polygon fill="midnightblue" stroke="midnightblue" points="120.748,-188 131.08,-190.346 124.467,-182.069 120.748,-188"/>
</g>
<!-- Node8 -->
<g id="node8" class="node"><title>Node8</title>
<g id="a_node8"><a xlink:href="printing_8c.html#a7a9e102ce8d3edbc9937a84bcbc8c83f" target="_top" xlink:title="Print selected message from FLASH (with new&#45;line) ">
<polygon fill="none" stroke="black" points="123.5,-76.5 123.5,-95.5 177.5,-95.5 177.5,-76.5 123.5,-76.5"/>
<text text-anchor="middle" x="150.5" y="-83.5" font-family="Helvetica,sans-Serif" font-size="10.00">printmsg</text>
</a>
</g>
</g>
<!-- Node1&#45;&gt;Node8 -->
<g id="edge8" class="edge"><title>Node1&#45;&gt;Node8</title>
<path fill="none" stroke="midnightblue" d="M81.102,-98.033C91.6673,-96.1743 103.026,-94.176 113.393,-92.3522"/>
<polygon fill="midnightblue" stroke="midnightblue" points="114.12,-95.778 123.363,-90.5982 112.907,-88.8839 114.12,-95.778"/>
</g>
<!-- Node9 -->
<g id="node9" class="node"><title>Node9</title>
<g id="a_node9"><a xlink:href="printing_8c.html#aac89e2103a98020e1f0cf85e5d1df175" target="_top" xlink:title="Print selected message from FLASH (without new&#45;line) ">
<polygon fill="none" stroke="black" points="220,-57.5 220,-76.5 303,-76.5 303,-57.5 220,-57.5"/>
<text text-anchor="middle" x="261.5" y="-64.5" font-family="Helvetica,sans-Serif" font-size="10.00">printmsg_noNL</text>
</a>
</g>
</g>
<!-- Node1&#45;&gt;Node9 -->
<g id="edge11" class="edge"><title>Node1&#45;&gt;Node9</title>
<path fill="none" stroke="midnightblue" d="M55.4784,-95.4399C70.0778,-86.0811 94.0137,-72.4584 117,-67 147.091,-59.8545 181.742,-59.6391 209.455,-61.3129"/>
<polygon fill="midnightblue" stroke="midnightblue" points="209.492,-64.824 219.713,-62.0363 209.984,-57.8414 209.492,-64.824"/>
</g>
<!-- Node10 -->
<g id="node10" class="node"><title>Node10</title>
<g id="a_node10"><a xlink:href="io_8c.html#a7d70114448d3feba71392e25e0eb4d78" target="_top" xlink:title="Change on&#45;screen text colour. ">
<polygon fill="none" stroke="black" points="121,-0.5 121,-19.5 180,-19.5 180,-0.5 121,-0.5"/>
<text text-anchor="middle" x="150.5" y="-7.5" font-family="Helvetica,sans-Serif" font-size="10.00">text_color</text>
</a>
</g>
</g>
<!-- Node1&#45;&gt;Node10 -->
<g id="edge12" class="edge"><title>Node1&#45;&gt;Node10</title>
<path fill="none" stroke="midnightblue" d="M50.9366,-95.4291C64.9089,-81.4216 92.1326,-54.75 117,-34 120.332,-31.2195 123.952,-28.381 127.526,-25.675"/>
<polygon fill="midnightblue" stroke="midnightblue" points="129.662,-28.4486 135.625,-19.6912 125.503,-22.8186 129.662,-28.4486"/>
</g>
<!-- Node4&#45;&gt;Node2 -->
<g id="edge7" class="edge"><title>Node4&#45;&gt;Node2</title>
<path fill="none" stroke="midnightblue" d="M168.586,-190.489C173.622,-187.559 179.095,-184.247 184,-181 203.743,-167.932 225.289,-151.686 240.47,-139.886"/>
<polygon fill="midnightblue" stroke="midnightblue" points="242.896,-142.431 248.61,-133.509 238.58,-136.92 242.896,-142.431"/>
</g>
<!-- Node5 -->
<g id="node5" class="node"><title>Node5</title>
<g id="a_node5"><a xlink:href="printing_8c.html#ad62df87f7908fc3dd518b4f9f2cba2d2" target="_top" xlink:title="Print specified integer number. ">
<polygon fill="none" stroke="black" points="234.5,-190.5 234.5,-209.5 288.5,-209.5 288.5,-190.5 234.5,-190.5"/>
<text text-anchor="middle" x="261.5" y="-197.5" font-family="Helvetica,sans-Serif" font-size="10.00">printnum</text>
</a>
</g>
</g>
<!-- Node4&#45;&gt;Node5 -->
<g id="edge4" class="edge"><title>Node4&#45;&gt;Node5</title>
<path fill="none" stroke="midnightblue" d="M175.691,-200C189.994,-200 208.38,-200 224.375,-200"/>
<polygon fill="midnightblue" stroke="midnightblue" points="224.474,-203.5 234.474,-200 224.474,-196.5 224.474,-203.5"/>
</g>
<!-- Node6 -->
<g id="node6" class="node"><title>Node6</title>
<g id="a_node6"><a xlink:href="main_8c.html#a55596b0bb88dc1bd3952f30685e42564" target="_top" xlink:title="Push a byte in the STACK. ">
<polygon fill="none" stroke="black" points="339,-209.5 339,-228.5 401,-228.5 401,-209.5 339,-209.5"/>
<text text-anchor="middle" x="370" y="-216.5" font-family="Helvetica,sans-Serif" font-size="10.00">push_byte</text>
</a>
</g>
</g>
<!-- Node5&#45;&gt;Node6 -->
<g id="edge5" class="edge"><title>Node5&#45;&gt;Node6</title>
<path fill="none" stroke="midnightblue" d="M288.553,-204.648C300.625,-206.802 315.245,-209.41 328.694,-211.809"/>
<polygon fill="midnightblue" stroke="midnightblue" points="328.228,-215.281 338.687,-213.592 329.457,-208.39 328.228,-215.281"/>
</g>
<!-- Node7 -->
<g id="node7" class="node"><title>Node7</title>
<g id="a_node7"><a xlink:href="main_8c.html#adf3033740afb6eb9200e539dbf783239" target="_top" xlink:title="Pop a byte from the STACK. ">
<polygon fill="none" stroke="black" points="342,-171.5 342,-190.5 398,-190.5 398,-171.5 342,-171.5"/>
<text text-anchor="middle" x="370" y="-178.5" font-family="Helvetica,sans-Serif" font-size="10.00">pop_byte</text>
</a>
</g>
</g>
<!-- Node5&#45;&gt;Node7 -->
<g id="edge6" class="edge"><title>Node5&#45;&gt;Node7</title>
<path fill="none" stroke="midnightblue" d="M288.553,-195.352C301.536,-193.036 317.467,-190.194 331.717,-187.651"/>
<polygon fill="midnightblue" stroke="midnightblue" points="332.5,-191.067 341.73,-185.865 331.271,-184.176 332.5,-191.067"/>
</g>
<!-- Node8&#45;&gt;Node2 -->
<g id="edge10" class="edge"><title>Node8&#45;&gt;Node2</title>
<path fill="none" stroke="midnightblue" d="M177.608,-95.1019C192.421,-100.266 211.115,-106.783 227,-112.321"/>
<polygon fill="midnightblue" stroke="midnightblue" points="225.873,-115.635 236.468,-115.622 228.177,-109.025 225.873,-115.635"/>
</g>
<!-- Node8&#45;&gt;Node9 -->
<g id="edge9" class="edge"><title>Node8&#45;&gt;Node9</title>
<path fill="none" stroke="midnightblue" d="M177.608,-81.449C187.252,-79.7679 198.542,-77.8 209.63,-75.8672"/>
<polygon fill="midnightblue" stroke="midnightblue" points="210.454,-79.2765 219.704,-74.1112 209.252,-72.3805 210.454,-79.2765"/>
</g>
</g>
</svg>
