<?xml version="1.0" encoding="UTF-8" standalone="no"?>
<!DOCTYPE svg PUBLIC "-//W3C//DTD SVG 1.1//EN"
 "http://www.w3.org/Graphics/SVG/1.1/DTD/svg11.dtd">
<!-- Generated by graphviz version 2.38.0 (20140413.2041)
 -->
<!-- Title: warm_reset Pages: 1 -->
<svg width="285pt" height="66pt"
 viewBox="0.00 0.00 285.00 66.00" xmlns="http://www.w3.org/2000/svg" xmlns:xlink="http://www.w3.org/1999/xlink">
<g id="graph0" class="graph" transform="scale(1 1) rotate(0) translate(4 62)">
<title>warm_reset</title>
<!-- Node1 -->
<g id="node1" class="node"><title>Node1</title>
<polygon fill="#bfbfbf" stroke="black" points="0,-19.5 0,-38.5 68,-38.5 68,-19.5 0,-19.5"/>
<text text-anchor="middle" x="34" y="-26.5" font-family="Helvetica,sans-Serif" font-size="10.00">warm_reset</text>
</g>
<!-- Node2 -->
<g id="node2" class="node"><title>Node2</title>
<g id="a_node2"><a xlink:href="printing_8c.html#a7a9e102ce8d3edbc9937a84bcbc8c83f" target="_top" xlink:title="Print selected message from FLASH (with new&#45;line) ">
<polygon fill="none" stroke="black" points="104,-19.5 104,-38.5 158,-38.5 158,-19.5 104,-19.5"/>
<text text-anchor="middle" x="131" y="-26.5" font-family="Helvetica,sans-Serif" font-size="10.00">printmsg</text>
</a>
</g>
</g>
<!-- Node1&#45;&gt;Node2 -->
<g id="edge1" class="edge"><title>Node1&#45;&gt;Node2</title>
<path fill="none" stroke="midnightblue" d="M68.2264,-29C76.4279,-29 85.2553,-29 93.5988,-29"/>
<polygon fill="midnightblue" stroke="midnightblue" points="93.8248,-32.5001 103.825,-29 93.8247,-25.5001 93.8248,-32.5001"/>
</g>
<!-- Node3 -->
<g id="node3" class="node"><title>Node3</title>
<g id="a_node3"><a xlink:href="printing_8c.html#aac89e2103a98020e1f0cf85e5d1df175" target="_top" xlink:title="Print selected message from FLASH (without new&#45;line) ">
<polygon fill="none" stroke="black" points="194,-38.5 194,-57.5 277,-57.5 277,-38.5 194,-38.5"/>
<text text-anchor="middle" x="235.5" y="-45.5" font-family="Helvetica,sans-Serif" font-size="10.00">printmsg_noNL</text>
</a>
</g>
</g>
<!-- Node2&#45;&gt;Node3 -->
<g id="edge2" class="edge"><title>Node2&#45;&gt;Node3</title>
<path fill="none" stroke="midnightblue" d="M158.13,-33.8437C165.973,-35.2975 174.859,-36.9447 183.726,-38.5883"/>
<polygon fill="midnightblue" stroke="midnightblue" points="183.202,-42.0507 193.673,-40.432 184.478,-35.168 183.202,-42.0507"/>
</g>
<!-- Node4 -->
<g id="node4" class="node"><title>Node4</title>
<g id="a_node4"><a xlink:href="printing_8c.html#aa893fecf81f3b8383deb48439b24a27d" target="_top" xlink:title="Print a NEW LINE character. ">
<polygon fill="none" stroke="black" points="210.5,-0.5 210.5,-19.5 260.5,-19.5 260.5,-0.5 210.5,-0.5"/>
<text text-anchor="middle" x="235.5" y="-7.5" font-family="Helvetica,sans-Serif" font-size="10.00">newline</text>
</a>
</g>
</g>
<!-- Node2&#45;&gt;Node4 -->
<g id="edge3" class="edge"><title>Node2&#45;&gt;Node4</title>
<path fill="none" stroke="midnightblue" d="M158.13,-24.1563C170.892,-21.7908 186.414,-18.9135 200.123,-16.3723"/>
<polygon fill="midnightblue" stroke="midnightblue" points="200.983,-19.7726 210.177,-14.5086 199.707,-12.8899 200.983,-19.7726"/>
</g>
</g>
</svg>
