<?xml version="1.0" encoding="UTF-8" standalone="no"?>
<!DOCTYPE svg PUBLIC "-//W3C//DTD SVG 1.1//EN"
 "http://www.w3.org/Graphics/SVG/1.1/DTD/svg11.dtd">
<!-- Generated by graphviz version 2.38.0 (20140413.2041)
 -->
<!-- Title: warm_reset Pages: 1 -->
<svg width="246pt" height="28pt"
 viewBox="0.00 0.00 246.00 28.00" xmlns="http://www.w3.org/2000/svg" xmlns:xlink="http://www.w3.org/1999/xlink">
<g id="graph0" class="graph" transform="scale(1 1) rotate(0) translate(4 24)">
<title>warm_reset</title>
<!-- Node1 -->
<g id="node1" class="node"><title>Node1</title>
<polygon fill="#bfbfbf" stroke="black" points="0,-0.5 0,-19.5 68,-19.5 68,-0.5 0,-0.5"/>
<text text-anchor="middle" x="34" y="-7.5" font-family="Helvetica,sans-Serif" font-size="10.00">warm_reset</text>
</g>
<!-- Node2 -->
<g id="node2" class="node"><title>Node2</title>
<g id="a_node2"><a xlink:href="interpreter_8h.html#a08a98a5503e4f3e1a5a19222d425275a" target="_top" xlink:title="The interpreter main loop. ">
<polygon fill="none" stroke="black" points="104,-0.5 104,-19.5 164,-19.5 164,-0.5 104,-0.5"/>
<text text-anchor="middle" x="134" y="-7.5" font-family="Helvetica,sans-Serif" font-size="10.00">interpreter</text>
</a>
</g>
</g>
<!-- Node1&#45;&gt;Node2 -->
<g id="edge1" class="edge"><title>Node1&#45;&gt;Node2</title>
<path fill="none" stroke="midnightblue" d="M78.4518,-10C87.0264,-10 95.8306,-10 103.796,-10"/>
<polygon fill="midnightblue" stroke="midnightblue" points="78.1784,-6.5001 68.1783,-10 78.1783,-13.5001 78.1784,-6.5001"/>
</g>
<!-- Node3 -->
<g id="node3" class="node"><title>Node3</title>
<g id="a_node3"><a xlink:href="main_8h.html#a840291bc02cba5474a4cb46a9b9566fe" target="_top" xlink:title="Program entry point – the main function. ">
<polygon fill="none" stroke="black" points="200,-0.5 200,-19.5 238,-19.5 238,-0.5 200,-0.5"/>
<text text-anchor="middle" x="219" y="-7.5" font-family="Helvetica,sans-Serif" font-size="10.00">main</text>
</a>
</g>
</g>
<!-- Node2&#45;&gt;Node3 -->
<g id="edge2" class="edge"><title>Node2&#45;&gt;Node3</title>
<path fill="none" stroke="midnightblue" d="M174.096,-10C183.152,-10 192.361,-10 199.99,-10"/>
<polygon fill="midnightblue" stroke="midnightblue" points="174.029,-6.5001 164.029,-10 174.029,-13.5001 174.029,-6.5001"/>
</g>
</g>
</svg>
