<?xml version="1.0" encoding="UTF-8" standalone="no"?>
<!DOCTYPE svg PUBLIC "-//W3C//DTD SVG 1.1//EN"
 "http://www.w3.org/Graphics/SVG/1.1/DTD/svg11.dtd">
<!-- Generated by graphviz version 2.38.0 (20140413.2041)
 -->
<!-- Title: ISR Pages: 1 -->
<svg width="373pt" height="123pt"
 viewBox="0.00 0.00 373.00 123.00" xmlns="http://www.w3.org/2000/svg" xmlns:xlink="http://www.w3.org/1999/xlink">
<g id="graph0" class="graph" transform="scale(1 1) rotate(0) translate(4 119)">
<title>ISR</title>
<!-- Node1 -->
<g id="node1" class="node"><title>Node1</title>
<polygon fill="#bfbfbf" stroke="black" points="0,-38.5 0,-57.5 34,-57.5 34,-38.5 0,-38.5"/>
<text text-anchor="middle" x="17" y="-45.5" font-family="Helvetica,sans-Serif" font-size="10.00">ISR</text>
</g>
<!-- Node2 -->
<g id="node2" class="node"><title>Node2</title>
<g id="a_node2"><a xlink:href="io_8c.html#ac1d977279fb3e9ff3927d2e62e4737a2" target="_top" xlink:title="Keyboard data decoding. ">
<polygon fill="none" stroke="black" points="70,-38.5 70,-57.5 134,-57.5 134,-38.5 70,-38.5"/>
<text text-anchor="middle" x="102" y="-45.5" font-family="Helvetica,sans-Serif" font-size="10.00">kb_decode</text>
</a>
</g>
</g>
<!-- Node1&#45;&gt;Node2 -->
<g id="edge1" class="edge"><title>Node1&#45;&gt;Node2</title>
<path fill="none" stroke="midnightblue" d="M34.0032,-48C41.3961,-48 50.5515,-48 59.6942,-48"/>
<polygon fill="midnightblue" stroke="midnightblue" points="59.9168,-51.5001 69.9168,-48 59.9168,-44.5001 59.9168,-51.5001"/>
</g>
<!-- Node3 -->
<g id="node3" class="node"><title>Node3</title>
<g id="a_node3"><a xlink:href="printing_8c.html#a7a9e102ce8d3edbc9937a84bcbc8c83f" target="_top" xlink:title="Print selected message from FLASH (with new&#45;line) ">
<polygon fill="none" stroke="black" points="181,-76.5 181,-95.5 235,-95.5 235,-76.5 181,-76.5"/>
<text text-anchor="middle" x="208" y="-83.5" font-family="Helvetica,sans-Serif" font-size="10.00">printmsg</text>
</a>
</g>
</g>
<!-- Node2&#45;&gt;Node3 -->
<g id="edge2" class="edge"><title>Node2&#45;&gt;Node3</title>
<path fill="none" stroke="midnightblue" d="M129.244,-57.589C141.93,-62.2244 157.353,-67.8596 171.107,-72.8853"/>
<polygon fill="midnightblue" stroke="midnightblue" points="170.171,-76.2695 180.765,-76.4141 172.573,-69.6946 170.171,-76.2695"/>
</g>
<!-- Node6 -->
<g id="node6" class="node"><title>Node6</title>
<g id="a_node6"><a xlink:href="io_8c.html#a0d79c14d617757baa2806dc42d26f11a" target="_top" xlink:title="BEEP or flash the LED. ">
<polygon fill="none" stroke="black" points="297,-10.5 297,-29.5 350,-29.5 350,-10.5 297,-10.5"/>
<text text-anchor="middle" x="323.5" y="-17.5" font-family="Helvetica,sans-Serif" font-size="10.00">do_beep</text>
</a>
</g>
</g>
<!-- Node2&#45;&gt;Node6 -->
<g id="edge5" class="edge"><title>Node2&#45;&gt;Node6</title>
<path fill="none" stroke="midnightblue" d="M134.449,-43.9883C174.774,-38.8443 244.526,-29.9466 286.801,-24.5538"/>
<polygon fill="midnightblue" stroke="midnightblue" points="287.446,-28 296.923,-23.2627 286.56,-21.0563 287.446,-28"/>
</g>
<!-- Node7 -->
<g id="node7" class="node"><title>Node7</title>
<g id="a_node7"><a xlink:href="io_8c.html#a32c958c980bd758c71ce56378b408c95" target="_top" xlink:title="Put incoming data to keyboard&#45;buffer. ">
<polygon fill="none" stroke="black" points="170,-0.5 170,-19.5 246,-19.5 246,-0.5 170,-0.5"/>
<text text-anchor="middle" x="208" y="-7.5" font-family="Helvetica,sans-Serif" font-size="10.00">put_kb_buffer</text>
</a>
</g>
</g>
<!-- Node2&#45;&gt;Node7 -->
<g id="edge6" class="edge"><title>Node2&#45;&gt;Node7</title>
<path fill="none" stroke="midnightblue" d="M129.244,-38.411C141.93,-33.7756 157.353,-28.1404 171.107,-23.1147"/>
<polygon fill="midnightblue" stroke="midnightblue" points="172.573,-26.3054 180.765,-19.5859 170.171,-19.7305 172.573,-26.3054"/>
</g>
<!-- Node4 -->
<g id="node4" class="node"><title>Node4</title>
<g id="a_node4"><a xlink:href="printing_8c.html#aac89e2103a98020e1f0cf85e5d1df175" target="_top" xlink:title="Print selected message from FLASH (without new&#45;line) ">
<polygon fill="none" stroke="black" points="282,-95.5 282,-114.5 365,-114.5 365,-95.5 282,-95.5"/>
<text text-anchor="middle" x="323.5" y="-102.5" font-family="Helvetica,sans-Serif" font-size="10.00">printmsg_noNL</text>
</a>
</g>
</g>
<!-- Node3&#45;&gt;Node4 -->
<g id="edge3" class="edge"><title>Node3&#45;&gt;Node4</title>
<path fill="none" stroke="midnightblue" d="M235.039,-90.359C245.987,-92.1917 259.118,-94.3897 271.836,-96.5187"/>
<polygon fill="midnightblue" stroke="midnightblue" points="271.456,-100.004 281.897,-98.203 272.612,-93.0999 271.456,-100.004"/>
</g>
<!-- Node5 -->
<g id="node5" class="node"><title>Node5</title>
<g id="a_node5"><a xlink:href="printing_8c.html#aa893fecf81f3b8383deb48439b24a27d" target="_top" xlink:title="Print a NEW LINE character. ">
<polygon fill="none" stroke="black" points="298.5,-57.5 298.5,-76.5 348.5,-76.5 348.5,-57.5 298.5,-57.5"/>
<text text-anchor="middle" x="323.5" y="-64.5" font-family="Helvetica,sans-Serif" font-size="10.00">newline</text>
</a>
</g>
</g>
<!-- Node3&#45;&gt;Node5 -->
<g id="edge4" class="edge"><title>Node3&#45;&gt;Node5</title>
<path fill="none" stroke="midnightblue" d="M235.039,-81.641C250.757,-79.0099 270.972,-75.6258 288.008,-72.7741"/>
<polygon fill="midnightblue" stroke="midnightblue" points="288.85,-76.1818 298.135,-71.0787 287.694,-69.2779 288.85,-76.1818"/>
</g>
<!-- Node7&#45;&gt;Node6 -->
<g id="edge7" class="edge"><title>Node7&#45;&gt;Node6</title>
<path fill="none" stroke="midnightblue" d="M246.164,-13.2744C259.094,-14.4136 273.571,-15.6891 286.412,-16.8205"/>
<polygon fill="midnightblue" stroke="midnightblue" points="286.476,-20.3396 296.745,-17.7308 287.091,-13.3666 286.476,-20.3396"/>
</g>
</g>
</svg>
