<?xml version="1.0" encoding="UTF-8" standalone="no"?>
<!DOCTYPE svg PUBLIC "-//W3C//DTD SVG 1.1//EN"
 "http://www.w3.org/Graphics/SVG/1.1/DTD/svg11.dtd">
<!-- Generated by graphviz version 2.38.0 (20140413.2041)
 -->
<!-- Title: kb_decode Pages: 1 -->
<svg width="303pt" height="113pt"
 viewBox="0.00 0.00 303.00 113.00" xmlns="http://www.w3.org/2000/svg" xmlns:xlink="http://www.w3.org/1999/xlink">
<g id="graph0" class="graph" transform="scale(1 1) rotate(0) translate(4 109)">
<title>kb_decode</title>
<!-- Node1 -->
<g id="node1" class="node"><title>Node1</title>
<polygon fill="#bfbfbf" stroke="black" points="0,-57.5 0,-76.5 64,-76.5 64,-57.5 0,-57.5"/>
<text text-anchor="middle" x="32" y="-64.5" font-family="Helvetica,sans-Serif" font-size="10.00">kb_decode</text>
</g>
<!-- Node2 -->
<g id="node2" class="node"><title>Node2</title>
<g id="a_node2"><a xlink:href="io_8c.html#a0d79c14d617757baa2806dc42d26f11a" target="_top" xlink:title="BEEP or flash the LED. ">
<polygon fill="none" stroke="black" points="227,-85.5 227,-104.5 280,-104.5 280,-85.5 227,-85.5"/>
<text text-anchor="middle" x="253.5" y="-92.5" font-family="Helvetica,sans-Serif" font-size="10.00">do_beep</text>
</a>
</g>
</g>
<!-- Node1&#45;&gt;Node2 -->
<g id="edge1" class="edge"><title>Node1&#45;&gt;Node2</title>
<path fill="none" stroke="midnightblue" d="M61.3783,-76.5238C73.1889,-80.0992 87.1252,-83.8212 100,-86 139.532,-92.6899 185.555,-94.6172 216.617,-95.0738"/>
<polygon fill="midnightblue" stroke="midnightblue" points="216.91,-98.5769 226.945,-95.1794 216.981,-91.5772 216.91,-98.5769"/>
</g>
<!-- Node3 -->
<g id="node3" class="node"><title>Node3</title>
<g id="a_node3"><a xlink:href="printing_8c.html#a7a9e102ce8d3edbc9937a84bcbc8c83f" target="_top" xlink:title="Print selected message from FLASH (with new&#45;line) ">
<polygon fill="none" stroke="black" points="111,-19.5 111,-38.5 165,-38.5 165,-19.5 111,-19.5"/>
<text text-anchor="middle" x="138" y="-26.5" font-family="Helvetica,sans-Serif" font-size="10.00">printmsg</text>
</a>
</g>
</g>
<!-- Node1&#45;&gt;Node3 -->
<g id="edge2" class="edge"><title>Node1&#45;&gt;Node3</title>
<path fill="none" stroke="midnightblue" d="M59.2436,-57.411C71.93,-52.7756 87.3527,-47.1404 101.107,-42.1147"/>
<polygon fill="midnightblue" stroke="midnightblue" points="102.573,-45.3054 110.765,-38.5859 100.171,-38.7305 102.573,-45.3054"/>
</g>
<!-- Node6 -->
<g id="node6" class="node"><title>Node6</title>
<g id="a_node6"><a xlink:href="io_8c.html#a32c958c980bd758c71ce56378b408c95" target="_top" xlink:title="Put incoming data to keyboard&#45;buffer. ">
<polygon fill="none" stroke="black" points="100,-57.5 100,-76.5 176,-76.5 176,-57.5 100,-57.5"/>
<text text-anchor="middle" x="138" y="-64.5" font-family="Helvetica,sans-Serif" font-size="10.00">put_kb_buffer</text>
</a>
</g>
</g>
<!-- Node1&#45;&gt;Node6 -->
<g id="edge5" class="edge"><title>Node1&#45;&gt;Node6</title>
<path fill="none" stroke="midnightblue" d="M64.2034,-67C72.2882,-67 81.176,-67 89.8798,-67"/>
<polygon fill="midnightblue" stroke="midnightblue" points="89.9537,-70.5001 99.9536,-67 89.9536,-63.5001 89.9537,-70.5001"/>
</g>
<!-- Node4 -->
<g id="node4" class="node"><title>Node4</title>
<g id="a_node4"><a xlink:href="printing_8c.html#aac89e2103a98020e1f0cf85e5d1df175" target="_top" xlink:title="Print selected message from FLASH (without new&#45;line) ">
<polygon fill="none" stroke="black" points="212,-38.5 212,-57.5 295,-57.5 295,-38.5 212,-38.5"/>
<text text-anchor="middle" x="253.5" y="-45.5" font-family="Helvetica,sans-Serif" font-size="10.00">printmsg_noNL</text>
</a>
</g>
</g>
<!-- Node3&#45;&gt;Node4 -->
<g id="edge3" class="edge"><title>Node3&#45;&gt;Node4</title>
<path fill="none" stroke="midnightblue" d="M165.039,-33.359C175.987,-35.1917 189.118,-37.3897 201.836,-39.5187"/>
<polygon fill="midnightblue" stroke="midnightblue" points="201.456,-43.0039 211.897,-41.203 202.612,-36.0999 201.456,-43.0039"/>
</g>
<!-- Node5 -->
<g id="node5" class="node"><title>Node5</title>
<g id="a_node5"><a xlink:href="printing_8c.html#aa893fecf81f3b8383deb48439b24a27d" target="_top" xlink:title="Print a NEW LINE character. ">
<polygon fill="none" stroke="black" points="228.5,-0.5 228.5,-19.5 278.5,-19.5 278.5,-0.5 228.5,-0.5"/>
<text text-anchor="middle" x="253.5" y="-7.5" font-family="Helvetica,sans-Serif" font-size="10.00">newline</text>
</a>
</g>
</g>
<!-- Node3&#45;&gt;Node5 -->
<g id="edge4" class="edge"><title>Node3&#45;&gt;Node5</title>
<path fill="none" stroke="midnightblue" d="M165.039,-24.641C180.757,-22.0099 200.972,-18.6258 218.008,-15.7741"/>
<polygon fill="midnightblue" stroke="midnightblue" points="218.85,-19.1818 228.135,-14.0787 217.694,-12.2779 218.85,-19.1818"/>
</g>
<!-- Node6&#45;&gt;Node2 -->
<g id="edge6" class="edge"><title>Node6&#45;&gt;Node2</title>
<path fill="none" stroke="midnightblue" d="M176.164,-76.1682C189.224,-79.39 203.86,-83.0008 216.797,-86.1923"/>
<polygon fill="midnightblue" stroke="midnightblue" points="216.198,-89.6493 226.745,-88.6464 217.874,-82.853 216.198,-89.6493"/>
</g>
</g>
</svg>
