<?xml version="1.0" encoding="UTF-8" standalone="no"?>
<!DOCTYPE svg PUBLIC "-//W3C//DTD SVG 1.1//EN"
 "http://www.w3.org/Graphics/SVG/1.1/DTD/svg11.dtd">
<!-- Generated by graphviz version 2.38.0 (20140413.2041)
 -->
<!-- Title: send_to_apu Pages: 1 -->
<svg width="196pt" height="66pt"
 viewBox="0.00 0.00 196.00 66.00" xmlns="http://www.w3.org/2000/svg" xmlns:xlink="http://www.w3.org/1999/xlink">
<g id="graph0" class="graph" transform="scale(1 1) rotate(0) translate(4 62)">
<title>send_to_apu</title>
<!-- Node1 -->
<g id="node1" class="node"><title>Node1</title>
<polygon fill="#bfbfbf" stroke="black" points="0,-19.5 0,-38.5 72,-38.5 72,-19.5 0,-19.5"/>
<text text-anchor="middle" x="36" y="-26.5" font-family="Helvetica,sans-Serif" font-size="10.00">send_to_apu</text>
</g>
<!-- Node2 -->
<g id="node2" class="node"><title>Node2</title>
<g id="a_node2"><a xlink:href="parser_8h.html#add20ad0e3bc2540ad0d16743399e2b85" target="_top" xlink:title="Search for channel number. ">
<polygon fill="none" stroke="black" points="108,-38.5 108,-57.5 188,-57.5 188,-38.5 108,-38.5"/>
<text text-anchor="middle" x="148" y="-45.5" font-family="Helvetica,sans-Serif" font-size="10.00">parse_channel</text>
</a>
</g>
</g>
<!-- Node1&#45;&gt;Node2 -->
<g id="edge1" class="edge"><title>Node1&#45;&gt;Node2</title>
<path fill="none" stroke="midnightblue" d="M82.1913,-36.8058C90.6339,-38.264 99.3951,-39.7773 107.644,-41.2022"/>
<polygon fill="midnightblue" stroke="midnightblue" points="82.557,-33.3172 72.1071,-35.064 81.3655,-40.215 82.557,-33.3172"/>
</g>
<!-- Node3 -->
<g id="node3" class="node"><title>Node3</title>
<g id="a_node3"><a xlink:href="parser_8h.html#a124d7501c04fc4ee446a9c2b8fc94d53" target="_top" xlink:title="Search for notes. ">
<polygon fill="none" stroke="black" points="113,-0.5 113,-19.5 183,-19.5 183,-0.5 113,-0.5"/>
<text text-anchor="middle" x="148" y="-7.5" font-family="Helvetica,sans-Serif" font-size="10.00">parse_notes</text>
</a>
</g>
</g>
<!-- Node1&#45;&gt;Node3 -->
<g id="edge2" class="edge"><title>Node1&#45;&gt;Node3</title>
<path fill="none" stroke="midnightblue" d="M82.1851,-21.1953C92.4769,-19.4176 103.242,-17.5581 112.977,-15.8767"/>
<polygon fill="midnightblue" stroke="midnightblue" points="81.3655,-17.785 72.1071,-22.936 82.557,-24.6828 81.3655,-17.785"/>
</g>
</g>
</svg>
