<?xml version="1.0" encoding="UTF-8" standalone="no"?>
<!DOCTYPE svg PUBLIC "-//W3C//DTD SVG 1.1//EN"
 "http://www.w3.org/Graphics/SVG/1.1/DTD/svg11.dtd">
<!-- Generated by graphviz version 2.38.0 (20140413.2041)
 -->
<!-- Title: init_io Pages: 1 -->
<svg width="175pt" height="66pt"
 viewBox="0.00 0.00 175.00 66.00" xmlns="http://www.w3.org/2000/svg" xmlns:xlink="http://www.w3.org/1999/xlink">
<g id="graph0" class="graph" transform="scale(1 1) rotate(0) translate(4 62)">
<title>init_io</title>
<!-- Node1 -->
<g id="node1" class="node"><title>Node1</title>
<polygon fill="#bfbfbf" stroke="black" points="0,-19.5 0,-38.5 42,-38.5 42,-19.5 0,-19.5"/>
<text text-anchor="middle" x="21" y="-26.5" font-family="Helvetica,sans-Serif" font-size="10.00">init_io</text>
</g>
<!-- Node2 -->
<g id="node2" class="node"><title>Node2</title>
<g id="a_node2"><a xlink:href="io_8c.html#ac19e870c3ea785bd1c4dd30921e2b7e2" target="_top" xlink:title="Setup communication with keyboard. ">
<polygon fill="none" stroke="black" points="100,-38.5 100,-57.5 145,-57.5 145,-38.5 100,-38.5"/>
<text text-anchor="middle" x="122.5" y="-45.5" font-family="Helvetica,sans-Serif" font-size="10.00">init_kb</text>
</a>
</g>
</g>
<!-- Node1&#45;&gt;Node2 -->
<g id="edge1" class="edge"><title>Node1&#45;&gt;Node2</title>
<path fill="none" stroke="midnightblue" d="M42.1353,-32.8449C55.7,-35.4352 73.8828,-38.9073 89.4219,-41.8745"/>
<polygon fill="midnightblue" stroke="midnightblue" points="89.1891,-45.3933 99.6681,-43.8311 90.5021,-38.5175 89.1891,-45.3933"/>
</g>
<!-- Node3 -->
<g id="node3" class="node"><title>Node3</title>
<g id="a_node3"><a xlink:href="io_8c.html#abbc5518f3ef5b3d0ef1b00aeffa0211e" target="_top" xlink:title="Reset terminal attached to serial port. ">
<polygon fill="none" stroke="black" points="78,-0.5 78,-19.5 167,-19.5 167,-0.5 78,-0.5"/>
<text text-anchor="middle" x="122.5" y="-7.5" font-family="Helvetica,sans-Serif" font-size="10.00">uart_ansi_rst_clr</text>
</a>
</g>
</g>
<!-- Node1&#45;&gt;Node3 -->
<g id="edge2" class="edge"><title>Node1&#45;&gt;Node3</title>
<path fill="none" stroke="midnightblue" d="M42.1353,-25.1551C49.7251,-23.7058 58.7606,-21.9804 67.9699,-20.2218"/>
<polygon fill="midnightblue" stroke="midnightblue" points="68.8049,-23.6257 77.9709,-18.3121 67.4919,-16.7499 68.8049,-23.6257"/>
</g>
</g>
</svg>
