<?xml version="1.0" encoding="UTF-8" standalone="no"?>
<!DOCTYPE svg PUBLIC "-//W3C//DTD SVG 1.1//EN"
 "http://www.w3.org/Graphics/SVG/1.1/DTD/svg11.dtd">
<!-- Generated by graphviz version 2.38.0 (20140413.2041)
 -->
<!-- Title: put_kb_buffer Pages: 1 -->
<svg width="254pt" height="28pt"
 viewBox="0.00 0.00 254.00 28.00" xmlns="http://www.w3.org/2000/svg" xmlns:xlink="http://www.w3.org/1999/xlink">
<g id="graph0" class="graph" transform="scale(1 1) rotate(0) translate(4 24)">
<title>put_kb_buffer</title>
<!-- Node1 -->
<g id="node1" class="node"><title>Node1</title>
<polygon fill="#bfbfbf" stroke="black" points="0,-0.5 0,-19.5 76,-19.5 76,-0.5 0,-0.5"/>
<text text-anchor="middle" x="38" y="-7.5" font-family="Helvetica,sans-Serif" font-size="10.00">put_kb_buffer</text>
</g>
<!-- Node2 -->
<g id="node2" class="node"><title>Node2</title>
<g id="a_node2"><a xlink:href="io_8h.html#ac1d977279fb3e9ff3927d2e62e4737a2" target="_top" xlink:title="Keyboard data decoding. ">
<polygon fill="none" stroke="black" points="112,-0.5 112,-19.5 176,-19.5 176,-0.5 112,-0.5"/>
<text text-anchor="middle" x="144" y="-7.5" font-family="Helvetica,sans-Serif" font-size="10.00">kb_decode</text>
</a>
</g>
</g>
<!-- Node1&#45;&gt;Node2 -->
<g id="edge1" class="edge"><title>Node1&#45;&gt;Node2</title>
<path fill="none" stroke="midnightblue" d="M86.2856,-10C94.9508,-10 103.792,-10 111.836,-10"/>
<polygon fill="midnightblue" stroke="midnightblue" points="86.2527,-6.5001 76.2526,-10 86.2526,-13.5001 86.2527,-6.5001"/>
</g>
<!-- Node3 -->
<g id="node3" class="node"><title>Node3</title>
<g id="a_node3"><a xlink:href="io_8c.html#afea150fcd685610cb9f7672fce361e53" target="_top" xlink:title="ISR: Gather bits sent from the keyboard and form packets. ">
<polygon fill="none" stroke="black" points="212,-0.5 212,-19.5 246,-19.5 246,-0.5 212,-0.5"/>
<text text-anchor="middle" x="229" y="-7.5" font-family="Helvetica,sans-Serif" font-size="10.00">ISR</text>
</a>
</g>
</g>
<!-- Node2&#45;&gt;Node3 -->
<g id="edge2" class="edge"><title>Node2&#45;&gt;Node3</title>
<path fill="none" stroke="midnightblue" d="M186.504,-10C195.553,-10 204.602,-10 211.929,-10"/>
<polygon fill="midnightblue" stroke="midnightblue" points="186.379,-6.5001 176.379,-10 186.379,-13.5001 186.379,-6.5001"/>
</g>
</g>
</svg>
