<?xml version="1.0" encoding="UTF-8" standalone="no"?>
<!DOCTYPE svg PUBLIC "-//W3C//DTD SVG 1.1//EN"
 "http://www.w3.org/Graphics/SVG/1.1/DTD/svg11.dtd">
<!-- Generated by graphviz version 2.38.0 (20140413.2041)
 -->
<!-- Title: init_kb Pages: 1 -->
<svg width="205pt" height="28pt"
 viewBox="0.00 0.00 205.00 28.00" xmlns="http://www.w3.org/2000/svg" xmlns:xlink="http://www.w3.org/1999/xlink">
<g id="graph0" class="graph" transform="scale(1 1) rotate(0) translate(4 24)">
<title>init_kb</title>
<!-- Node1 -->
<g id="node1" class="node"><title>Node1</title>
<polygon fill="#bfbfbf" stroke="black" points="0,-0.5 0,-19.5 45,-19.5 45,-0.5 0,-0.5"/>
<text text-anchor="middle" x="22.5" y="-7.5" font-family="Helvetica,sans-Serif" font-size="10.00">init_kb</text>
</g>
<!-- Node2 -->
<g id="node2" class="node"><title>Node2</title>
<g id="a_node2"><a xlink:href="io_8h.html#a0a7500cb71e3070b5eefb6c66b4b0ede" target="_top" xlink:title="Microcontroiller peripheral initialization. ">
<polygon fill="none" stroke="black" points="81,-0.5 81,-19.5 123,-19.5 123,-0.5 81,-0.5"/>
<text text-anchor="middle" x="102" y="-7.5" font-family="Helvetica,sans-Serif" font-size="10.00">init_io</text>
</a>
</g>
</g>
<!-- Node1&#45;&gt;Node2 -->
<g id="edge1" class="edge"><title>Node1&#45;&gt;Node2</title>
<path fill="none" stroke="midnightblue" d="M55.2776,-10C63.9252,-10 73.0518,-10 80.8575,-10"/>
<polygon fill="midnightblue" stroke="midnightblue" points="55.0881,-6.5001 45.0881,-10 55.088,-13.5001 55.0881,-6.5001"/>
</g>
<!-- Node3 -->
<g id="node3" class="node"><title>Node3</title>
<g id="a_node3"><a xlink:href="main_8h.html#a840291bc02cba5474a4cb46a9b9566fe" target="_top" xlink:title="Program entry point – the main function. ">
<polygon fill="none" stroke="black" points="159,-0.5 159,-19.5 197,-19.5 197,-0.5 159,-0.5"/>
<text text-anchor="middle" x="178" y="-7.5" font-family="Helvetica,sans-Serif" font-size="10.00">main</text>
</a>
</g>
</g>
<!-- Node2&#45;&gt;Node3 -->
<g id="edge2" class="edge"><title>Node2&#45;&gt;Node3</title>
<path fill="none" stroke="midnightblue" d="M133.381,-10C142.021,-10 151.159,-10 158.826,-10"/>
<polygon fill="midnightblue" stroke="midnightblue" points="133.221,-6.5001 123.221,-10 133.221,-13.5001 133.221,-6.5001"/>
</g>
</g>
</svg>
