<?xml version="1.0" encoding="UTF-8" standalone="no"?>
<!DOCTYPE svg PUBLIC "-//W3C//DTD SVG 1.1//EN"
 "http://www.w3.org/Graphics/SVG/1.1/DTD/svg11.dtd">
<!-- Generated by graphviz version 2.38.0 (20140413.2041)
 -->
<!-- Title: uart_ansi_rst_clr Pages: 1 -->
<svg width="249pt" height="28pt"
 viewBox="0.00 0.00 249.00 28.00" xmlns="http://www.w3.org/2000/svg" xmlns:xlink="http://www.w3.org/1999/xlink">
<g id="graph0" class="graph" transform="scale(1 1) rotate(0) translate(4 24)">
<title>uart_ansi_rst_clr</title>
<!-- Node1 -->
<g id="node1" class="node"><title>Node1</title>
<polygon fill="#bfbfbf" stroke="black" points="0,-0.5 0,-19.5 89,-19.5 89,-0.5 0,-0.5"/>
<text text-anchor="middle" x="44.5" y="-7.5" font-family="Helvetica,sans-Serif" font-size="10.00">uart_ansi_rst_clr</text>
</g>
<!-- Node2 -->
<g id="node2" class="node"><title>Node2</title>
<g id="a_node2"><a xlink:href="io_8h.html#a0a7500cb71e3070b5eefb6c66b4b0ede" target="_top" xlink:title="Microcontroiller peripheral initialization. ">
<polygon fill="none" stroke="black" points="125,-0.5 125,-19.5 167,-19.5 167,-0.5 125,-0.5"/>
<text text-anchor="middle" x="146" y="-7.5" font-family="Helvetica,sans-Serif" font-size="10.00">init_io</text>
</a>
</g>
</g>
<!-- Node1&#45;&gt;Node2 -->
<g id="edge1" class="edge"><title>Node1&#45;&gt;Node2</title>
<path fill="none" stroke="midnightblue" d="M99.3875,-10C108.45,-10 117.328,-10 124.808,-10"/>
<polygon fill="midnightblue" stroke="midnightblue" points="99.1422,-6.5001 89.1421,-10 99.1421,-13.5001 99.1422,-6.5001"/>
</g>
<!-- Node3 -->
<g id="node3" class="node"><title>Node3</title>
<g id="a_node3"><a xlink:href="main_8h.html#a840291bc02cba5474a4cb46a9b9566fe" target="_top" xlink:title="Program entry point – the main function. ">
<polygon fill="none" stroke="black" points="203,-0.5 203,-19.5 241,-19.5 241,-0.5 203,-0.5"/>
<text text-anchor="middle" x="222" y="-7.5" font-family="Helvetica,sans-Serif" font-size="10.00">main</text>
</a>
</g>
</g>
<!-- Node2&#45;&gt;Node3 -->
<g id="edge2" class="edge"><title>Node2&#45;&gt;Node3</title>
<path fill="none" stroke="midnightblue" d="M177.381,-10C186.021,-10 195.159,-10 202.826,-10"/>
<polygon fill="midnightblue" stroke="midnightblue" points="177.221,-6.5001 167.221,-10 177.221,-13.5001 177.221,-6.5001"/>
</g>
</g>
</svg>
