<?xml version="1.0" encoding="UTF-8" standalone="no"?>
<!DOCTYPE svg PUBLIC "-//W3C//DTD SVG 1.1//EN"
 "http://www.w3.org/Graphics/SVG/1.1/DTD/svg11.dtd">
<!-- Generated by graphviz version 2.38.0 (20140413.2041)
 -->
<!-- Title: do_beep Pages: 1 -->
<svg width="347pt" height="180pt"
 viewBox="0.00 0.00 347.00 180.00" xmlns="http://www.w3.org/2000/svg" xmlns:xlink="http://www.w3.org/1999/xlink">
<g id="graph0" class="graph" transform="scale(1 1) rotate(0) translate(4 176)">
<title>do_beep</title>
<!-- Node1 -->
<g id="node1" class="node"><title>Node1</title>
<polygon fill="#bfbfbf" stroke="black" points="0,-76.5 0,-95.5 53,-95.5 53,-76.5 0,-76.5"/>
<text text-anchor="middle" x="26.5" y="-83.5" font-family="Helvetica,sans-Serif" font-size="10.00">do_beep</text>
</g>
<!-- Node2 -->
<g id="node2" class="node"><title>Node2</title>
<g id="a_node2"><a xlink:href="interpreter_8c.html#ae0c498ea10540cc81b1388062c7cf86e" target="_top" xlink:title="Execute specified line. ">
<polygon fill="none" stroke="black" points="97.5,-152.5 97.5,-171.5 156.5,-171.5 156.5,-152.5 97.5,-152.5"/>
<text text-anchor="middle" x="127" y="-159.5" font-family="Helvetica,sans-Serif" font-size="10.00">execution</text>
</a>
</g>
</g>
<!-- Node1&#45;&gt;Node2 -->
<g id="edge1" class="edge"><title>Node1&#45;&gt;Node2</title>
<path fill="none" stroke="midnightblue" d="M43.3791,-103.021C55.2149,-115.109 72.1752,-131.218 89,-143 93.8502,-146.397 99.3895,-149.567 104.679,-152.307"/>
<polygon fill="midnightblue" stroke="midnightblue" points="45.8442,-100.535 36.3943,-95.7443 40.7943,-105.382 45.8442,-100.535"/>
</g>
<!-- Node4 -->
<g id="node4" class="node"><title>Node4</title>
<g id="a_node4"><a xlink:href="main_8h.html#a840291bc02cba5474a4cb46a9b9566fe" target="_top" xlink:title="Program entry point – the main function. ">
<polygon fill="none" stroke="black" points="301,-95.5 301,-114.5 339,-114.5 339,-95.5 301,-95.5"/>
<text text-anchor="middle" x="320" y="-102.5" font-family="Helvetica,sans-Serif" font-size="10.00">main</text>
</a>
</g>
</g>
<!-- Node1&#45;&gt;Node4 -->
<g id="edge8" class="edge"><title>Node1&#45;&gt;Node4</title>
<path fill="none" stroke="midnightblue" d="M63.3255,-88.3351C126.083,-92.4256 253.714,-100.745 300.919,-103.821"/>
<polygon fill="midnightblue" stroke="midnightblue" points="63.3197,-84.8274 53.1132,-87.6695 62.8643,-91.8126 63.3197,-84.8274"/>
</g>
<!-- Node5 -->
<g id="node5" class="node"><title>Node5</title>
<g id="a_node5"><a xlink:href="main_8h.html#af44d438dc813084f712e286e88697bca" target="_top" xlink:title="Get line(s) from EEPROM, SERIAL or STDIO. ">
<polygon fill="none" stroke="black" points="102,-114.5 102,-133.5 152,-133.5 152,-114.5 102,-114.5"/>
<text text-anchor="middle" x="127" y="-121.5" font-family="Helvetica,sans-Serif" font-size="10.00">get_line</text>
</a>
</g>
</g>
<!-- Node1&#45;&gt;Node5 -->
<g id="edge4" class="edge"><title>Node1&#45;&gt;Node5</title>
<path fill="none" stroke="midnightblue" d="M62.0342,-99.3228C75.1747,-104.392 89.8543,-110.055 101.833,-114.677"/>
<polygon fill="midnightblue" stroke="midnightblue" points="62.9453,-95.9229 52.3557,-95.589 60.4257,-102.454 62.9453,-95.9229"/>
</g>
<!-- Node6 -->
<g id="node6" class="node"><title>Node6</title>
<g id="a_node6"><a xlink:href="io_8h.html#ac1d977279fb3e9ff3927d2e62e4737a2" target="_top" xlink:title="Keyboard data decoding. ">
<polygon fill="none" stroke="black" points="201,-19.5 201,-38.5 265,-38.5 265,-19.5 201,-19.5"/>
<text text-anchor="middle" x="233" y="-26.5" font-family="Helvetica,sans-Serif" font-size="10.00">kb_decode</text>
</a>
</g>
</g>
<!-- Node1&#45;&gt;Node6 -->
<g id="edge6" class="edge"><title>Node1&#45;&gt;Node6</title>
<path fill="none" stroke="midnightblue" d="M63.2701,-76.0299C102.246,-65.1661 163.971,-47.9617 200.972,-37.6484"/>
<polygon fill="midnightblue" stroke="midnightblue" points="62.0931,-72.7244 53.4001,-78.7809 63.9726,-79.4674 62.0931,-72.7244"/>
</g>
<!-- Node8 -->
<g id="node8" class="node"><title>Node8</title>
<g id="a_node8"><a xlink:href="io_8h.html#a32c958c980bd758c71ce56378b408c95" target="_top" xlink:title="Put incoming data to keyboard&#45;buffer. ">
<polygon fill="none" stroke="black" points="89,-0.5 89,-19.5 165,-19.5 165,-0.5 89,-0.5"/>
<text text-anchor="middle" x="127" y="-7.5" font-family="Helvetica,sans-Serif" font-size="10.00">put_kb_buffer</text>
</a>
</g>
</g>
<!-- Node1&#45;&gt;Node8 -->
<g id="edge9" class="edge"><title>Node1&#45;&gt;Node8</title>
<path fill="none" stroke="midnightblue" d="M45.6061,-69.6427C57.6009,-59.072 73.8586,-45.2419 89,-34 95.7622,-28.9793 103.545,-23.8421 110.222,-19.6155"/>
<polygon fill="midnightblue" stroke="midnightblue" points="43.1923,-67.1055 38.0491,-76.3683 47.846,-72.3346 43.1923,-67.1055"/>
</g>
<!-- Node3 -->
<g id="node3" class="node"><title>Node3</title>
<g id="a_node3"><a xlink:href="interpreter_8h.html#a08a98a5503e4f3e1a5a19222d425275a" target="_top" xlink:title="The interpreter main loop. ">
<polygon fill="none" stroke="black" points="203,-114.5 203,-133.5 263,-133.5 263,-114.5 203,-114.5"/>
<text text-anchor="middle" x="233" y="-121.5" font-family="Helvetica,sans-Serif" font-size="10.00">interpreter</text>
</a>
</g>
</g>
<!-- Node2&#45;&gt;Node3 -->
<g id="edge2" class="edge"><title>Node2&#45;&gt;Node3</title>
<path fill="none" stroke="midnightblue" d="M163.902,-148.882C177.657,-143.856 193.08,-138.221 205.765,-133.586"/>
<polygon fill="midnightblue" stroke="midnightblue" points="162.435,-145.692 154.244,-152.411 164.837,-152.266 162.435,-145.692"/>
</g>
<!-- Node3&#45;&gt;Node4 -->
<g id="edge3" class="edge"><title>Node3&#45;&gt;Node4</title>
<path fill="none" stroke="midnightblue" d="M273.162,-115.246C282.834,-113.084 292.738,-110.87 300.853,-109.056"/>
<polygon fill="midnightblue" stroke="midnightblue" points="272.248,-111.864 263.252,-117.461 273.775,-118.695 272.248,-111.864"/>
</g>
<!-- Node5&#45;&gt;Node3 -->
<g id="edge5" class="edge"><title>Node5&#45;&gt;Node3</title>
<path fill="none" stroke="midnightblue" d="M162.21,-124C175.346,-124 190.203,-124 202.823,-124"/>
<polygon fill="midnightblue" stroke="midnightblue" points="162.121,-120.5 152.121,-124 162.121,-127.5 162.121,-120.5"/>
</g>
<!-- Node7 -->
<g id="node7" class="node"><title>Node7</title>
<g id="a_node7"><a xlink:href="io_8c.html#afea150fcd685610cb9f7672fce361e53" target="_top" xlink:title="ISR: Gather bits sent from the keyboard and form packets. ">
<polygon fill="none" stroke="black" points="303,-19.5 303,-38.5 337,-38.5 337,-19.5 303,-19.5"/>
<text text-anchor="middle" x="320" y="-26.5" font-family="Helvetica,sans-Serif" font-size="10.00">ISR</text>
</a>
</g>
</g>
<!-- Node6&#45;&gt;Node7 -->
<g id="edge7" class="edge"><title>Node6&#45;&gt;Node7</title>
<path fill="none" stroke="midnightblue" d="M275.194,-29C284.929,-29 294.755,-29 302.627,-29"/>
<polygon fill="midnightblue" stroke="midnightblue" points="275.168,-25.5001 265.168,-29 275.168,-32.5001 275.168,-25.5001"/>
</g>
<!-- Node8&#45;&gt;Node6 -->
<g id="edge10" class="edge"><title>Node8&#45;&gt;Node6</title>
<path fill="none" stroke="midnightblue" d="M175.286,-18.6387C183.951,-20.2218 192.792,-21.837 200.836,-23.3066"/>
<polygon fill="midnightblue" stroke="midnightblue" points="175.719,-15.16 165.253,-16.8058 174.461,-22.046 175.719,-15.16"/>
</g>
</g>
</svg>
