<?xml version="1.0" encoding="UTF-8" standalone="no"?>
<!DOCTYPE svg PUBLIC "-//W3C//DTD SVG 1.1//EN"
 "http://www.w3.org/Graphics/SVG/1.1/DTD/svg11.dtd">
<!-- Generated by graphviz version 2.38.0 (20140413.2041)
 -->
<!-- Title: putchar_ser Pages: 1 -->
<svg width="180pt" height="46pt"
 viewBox="0.00 0.00 180.00 46.00" xmlns="http://www.w3.org/2000/svg" xmlns:xlink="http://www.w3.org/1999/xlink">
<g id="graph0" class="graph" transform="scale(1 1) rotate(0) translate(4 42)">
<title>putchar_ser</title>
<!-- Node1 -->
<g id="node1" class="node"><title>Node1</title>
<polygon fill="#bfbfbf" stroke="black" points="0,-0.5 0,-19.5 68,-19.5 68,-0.5 0,-0.5"/>
<text text-anchor="middle" x="34" y="-7.5" font-family="Helvetica,sans-Serif" font-size="10.00">putchar_ser</text>
</g>
<!-- Node2 -->
<g id="node2" class="node"><title>Node2</title>
<g id="a_node2"><a xlink:href="io_8h.html#a0aa23286b329c281aa69acbc663b5a97" target="_top" xlink:title="Send character to device attched on serial port. ">
<polygon fill="none" stroke="black" points="104,-0.5 104,-19.5 172,-19.5 172,-0.5 104,-0.5"/>
<text text-anchor="middle" x="138" y="-7.5" font-family="Helvetica,sans-Serif" font-size="10.00">putchar_ser</text>
</a>
</g>
</g>
<!-- Node1&#45;&gt;Node2 -->
<g id="edge1" class="edge"><title>Node1&#45;&gt;Node2</title>
<path fill="none" stroke="midnightblue" d="M78.2803,-10C86.7858,-10 95.5846,-10 103.701,-10"/>
<polygon fill="midnightblue" stroke="midnightblue" points="78.1165,-6.5001 68.1165,-10 78.1164,-13.5001 78.1165,-6.5001"/>
</g>
<!-- Node2&#45;&gt;Node2 -->
<g id="edge2" class="edge"><title>Node2&#45;&gt;Node2</title>
<path fill="none" stroke="midnightblue" d="M118.742,-29.4C120.028,-34.3146 126.447,-38 138,-38 156.484,-38 161.828,-28.5653 154.029,-19.7571"/>
<polygon fill="midnightblue" stroke="midnightblue" points="122.114,-30.3509 121.971,-19.7571 115.476,-28.1283 122.114,-30.3509"/>
</g>
</g>
</svg>
