<?xml version="1.0" encoding="UTF-8" standalone="no"?>
<!DOCTYPE svg PUBLIC "-//W3C//DTD SVG 1.1//EN"
 "http://www.w3.org/Graphics/SVG/1.1/DTD/svg11.dtd">
<!-- Generated by graphviz version 2.38.0 (20140413.2041)
 -->
<!-- Title: push_byte Pages: 1 -->
<svg width="533pt" height="66pt"
 viewBox="0.00 0.00 533.00 66.00" xmlns="http://www.w3.org/2000/svg" xmlns:xlink="http://www.w3.org/1999/xlink">
<g id="graph0" class="graph" transform="scale(1 1) rotate(0) translate(4 62)">
<title>push_byte</title>
<!-- Node1 -->
<g id="node1" class="node"><title>Node1</title>
<polygon fill="#bfbfbf" stroke="black" points="0,-19.5 0,-38.5 62,-38.5 62,-19.5 0,-19.5"/>
<text text-anchor="middle" x="31" y="-26.5" font-family="Helvetica,sans-Serif" font-size="10.00">push_byte</text>
</g>
<!-- Node2 -->
<g id="node2" class="node"><title>Node2</title>
<g id="a_node2"><a xlink:href="printing_8h.html#a81474d704fbed814bd96dc6400387397" target="_top" xlink:title="Print specified integer number. ">
<polygon fill="none" stroke="black" points="98,-19.5 98,-38.5 152,-38.5 152,-19.5 98,-19.5"/>
<text text-anchor="middle" x="125" y="-26.5" font-family="Helvetica,sans-Serif" font-size="10.00">printnum</text>
</a>
</g>
</g>
<!-- Node1&#45;&gt;Node2 -->
<g id="edge1" class="edge"><title>Node1&#45;&gt;Node2</title>
<path fill="none" stroke="midnightblue" d="M72.1353,-29C80.8398,-29 89.829,-29 97.8288,-29"/>
<polygon fill="midnightblue" stroke="midnightblue" points="72.1243,-25.5001 62.1242,-29 72.1242,-32.5001 72.1243,-25.5001"/>
</g>
<!-- Node3 -->
<g id="node3" class="node"><title>Node3</title>
<g id="a_node3"><a xlink:href="interpreter_8h.html#ad8667f20f0a1f7689ba90c07ea0460af" target="_top" xlink:title="Initialization of language interpreter. ">
<polygon fill="none" stroke="black" points="285.5,-38.5 285.5,-57.5 343.5,-57.5 343.5,-38.5 285.5,-38.5"/>
<text text-anchor="middle" x="314.5" y="-45.5" font-family="Helvetica,sans-Serif" font-size="10.00">basic_init</text>
</a>
</g>
</g>
<!-- Node2&#45;&gt;Node3 -->
<g id="edge2" class="edge"><title>Node2&#45;&gt;Node3</title>
<path fill="none" stroke="midnightblue" d="M162.124,-32.6606C198.019,-36.2979 252.325,-41.801 285.201,-45.1324"/>
<polygon fill="midnightblue" stroke="midnightblue" points="162.373,-29.168 152.071,-31.6419 161.667,-36.1323 162.373,-29.168"/>
</g>
<!-- Node5 -->
<g id="node5" class="node"><title>Node5</title>
<g id="a_node5"><a xlink:href="printing_8h.html#a8788c3947bf9ede0778e41c57171473a" target="_top" xlink:title="Print a program line. ">
<polygon fill="none" stroke="black" points="188,-0.5 188,-19.5 238,-19.5 238,-0.5 188,-0.5"/>
<text text-anchor="middle" x="213" y="-7.5" font-family="Helvetica,sans-Serif" font-size="10.00">printline</text>
</a>
</g>
</g>
<!-- Node2&#45;&gt;Node5 -->
<g id="edge4" class="edge"><title>Node2&#45;&gt;Node5</title>
<path fill="none" stroke="midnightblue" d="M162.206,-21.0009C170.894,-19.0816 179.961,-17.0784 187.941,-15.3155"/>
<polygon fill="midnightblue" stroke="midnightblue" points="161.28,-17.6212 152.27,-23.1961 162.79,-24.4564 161.28,-17.6212"/>
</g>
<!-- Node4 -->
<g id="node4" class="node"><title>Node4</title>
<g id="a_node4"><a xlink:href="main_8h.html#a840291bc02cba5474a4cb46a9b9566fe" target="_top" xlink:title="Program entry point – the main function. ">
<polygon fill="none" stroke="black" points="487,-19.5 487,-38.5 525,-38.5 525,-19.5 487,-19.5"/>
<text text-anchor="middle" x="506" y="-26.5" font-family="Helvetica,sans-Serif" font-size="10.00">main</text>
</a>
</g>
</g>
<!-- Node3&#45;&gt;Node4 -->
<g id="edge3" class="edge"><title>Node3&#45;&gt;Node4</title>
<path fill="none" stroke="midnightblue" d="M353.931,-44.1467C394.473,-40.0819 456.607,-33.8521 486.999,-30.8048"/>
<polygon fill="midnightblue" stroke="midnightblue" points="353.471,-40.6752 343.87,-45.1555 354.169,-47.6403 353.471,-40.6752"/>
</g>
<!-- Node6 -->
<g id="node6" class="node"><title>Node6</title>
<g id="a_node6"><a xlink:href="interpreter_8c.html#afe087d3248bda92aa0ace94a8d3839b8" target="_top" xlink:title="Print appropriate error mesage. ">
<polygon fill="none" stroke="black" points="274,-0.5 274,-19.5 355,-19.5 355,-0.5 274,-0.5"/>
<text text-anchor="middle" x="314.5" y="-7.5" font-family="Helvetica,sans-Serif" font-size="10.00">error_message</text>
</a>
</g>
</g>
<!-- Node5&#45;&gt;Node6 -->
<g id="edge5" class="edge"><title>Node5&#45;&gt;Node6</title>
<path fill="none" stroke="midnightblue" d="M248.112,-10C256.358,-10 265.243,-10 273.724,-10"/>
<polygon fill="midnightblue" stroke="midnightblue" points="248.086,-6.5001 238.086,-10 248.086,-13.5001 248.086,-6.5001"/>
</g>
<!-- Node7 -->
<g id="node7" class="node"><title>Node7</title>
<g id="a_node7"><a xlink:href="interpreter_8h.html#a08a98a5503e4f3e1a5a19222d425275a" target="_top" xlink:title="The interpreter main loop. ">
<polygon fill="none" stroke="black" points="391,-0.5 391,-19.5 451,-19.5 451,-0.5 391,-0.5"/>
<text text-anchor="middle" x="421" y="-7.5" font-family="Helvetica,sans-Serif" font-size="10.00">interpreter</text>
</a>
</g>
</g>
<!-- Node6&#45;&gt;Node7 -->
<g id="edge6" class="edge"><title>Node6&#45;&gt;Node7</title>
<path fill="none" stroke="midnightblue" d="M365.216,-10C374.002,-10 382.883,-10 390.863,-10"/>
<polygon fill="midnightblue" stroke="midnightblue" points="365.007,-6.5001 355.007,-10 365.007,-13.5001 365.007,-6.5001"/>
</g>
<!-- Node7&#45;&gt;Node4 -->
<g id="edge7" class="edge"><title>Node7&#45;&gt;Node4</title>
<path fill="none" stroke="midnightblue" d="M460.804,-18.8829C469.954,-20.9773 479.279,-23.112 486.99,-24.8773"/>
<polygon fill="midnightblue" stroke="midnightblue" points="461.558,-15.465 451.029,-16.6453 459.996,-22.2885 461.558,-15.465"/>
</g>
</g>
</svg>
