<?xml version="1.0" encoding="UTF-8" standalone="no"?>
<!DOCTYPE svg PUBLIC "-//W3C//DTD SVG 1.1//EN"
 "http://www.w3.org/Graphics/SVG/1.1/DTD/svg11.dtd">
<!-- Generated by graphviz version 2.38.0 (20140413.2041)
 -->
<!-- Title: pop_byte Pages: 1 -->
<svg width="527pt" height="66pt"
 viewBox="0.00 0.00 527.00 66.00" xmlns="http://www.w3.org/2000/svg" xmlns:xlink="http://www.w3.org/1999/xlink">
<g id="graph0" class="graph" transform="scale(1 1) rotate(0) translate(4 62)">
<title>pop_byte</title>
<!-- Node1 -->
<g id="node1" class="node"><title>Node1</title>
<polygon fill="#bfbfbf" stroke="black" points="0,-19.5 0,-38.5 56,-38.5 56,-19.5 0,-19.5"/>
<text text-anchor="middle" x="28" y="-26.5" font-family="Helvetica,sans-Serif" font-size="10.00">pop_byte</text>
</g>
<!-- Node2 -->
<g id="node2" class="node"><title>Node2</title>
<g id="a_node2"><a xlink:href="printing_8h.html#a81474d704fbed814bd96dc6400387397" target="_top" xlink:title="Print specified integer number. ">
<polygon fill="none" stroke="black" points="92,-19.5 92,-38.5 146,-38.5 146,-19.5 92,-19.5"/>
<text text-anchor="middle" x="119" y="-26.5" font-family="Helvetica,sans-Serif" font-size="10.00">printnum</text>
</a>
</g>
</g>
<!-- Node1&#45;&gt;Node2 -->
<g id="edge1" class="edge"><title>Node1&#45;&gt;Node2</title>
<path fill="none" stroke="midnightblue" d="M66.3852,-29C74.9664,-29 83.91,-29 91.8947,-29"/>
<polygon fill="midnightblue" stroke="midnightblue" points="66.1866,-25.5001 56.1865,-29 66.1865,-32.5001 66.1866,-25.5001"/>
</g>
<!-- Node3 -->
<g id="node3" class="node"><title>Node3</title>
<g id="a_node3"><a xlink:href="interpreter_8h.html#ad8667f20f0a1f7689ba90c07ea0460af" target="_top" xlink:title="Initialization of language interpreter. ">
<polygon fill="none" stroke="black" points="279.5,-38.5 279.5,-57.5 337.5,-57.5 337.5,-38.5 279.5,-38.5"/>
<text text-anchor="middle" x="308.5" y="-45.5" font-family="Helvetica,sans-Serif" font-size="10.00">basic_init</text>
</a>
</g>
</g>
<!-- Node2&#45;&gt;Node3 -->
<g id="edge2" class="edge"><title>Node2&#45;&gt;Node3</title>
<path fill="none" stroke="midnightblue" d="M156.124,-32.6606C192.019,-36.2979 246.325,-41.801 279.201,-45.1324"/>
<polygon fill="midnightblue" stroke="midnightblue" points="156.373,-29.168 146.071,-31.6419 155.667,-36.1323 156.373,-29.168"/>
</g>
<!-- Node5 -->
<g id="node5" class="node"><title>Node5</title>
<g id="a_node5"><a xlink:href="printing_8h.html#a8788c3947bf9ede0778e41c57171473a" target="_top" xlink:title="Print a program line. ">
<polygon fill="none" stroke="black" points="182,-0.5 182,-19.5 232,-19.5 232,-0.5 182,-0.5"/>
<text text-anchor="middle" x="207" y="-7.5" font-family="Helvetica,sans-Serif" font-size="10.00">printline</text>
</a>
</g>
</g>
<!-- Node2&#45;&gt;Node5 -->
<g id="edge4" class="edge"><title>Node2&#45;&gt;Node5</title>
<path fill="none" stroke="midnightblue" d="M156.206,-21.0009C164.894,-19.0816 173.961,-17.0784 181.941,-15.3155"/>
<polygon fill="midnightblue" stroke="midnightblue" points="155.28,-17.6212 146.27,-23.1961 156.79,-24.4564 155.28,-17.6212"/>
</g>
<!-- Node4 -->
<g id="node4" class="node"><title>Node4</title>
<g id="a_node4"><a xlink:href="main_8h.html#a840291bc02cba5474a4cb46a9b9566fe" target="_top" xlink:title="Program entry point – the main function. ">
<polygon fill="none" stroke="black" points="481,-19.5 481,-38.5 519,-38.5 519,-19.5 481,-19.5"/>
<text text-anchor="middle" x="500" y="-26.5" font-family="Helvetica,sans-Serif" font-size="10.00">main</text>
</a>
</g>
</g>
<!-- Node3&#45;&gt;Node4 -->
<g id="edge3" class="edge"><title>Node3&#45;&gt;Node4</title>
<path fill="none" stroke="midnightblue" d="M347.931,-44.1467C388.473,-40.0819 450.607,-33.8521 480.999,-30.8048"/>
<polygon fill="midnightblue" stroke="midnightblue" points="347.471,-40.6752 337.87,-45.1555 348.169,-47.6403 347.471,-40.6752"/>
</g>
<!-- Node6 -->
<g id="node6" class="node"><title>Node6</title>
<g id="a_node6"><a xlink:href="interpreter_8c.html#afe087d3248bda92aa0ace94a8d3839b8" target="_top" xlink:title="Print appropriate error mesage. ">
<polygon fill="none" stroke="black" points="268,-0.5 268,-19.5 349,-19.5 349,-0.5 268,-0.5"/>
<text text-anchor="middle" x="308.5" y="-7.5" font-family="Helvetica,sans-Serif" font-size="10.00">error_message</text>
</a>
</g>
</g>
<!-- Node5&#45;&gt;Node6 -->
<g id="edge5" class="edge"><title>Node5&#45;&gt;Node6</title>
<path fill="none" stroke="midnightblue" d="M242.112,-10C250.358,-10 259.243,-10 267.724,-10"/>
<polygon fill="midnightblue" stroke="midnightblue" points="242.086,-6.5001 232.086,-10 242.086,-13.5001 242.086,-6.5001"/>
</g>
<!-- Node7 -->
<g id="node7" class="node"><title>Node7</title>
<g id="a_node7"><a xlink:href="interpreter_8h.html#a08a98a5503e4f3e1a5a19222d425275a" target="_top" xlink:title="The interpreter main loop. ">
<polygon fill="none" stroke="black" points="385,-0.5 385,-19.5 445,-19.5 445,-0.5 385,-0.5"/>
<text text-anchor="middle" x="415" y="-7.5" font-family="Helvetica,sans-Serif" font-size="10.00">interpreter</text>
</a>
</g>
</g>
<!-- Node6&#45;&gt;Node7 -->
<g id="edge6" class="edge"><title>Node6&#45;&gt;Node7</title>
<path fill="none" stroke="midnightblue" d="M359.216,-10C368.002,-10 376.883,-10 384.863,-10"/>
<polygon fill="midnightblue" stroke="midnightblue" points="359.007,-6.5001 349.007,-10 359.007,-13.5001 359.007,-6.5001"/>
</g>
<!-- Node7&#45;&gt;Node4 -->
<g id="edge7" class="edge"><title>Node7&#45;&gt;Node4</title>
<path fill="none" stroke="midnightblue" d="M454.804,-18.8829C463.954,-20.9773 473.279,-23.112 480.99,-24.8773"/>
<polygon fill="midnightblue" stroke="midnightblue" points="455.558,-15.465 445.029,-16.6453 453.996,-22.2885 455.558,-15.465"/>
</g>
</g>
</svg>
