<?xml version="1.0" encoding="UTF-8" standalone="no"?>
<!DOCTYPE svg PUBLIC "-//W3C//DTD SVG 1.1//EN"
 "http://www.w3.org/Graphics/SVG/1.1/DTD/svg11.dtd">
<!-- Generated by graphviz version 2.38.0 (20140413.2041)
 -->
<!-- Title: ignorespace Pages: 1 -->
<!--zoomable 230 -->
<svg id="main" version="1.1" xmlns="http://www.w3.org/2000/svg" xmlns:xlink="http://www.w3.org/1999/xlink" xml:space="preserve" onload="init(evt)">
<style type="text/css"><![CDATA[
.edge:hover path { stroke: red; }
.edge:hover polygon { stroke: red; fill: red; }
]]></style>
<script type="text/javascript"><![CDATA[
var edges = document.getElementsByTagName('g');
if (edges && edges.length) {
  for (var i=0;i<edges.length;i++) {
    if (edges[i].id.substr(0,4)=='edge') {
      edges[i].setAttribute('class','edge');
    }
  }
}
]]></script>
        <defs>
                <circle id="rim" cx="0" cy="0" r="7"/>
                <circle id="rim2" cx="0" cy="0" r="3.5"/>
                <g id="zoomPlus">
                        <use xlink:href="#rim" fill="#404040">
                                <set attributeName="fill" to="#808080" begin="zoomplus.mouseover" end="zoomplus.mouseout"/>
                        </use>
                        <path d="M-4,0h8M0,-4v8" fill="none" stroke="white" stroke-width="1.5" pointer-events="none"/>
                </g>
                <g id="zoomMin">
                        <use xlink:href="#rim" fill="#404040">
                                <set attributeName="fill" to="#808080" begin="zoomminus.mouseover" end="zoomminus.mouseout"/>
                        </use>
                        <path d="M-4,0h8" fill="none" stroke="white" stroke-width="1.5" pointer-events="none"/>
                </g>
                <g id="dirArrow">
                        <path fill="none" stroke="white" stroke-width="1.5" d="M0,-3.0v7 M-2.5,-0.5L0,-3.0L2.5,-0.5"/>
                </g>
               <g id="resetDef">
                       <use xlink:href="#rim2" fill="#404040">
                               <set attributeName="fill" to="#808080" begin="reset.mouseover" end="reset.mouseout"/>
                       </use>
               </g>
        </defs>

<script type="text/javascript">
var viewWidth = 732;
var viewHeight = 230;
var sectionId = 'dynsection-5';
</script>
<script xlink:href="svgpan.js"/>
<svg id="graph" class="graph">
<g id="viewport">
<title>ignorespace</title>
<!-- Node1 -->
<g id="node1" class="node"><title>Node1</title>
<polygon fill="#bfbfbf" stroke="black" points="0,-117.74 0,-136.74 69,-136.74 69,-117.74 0,-117.74"/>
<text text-anchor="middle" x="34.5" y="-124.74" font-family="Helvetica,sans-Serif" font-size="10.00">ignorespace</text>
</g>
<!-- Node2 -->
<g id="node2" class="node"><title>Node2</title>
<g id="a_node2"><a xlink:href="interpreter_8c.html#ae0c498ea10540cc81b1388062c7cf86e" target="_top" xlink:title="Execute specified line. ">
<polygon fill="none" stroke="black" points="484.5,-22.7402 484.5,-41.7402 543.5,-41.7402 543.5,-22.7402 484.5,-22.7402"/>
<text text-anchor="middle" x="514" y="-29.7402" font-family="Helvetica,sans-Serif" font-size="10.00">execution</text>
</a>
</g>
</g>
<!-- Node1&#45;&gt;Node2 -->
<g id="edge1" class="edge"><title>Node1&#45;&gt;Node2</title>
<path fill="none" stroke="midnightblue" d="M48.2352,-109.325C60.9094,-92.6816 81.7788,-68.2689 105,-53.2402 150.783,-23.6097 167.336,-22.9476 221,-13.2402 315.913,3.92896 342.526,3.47371 438,-10.2402 454.655,-12.6326 472.772,-17.8689 487.027,-22.6329"/>
<polygon fill="midnightblue" stroke="midnightblue" points="45.2021,-107.54 42.0742,-117.663 50.8319,-111.7 45.2021,-107.54"/>
</g>
<!-- Node3 -->
<g id="node3" class="node"><title>Node3</title>
<g id="a_node3"><a xlink:href="interpreter_8h.html#a08a98a5503e4f3e1a5a19222d425275a" target="_top" xlink:title="The interpreter main loop. ">
<polygon fill="none" stroke="black" points="590,-174.74 590,-193.74 650,-193.74 650,-174.74 590,-174.74"/>
<text text-anchor="middle" x="620" y="-181.74" font-family="Helvetica,sans-Serif" font-size="10.00">interpreter</text>
</a>
</g>
</g>
<!-- Node1&#45;&gt;Node3 -->
<g id="edge6" class="edge"><title>Node1&#45;&gt;Node3</title>
<path fill="none" stroke="midnightblue" d="M52.88,-143.992C66.1783,-155.958 85.4938,-171.586 105,-181.24 168.865,-212.848 188.742,-222.24 260,-222.24 260,-222.24 260,-222.24 388.5,-222.24 461.706,-222.24 546.27,-203.349 589.782,-192.206"/>
<polygon fill="midnightblue" stroke="midnightblue" points="55.1475,-141.322 45.4297,-137.101 50.3945,-146.461 55.1475,-141.322"/>
</g>
<!-- Node5 -->
<g id="node5" class="node"><title>Node5</title>
<g id="a_node5"><a xlink:href="interpreter_8h.html#a2d6b18b46373b8375ce476c14b9f1955" target="_top" xlink:title="Get current line number. ">
<polygon fill="none" stroke="black" points="337,-174.74 337,-193.74 438,-193.74 438,-174.74 337,-174.74"/>
<text text-anchor="middle" x="387.5" y="-181.74" font-family="Helvetica,sans-Serif" font-size="10.00">get_line_numberber</text>
</a>
</g>
</g>
<!-- Node1&#45;&gt;Node5 -->
<g id="edge4" class="edge"><title>Node1&#45;&gt;Node5</title>
<path fill="none" stroke="midnightblue" d="M60.5546,-141.821C73.4164,-148.601 89.588,-156.071 105,-160.24 184.07,-181.628 279.771,-185.325 336.757,-185.31"/>
<polygon fill="midnightblue" stroke="midnightblue" points="61.8854,-138.56 51.4316,-136.837 58.5294,-144.703 61.8854,-138.56"/>
</g>
<!-- Node6 -->
<g id="node6" class="node"><title>Node6</title>
<g id="a_node6"><a xlink:href="parser_8c.html#ae642e2964ae1b7ad02e9f31475d6167b" target="_top" xlink:title="Search for multiplication or division operators. ">
<polygon fill="none" stroke="black" points="105,-98.7402 105,-117.74 185,-117.74 185,-98.7402 105,-98.7402"/>
<text text-anchor="middle" x="145" y="-105.74" font-family="Helvetica,sans-Serif" font-size="10.00">parse_expr_s3</text>
</a>
</g>
</g>
<!-- Node1&#45;&gt;Node6 -->
<g id="edge7" class="edge"><title>Node1&#45;&gt;Node6</title>
<path fill="none" stroke="midnightblue" d="M79.3454,-119.562C87.825,-118.077 96.6571,-116.531 104.97,-115.075"/>
<polygon fill="midnightblue" stroke="midnightblue" points="78.4817,-116.16 69.2353,-121.333 79.6892,-123.055 78.4817,-116.16"/>
</g>
<!-- Node9 -->
<g id="node9" class="node"><title>Node9</title>
<g id="a_node9"><a xlink:href="parser_8c.html#ad38a783e0f6ac48469c7e9ff1175f217" target="_top" xlink:title="Search for numbers, variables or functions. ">
<polygon fill="none" stroke="black" points="474,-98.7402 474,-117.74 554,-117.74 554,-98.7402 474,-98.7402"/>
<text text-anchor="middle" x="514" y="-105.74" font-family="Helvetica,sans-Serif" font-size="10.00">parse_expr_s4</text>
</a>
</g>
</g>
<!-- Node1&#45;&gt;Node9 -->
<g id="edge13" class="edge"><title>Node1&#45;&gt;Node9</title>
<path fill="none" stroke="midnightblue" d="M79.3491,-129.259C153.464,-132.099 308.129,-135.553 438,-122.24 449.727,-121.038 462.365,-118.98 473.863,-116.806"/>
<polygon fill="midnightblue" stroke="midnightblue" points="79.1428,-125.748 69.0112,-128.847 78.8637,-132.743 79.1428,-125.748"/>
</g>
<!-- Node10 -->
<g id="node10" class="node"><title>Node10</title>
<g id="a_node10"><a xlink:href="parser_8h.html#ad7ccacd8a08ca721b55ce29bf016a849" target="_top" xlink:title="Search for any string in specified table. ">
<polygon fill="none" stroke="black" points="231.5,-22.7402 231.5,-41.7402 290.5,-41.7402 290.5,-22.7402 231.5,-22.7402"/>
<text text-anchor="middle" x="261" y="-29.7402" font-family="Helvetica,sans-Serif" font-size="10.00">scantable</text>
</a>
</g>
</g>
<!-- Node1&#45;&gt;Node10 -->
<g id="edge14" class="edge"><title>Node1&#45;&gt;Node10</title>
<path fill="none" stroke="midnightblue" d="M60.2946,-112.518C73.3577,-105.062 89.7865,-96.1508 105,-89.2402 148.073,-69.6749 200.012,-51.6515 231.495,-41.3103"/>
<polygon fill="midnightblue" stroke="midnightblue" points="58.3451,-109.602 51.443,-117.64 61.8513,-115.661 58.3451,-109.602"/>
</g>
<!-- Node2&#45;&gt;Node3 -->
<g id="edge2" class="edge"><title>Node2&#45;&gt;Node3</title>
<path fill="none" stroke="midnightblue" d="M527.336,-50.2692C549.539,-82.7201 595.501,-149.895 612.497,-174.736"/>
<polygon fill="midnightblue" stroke="midnightblue" points="530.041,-48.0252 521.506,-41.7485 524.264,-51.978 530.041,-48.0252"/>
</g>
<!-- Node4 -->
<g id="node4" class="node"><title>Node4</title>
<g id="a_node4"><a xlink:href="main_8h.html#a840291bc02cba5474a4cb46a9b9566fe" target="_top" xlink:title="Program entry point – the main function. ">
<polygon fill="none" stroke="black" points="686,-174.74 686,-193.74 724,-193.74 724,-174.74 686,-174.74"/>
<text text-anchor="middle" x="705" y="-181.74" font-family="Helvetica,sans-Serif" font-size="10.00">main</text>
</a>
</g>
</g>
<!-- Node3&#45;&gt;Node4 -->
<g id="edge3" class="edge"><title>Node3&#45;&gt;Node4</title>
<path fill="none" stroke="midnightblue" d="M660.096,-184.24C669.152,-184.24 678.361,-184.24 685.99,-184.24"/>
<polygon fill="midnightblue" stroke="midnightblue" points="660.029,-180.74 650.029,-184.24 660.029,-187.74 660.029,-180.74"/>
</g>
<!-- Node5&#45;&gt;Node3 -->
<g id="edge5" class="edge"><title>Node5&#45;&gt;Node3</title>
<path fill="none" stroke="midnightblue" d="M448.269,-184.24C493.728,-184.24 554.311,-184.24 589.745,-184.24"/>
<polygon fill="midnightblue" stroke="midnightblue" points="448.231,-180.74 438.231,-184.24 448.231,-187.74 448.231,-180.74"/>
</g>
<!-- Node7 -->
<g id="node7" class="node"><title>Node7</title>
<g id="a_node7"><a xlink:href="parser_8c.html#aaa34262580f9ec1997162ce62c1dcb94" target="_top" xlink:title="Search for subtraction or addition operators. ">
<polygon fill="none" stroke="black" points="221,-60.7402 221,-79.7402 301,-79.7402 301,-60.7402 221,-60.7402"/>
<text text-anchor="middle" x="261" y="-67.7402" font-family="Helvetica,sans-Serif" font-size="10.00">parse_expr_s2</text>
</a>
</g>
</g>
<!-- Node6&#45;&gt;Node7 -->
<g id="edge8" class="edge"><title>Node6&#45;&gt;Node7</title>
<path fill="none" stroke="midnightblue" d="M184.478,-95.4143C199.774,-90.3155 217.067,-84.5511 231.242,-79.8261"/>
<polygon fill="midnightblue" stroke="midnightblue" points="183.147,-92.1685 174.767,-98.6512 185.361,-98.8092 183.147,-92.1685"/>
</g>
<!-- Node8 -->
<g id="node8" class="node"><title>Node8</title>
<g id="a_node8"><a xlink:href="parser_8h.html#a4fe92c8d54d0ce4ec516d64f098ee056" target="_top" xlink:title="Search for relational operators. ">
<polygon fill="none" stroke="black" points="347.5,-60.7402 347.5,-79.7402 427.5,-79.7402 427.5,-60.7402 347.5,-60.7402"/>
<text text-anchor="middle" x="387.5" y="-67.7402" font-family="Helvetica,sans-Serif" font-size="10.00">parse_expr_s1</text>
</a>
</g>
</g>
<!-- Node7&#45;&gt;Node8 -->
<g id="edge9" class="edge"><title>Node7&#45;&gt;Node8</title>
<path fill="none" stroke="midnightblue" d="M311.299,-70.2402C323.207,-70.2402 335.777,-70.2402 347.16,-70.2402"/>
<polygon fill="midnightblue" stroke="midnightblue" points="311.051,-66.7403 301.051,-70.2402 311.051,-73.7403 311.051,-66.7403"/>
</g>
<!-- Node8&#45;&gt;Node2 -->
<g id="edge10" class="edge"><title>Node8&#45;&gt;Node2</title>
<path fill="none" stroke="midnightblue" d="M429.53,-57.7171C447.404,-52.2615 467.929,-45.9967 484.154,-41.0447"/>
<polygon fill="midnightblue" stroke="midnightblue" points="428.459,-54.3843 419.917,-60.6512 430.503,-61.0794 428.459,-54.3843"/>
</g>
<!-- Node8&#45;&gt;Node9 -->
<g id="edge11" class="edge"><title>Node8&#45;&gt;Node9</title>
<path fill="none" stroke="midnightblue" d="M429.57,-82.7755C446.506,-87.945 465.818,-93.8393 481.593,-98.6543"/>
<polygon fill="midnightblue" stroke="midnightblue" points="430.503,-79.401 419.917,-79.8292 428.459,-86.0961 430.503,-79.401"/>
</g>
<!-- Node9&#45;&gt;Node6 -->
<g id="edge12" class="edge"><title>Node9&#45;&gt;Node6</title>
<path fill="none" stroke="midnightblue" d="M463.32,-108.24C389.542,-108.24 252.513,-108.24 185.275,-108.24"/>
<polygon fill="midnightblue" stroke="midnightblue" points="463.73,-111.74 473.73,-108.24 463.73,-104.74 463.73,-111.74"/>
</g>
<!-- Node10&#45;&gt;Node2 -->
<g id="edge15" class="edge"><title>Node10&#45;&gt;Node2</title>
<path fill="none" stroke="midnightblue" d="M300.545,-23.6363C312.196,-21.4176 325.065,-19.3446 337,-18.2402 381.698,-14.1041 393.302,-14.1041 438,-18.2402 453.432,-19.6681 470.424,-22.7151 484.326,-25.603"/>
<polygon fill="midnightblue" stroke="midnightblue" points="299.797,-20.2165 290.674,-25.603 301.165,-27.0815 299.797,-20.2165"/>
</g>
<!-- Node10&#45;&gt;Node8 -->
<g id="edge16" class="edge"><title>Node10&#45;&gt;Node8</title>
<path fill="none" stroke="midnightblue" d="M300.477,-43.9841C317.982,-49.3271 338.439,-55.5709 355.01,-60.6289"/>
<polygon fill="midnightblue" stroke="midnightblue" points="301.149,-40.5299 290.563,-40.9582 299.105,-47.225 301.149,-40.5299"/>
</g>
<!-- Node10&#45;&gt;Node9 -->
<g id="edge17" class="edge"><title>Node10&#45;&gt;Node9</title>
<path fill="none" stroke="midnightblue" d="M300.809,-30.5611C337.453,-30.3146 393.297,-33.4525 438,-51.2402 465.048,-62.003 490.742,-85.356 503.888,-98.5875"/>
<polygon fill="midnightblue" stroke="midnightblue" points="300.492,-27.0655 290.548,-30.7222 300.602,-34.0647 300.492,-27.0655"/>
</g>
</g>
</svg>
        <g id="navigator" transform="translate(0 0)" fill="#404254">
                <rect fill="#f2f5e9" fill-opacity="0.5" stroke="#606060" stroke-width=".5" x="0" y="0" width="60" height="60"/>
                <use id="zoomplus" xlink:href="#zoomPlus" x="17" y="9" onmousedown="handleZoom(evt,'in')"/>
                <use id="zoomminus" xlink:href="#zoomMin" x="42" y="9" onmousedown="handleZoom(evt,'out')"/>
                <use id="reset" xlink:href="#resetDef" x="30" y="36" onmousedown="handleReset()"/>
                <g id="arrowUp" xlink:href="#dirArrow" transform="translate(30 24)" onmousedown="handlePan(0,-1)">
                  <use xlink:href="#rim" fill="#404040">
                        <set attributeName="fill" to="#808080" begin="arrowUp.mouseover" end="arrowUp.mouseout"/>
                  </use>
                  <path fill="none" stroke="white" stroke-width="1.5" d="M0,-3.0v7 M-2.5,-0.5L0,-3.0L2.5,-0.5"/>
                </g>
                <g id="arrowRight" xlink:href="#dirArrow" transform="rotate(90) translate(36 -43)" onmousedown="handlePan(1,0)">
                  <use xlink:href="#rim" fill="#404040">
                        <set attributeName="fill" to="#808080" begin="arrowRight.mouseover" end="arrowRight.mouseout"/>
                  </use>
                  <path fill="none" stroke="white" stroke-width="1.5" d="M0,-3.0v7 M-2.5,-0.5L0,-3.0L2.5,-0.5"/>
                </g>
                <g id="arrowDown" xlink:href="#dirArrow" transform="rotate(180) translate(-30 -48)" onmousedown="handlePan(0,1)">
                  <use xlink:href="#rim" fill="#404040">
                        <set attributeName="fill" to="#808080" begin="arrowDown.mouseover" end="arrowDown.mouseout"/>
                  </use>
                  <path fill="none" stroke="white" stroke-width="1.5" d="M0,-3.0v7 M-2.5,-0.5L0,-3.0L2.5,-0.5"/>
                </g>
                <g id="arrowLeft" xlink:href="#dirArrow" transform="rotate(270) translate(-36 17)" onmousedown="handlePan(-1,0)">
                  <use xlink:href="#rim" fill="#404040">
                        <set attributeName="fill" to="#808080" begin="arrowLeft.mouseover" end="arrowLeft.mouseout"/>
                  </use>
                  <path fill="none" stroke="white" stroke-width="1.5" d="M0,-3.0v7 M-2.5,-0.5L0,-3.0L2.5,-0.5"/>
                </g>
        </g>
        <svg viewBox="0 0 15 15" width="100%" height="30px" preserveAspectRatio="xMaxYMin meet">
         <g id="arrow_out" transform="scale(0.3 0.3)">
          <a xlink:href="main_8c_ae363da215544e897ef8e44a64dabce48_icgraph_org.svg" target="_base">
           <rect id="button" ry="5" rx="5" y="6" x="6" height="38" width="38"
                fill="#f2f5e9" fill-opacity="0.5" stroke="#606060" stroke-width="1.0"/>
           <path id="arrow"
             d="M 11.500037,31.436501 C 11.940474,20.09759 22.043105,11.32322 32.158766,21.979434 L 37.068811,17.246167 C 37.068811,17.246167 37.088388,32 37.088388,32 L 22.160133,31.978069 C 22.160133,31.978069 26.997745,27.140456 26.997745,27.140456 C 18.528582,18.264221 13.291696,25.230495 11.500037,31.436501 z"
             style="fill:#404040;"/>
          </a>
         </g>
        </svg>
</svg>
