<?xml version="1.0" encoding="UTF-8" standalone="no"?>
<!DOCTYPE svg PUBLIC "-//W3C//DTD SVG 1.1//EN"
 "http://www.w3.org/Graphics/SVG/1.1/DTD/svg11.dtd">
<!-- Generated by graphviz version 2.38.0 (20140413.2041)
 -->
<!-- Title: main Pages: 1 -->
<!--zoomable 724 -->
<svg id="main" version="1.1" xmlns="http://www.w3.org/2000/svg" xmlns:xlink="http://www.w3.org/1999/xlink" xml:space="preserve" onload="init(evt)">
<style type="text/css"><![CDATA[
.edge:hover path { stroke: red; }
.edge:hover polygon { stroke: red; fill: red; }
]]></style>
<script type="text/javascript"><![CDATA[
var edges = document.getElementsByTagName('g');
if (edges && edges.length) {
  for (var i=0;i<edges.length;i++) {
    if (edges[i].id.substr(0,4)=='edge') {
      edges[i].setAttribute('class','edge');
    }
  }
}
]]></script>
        <defs>
                <circle id="rim" cx="0" cy="0" r="7"/>
                <circle id="rim2" cx="0" cy="0" r="3.5"/>
                <g id="zoomPlus">
                        <use xlink:href="#rim" fill="#404040">
                                <set attributeName="fill" to="#808080" begin="zoomplus.mouseover" end="zoomplus.mouseout"/>
                        </use>
                        <path d="M-4,0h8M0,-4v8" fill="none" stroke="white" stroke-width="1.5" pointer-events="none"/>
                </g>
                <g id="zoomMin">
                        <use xlink:href="#rim" fill="#404040">
                                <set attributeName="fill" to="#808080" begin="zoomminus.mouseover" end="zoomminus.mouseout"/>
                        </use>
                        <path d="M-4,0h8" fill="none" stroke="white" stroke-width="1.5" pointer-events="none"/>
                </g>
                <g id="dirArrow">
                        <path fill="none" stroke="white" stroke-width="1.5" d="M0,-3.0v7 M-2.5,-0.5L0,-3.0L2.5,-0.5"/>
                </g>
               <g id="resetDef">
                       <use xlink:href="#rim2" fill="#404040">
                               <set attributeName="fill" to="#808080" begin="reset.mouseover" end="reset.mouseout"/>
                       </use>
               </g>
        </defs>

<script type="text/javascript">
var viewWidth = 765;
var viewHeight = 724;
var sectionId = 'dynsection-6';
</script>
<script xlink:href="svgpan.js"/>
<svg id="graph" class="graph">
<g id="viewport">
<title>main</title>
<!-- Node1 -->
<g id="node1" class="node"><title>Node1</title>
<polygon fill="#bfbfbf" stroke="black" points="0,-532.5 0,-551.5 38,-551.5 38,-532.5 0,-532.5"/>
<text text-anchor="middle" x="19" y="-539.5" font-family="Helvetica,sans-Serif" font-size="10.00">main</text>
</g>
<!-- Node2 -->
<g id="node2" class="node"><title>Node2</title>
<g id="a_node2"><a xlink:href="interpreter_8c.html#ad8667f20f0a1f7689ba90c07ea0460af" target="_top" xlink:title="Initialization of language interpreter. ">
<polygon fill="none" stroke="black" points="185.5,-684.5 185.5,-703.5 243.5,-703.5 243.5,-684.5 185.5,-684.5"/>
<text text-anchor="middle" x="214.5" y="-691.5" font-family="Helvetica,sans-Serif" font-size="10.00">basic_init</text>
</a>
</g>
</g>
<!-- Node1&#45;&gt;Node2 -->
<g id="edge1" class="edge"><title>Node1&#45;&gt;Node2</title>
<path fill="none" stroke="midnightblue" d="M20.9648,-551.556C23.943,-575.671 35.275,-639.258 74,-670 102.494,-692.62 144.685,-697.104 175.202,-696.863"/>
<polygon fill="midnightblue" stroke="midnightblue" points="175.56,-700.356 185.468,-696.603 175.382,-693.358 175.56,-700.356"/>
</g>
<!-- Node4 -->
<g id="node4" class="node"><title>Node4</title>
<g id="a_node4"><a xlink:href="printing_8c.html#a7a9e102ce8d3edbc9937a84bcbc8c83f" target="_top" xlink:title="Print selected message from FLASH (with new&#45;line) ">
<polygon fill="none" stroke="black" points="318.5,-456.5 318.5,-475.5 372.5,-475.5 372.5,-456.5 318.5,-456.5"/>
<text text-anchor="middle" x="345.5" y="-463.5" font-family="Helvetica,sans-Serif" font-size="10.00">printmsg</text>
</a>
</g>
</g>
<!-- Node1&#45;&gt;Node4 -->
<g id="edge52" class="edge"><title>Node1&#45;&gt;Node4</title>
<path fill="none" stroke="midnightblue" d="M38.0146,-543.584C78.7137,-546.525 180.343,-550.265 259,-523 272.569,-518.297 302.888,-496.964 323.522,-481.78"/>
<polygon fill="midnightblue" stroke="midnightblue" points="325.75,-484.484 331.695,-475.715 321.579,-478.863 325.75,-484.484"/>
</g>
<!-- Node9 -->
<g id="node9" class="node"><title>Node9</title>
<g id="a_node9"><a xlink:href="io_8c.html#a0d79c14d617757baa2806dc42d26f11a" target="_top" xlink:title="BEEP or flash the LED. ">
<polygon fill="none" stroke="black" points="319,-152.5 319,-171.5 372,-171.5 372,-152.5 319,-152.5"/>
<text text-anchor="middle" x="345.5" y="-159.5" font-family="Helvetica,sans-Serif" font-size="10.00">do_beep</text>
</a>
</g>
</g>
<!-- Node1&#45;&gt;Node9 -->
<g id="edge9" class="edge"><title>Node1&#45;&gt;Node9</title>
<path fill="none" stroke="midnightblue" d="M20.3071,-532.292C22.4487,-483.324 39.3043,-262.57 170,-181 212.181,-154.674 271.477,-154.188 308.938,-157.297"/>
<polygon fill="midnightblue" stroke="midnightblue" points="308.605,-160.781 318.893,-158.251 309.272,-153.813 308.605,-160.781"/>
</g>
<!-- Node10 -->
<g id="node10" class="node"><title>Node10</title>
<g id="a_node10"><a xlink:href="io_8c.html#a0a7500cb71e3070b5eefb6c66b4b0ede" target="_top" xlink:title="Microcontroiller peripheral initialization. ">
<polygon fill="none" stroke="black" points="83,-38.5 83,-57.5 125,-57.5 125,-38.5 83,-38.5"/>
<text text-anchor="middle" x="104" y="-45.5" font-family="Helvetica,sans-Serif" font-size="10.00">init_io</text>
</a>
</g>
</g>
<!-- Node1&#45;&gt;Node10 -->
<g id="edge10" class="edge"><title>Node1&#45;&gt;Node10</title>
<path fill="none" stroke="midnightblue" d="M20.7892,-532.459C24.5485,-488.317 41.8051,-299.619 74,-148 80.0508,-119.504 89.9759,-87.2563 96.4995,-67.2731"/>
<polygon fill="midnightblue" stroke="midnightblue" points="99.9033,-68.1282 99.7276,-57.5349 93.2588,-65.9257 99.9033,-68.1282"/>
</g>
<!-- Node13 -->
<g id="node13" class="node"><title>Node13</title>
<g id="a_node13"><a xlink:href="interpreter_8c.html#a08a98a5503e4f3e1a5a19222d425275a" target="_top" xlink:title="The interpreter main loop. ">
<polygon fill="none" stroke="black" points="74,-342.5 74,-361.5 134,-361.5 134,-342.5 74,-342.5"/>
<text text-anchor="middle" x="104" y="-349.5" font-family="Helvetica,sans-Serif" font-size="10.00">interpreter</text>
</a>
</g>
</g>
<!-- Node1&#45;&gt;Node13 -->
<g id="edge13" class="edge"><title>Node1&#45;&gt;Node13</title>
<path fill="none" stroke="midnightblue" d="M24.2301,-532.317C37.2975,-502.403 77.1909,-411.081 94.6593,-371.093"/>
<polygon fill="midnightblue" stroke="midnightblue" points="97.883,-372.457 98.6789,-361.892 91.4684,-369.654 97.883,-372.457"/>
</g>
<!-- Node15 -->
<g id="node15" class="node"><title>Node15</title>
<g id="a_node15"><a xlink:href="io_8c.html#addfd18c48b34a434eefe9ea8b4db82ee" target="_top" xlink:title="Change on&#45;screen background colour. ">
<polygon fill="none" stroke="black" points="312,-646.5 312,-665.5 379,-665.5 379,-646.5 312,-646.5"/>
<text text-anchor="middle" x="345.5" y="-653.5" font-family="Helvetica,sans-Serif" font-size="10.00">paper_color</text>
</a>
</g>
</g>
<!-- Node1&#45;&gt;Node15 -->
<g id="edge51" class="edge"><title>Node1&#45;&gt;Node15</title>
<path fill="none" stroke="midnightblue" d="M28.1772,-551.707C37.9857,-562.755 55.4423,-580.611 74,-591 147.246,-632.004 245.714,-647.292 301.398,-652.882"/>
<polygon fill="midnightblue" stroke="midnightblue" points="301.328,-656.39 311.613,-653.846 301.986,-649.421 301.328,-656.39"/>
</g>
<!-- Node17 -->
<g id="node17" class="node"><title>Node17</title>
<g id="a_node17"><a xlink:href="io_8c.html#a7d70114448d3feba71392e25e0eb4d78" target="_top" xlink:title="Change on&#45;screen text colour. ">
<polygon fill="none" stroke="black" points="316,-608.5 316,-627.5 375,-627.5 375,-608.5 316,-608.5"/>
<text text-anchor="middle" x="345.5" y="-615.5" font-family="Helvetica,sans-Serif" font-size="10.00">text_color</text>
</a>
</g>
</g>
<!-- Node1&#45;&gt;Node17 -->
<g id="edge53" class="edge"><title>Node1&#45;&gt;Node17</title>
<path fill="none" stroke="midnightblue" d="M38.4556,-550.777C66.2884,-563.604 120.971,-587.22 170,-599 215.847,-610.016 270.019,-614.656 305.705,-616.604"/>
<polygon fill="midnightblue" stroke="midnightblue" points="305.544,-620.1 315.706,-617.106 305.894,-613.109 305.544,-620.1"/>
</g>
<!-- Node3 -->
<g id="node3" class="node"><title>Node3</title>
<g id="a_node3"><a xlink:href="printing_8c.html#aa893fecf81f3b8383deb48439b24a27d" target="_top" xlink:title="Print a NEW LINE character. ">
<polygon fill="none" stroke="black" points="448.5,-532.5 448.5,-551.5 498.5,-551.5 498.5,-532.5 448.5,-532.5"/>
<text text-anchor="middle" x="473.5" y="-539.5" font-family="Helvetica,sans-Serif" font-size="10.00">newline</text>
</a>
</g>
</g>
<!-- Node2&#45;&gt;Node3 -->
<g id="edge2" class="edge"><title>Node2&#45;&gt;Node3</title>
<path fill="none" stroke="midnightblue" d="M243.746,-698.454C281.633,-702.884 349.516,-705.246 396,-675 417.246,-661.176 449.181,-594.403 464.171,-561.046"/>
<polygon fill="midnightblue" stroke="midnightblue" points="467.389,-562.422 468.248,-551.862 460.992,-559.581 467.389,-562.422"/>
</g>
<!-- Node2&#45;&gt;Node4 -->
<g id="edge3" class="edge"><title>Node2&#45;&gt;Node4</title>
<path fill="none" stroke="midnightblue" d="M220.879,-684.493C240.425,-649.946 307.915,-530.662 334.049,-484.472"/>
<polygon fill="midnightblue" stroke="midnightblue" points="337.22,-485.974 339.098,-475.547 331.128,-482.527 337.22,-485.974"/>
</g>
<!-- Node6 -->
<g id="node6" class="node"><title>Node6</title>
<g id="a_node6"><a xlink:href="printing_8c.html#ad62df87f7908fc3dd518b4f9f2cba2d2" target="_top" xlink:title="Print specified integer number. ">
<polygon fill="none" stroke="black" points="446.5,-646.5 446.5,-665.5 500.5,-665.5 500.5,-646.5 446.5,-646.5"/>
<text text-anchor="middle" x="473.5" y="-653.5" font-family="Helvetica,sans-Serif" font-size="10.00">printnum</text>
</a>
</g>
</g>
<!-- Node2&#45;&gt;Node6 -->
<g id="edge6" class="edge"><title>Node2&#45;&gt;Node6</title>
<path fill="none" stroke="midnightblue" d="M243.729,-702.504C279.869,-711.976 344.029,-723.991 396,-708 418.582,-701.052 440.475,-684.915 455.012,-672.446"/>
<polygon fill="midnightblue" stroke="midnightblue" points="457.531,-674.89 462.671,-665.625 452.876,-669.662 457.531,-674.89"/>
</g>
<!-- Node4&#45;&gt;Node3 -->
<g id="edge5" class="edge"><title>Node4&#45;&gt;Node3</title>
<path fill="none" stroke="midnightblue" d="M362.458,-475.625C384.044,-488.645 422.748,-511.991 448.024,-527.236"/>
<polygon fill="midnightblue" stroke="midnightblue" points="446.301,-530.285 456.672,-532.453 449.916,-524.291 446.301,-530.285"/>
</g>
<!-- Node5 -->
<g id="node5" class="node"><title>Node5</title>
<g id="a_node5"><a xlink:href="printing_8c.html#aac89e2103a98020e1f0cf85e5d1df175" target="_top" xlink:title="Print selected message from FLASH (without new&#45;line) ">
<polygon fill="none" stroke="black" points="432,-475.5 432,-494.5 515,-494.5 515,-475.5 432,-475.5"/>
<text text-anchor="middle" x="473.5" y="-482.5" font-family="Helvetica,sans-Serif" font-size="10.00">printmsg_noNL</text>
</a>
</g>
</g>
<!-- Node4&#45;&gt;Node5 -->
<g id="edge4" class="edge"><title>Node4&#45;&gt;Node5</title>
<path fill="none" stroke="midnightblue" d="M372.607,-469.937C386.695,-472.061 404.583,-474.758 421.317,-477.282"/>
<polygon fill="midnightblue" stroke="midnightblue" points="421.132,-480.794 431.542,-478.824 422.176,-473.872 421.132,-480.794"/>
</g>
<!-- Node7 -->
<g id="node7" class="node"><title>Node7</title>
<g id="a_node7"><a xlink:href="main_8c.html#a55596b0bb88dc1bd3952f30685e42564" target="_top" xlink:title="Push a byte in the STACK. ">
<polygon fill="none" stroke="black" points="570.5,-627.5 570.5,-646.5 632.5,-646.5 632.5,-627.5 570.5,-627.5"/>
<text text-anchor="middle" x="601.5" y="-634.5" font-family="Helvetica,sans-Serif" font-size="10.00">push_byte</text>
</a>
</g>
</g>
<!-- Node6&#45;&gt;Node7 -->
<g id="edge7" class="edge"><title>Node6&#45;&gt;Node7</title>
<path fill="none" stroke="midnightblue" d="M500.607,-652.063C517.838,-649.465 540.753,-646.009 560.289,-643.064"/>
<polygon fill="midnightblue" stroke="midnightblue" points="561.076,-646.485 570.442,-641.532 560.032,-639.563 561.076,-646.485"/>
</g>
<!-- Node8 -->
<g id="node8" class="node"><title>Node8</title>
<g id="a_node8"><a xlink:href="main_8c.html#adf3033740afb6eb9200e539dbf783239" target="_top" xlink:title="Pop a byte from the STACK. ">
<polygon fill="none" stroke="black" points="573.5,-665.5 573.5,-684.5 629.5,-684.5 629.5,-665.5 573.5,-665.5"/>
<text text-anchor="middle" x="601.5" y="-672.5" font-family="Helvetica,sans-Serif" font-size="10.00">pop_byte</text>
</a>
</g>
</g>
<!-- Node6&#45;&gt;Node8 -->
<g id="edge8" class="edge"><title>Node6&#45;&gt;Node8</title>
<path fill="none" stroke="midnightblue" d="M500.607,-659.937C518.654,-662.658 542.936,-666.32 563.041,-669.351"/>
<polygon fill="midnightblue" stroke="midnightblue" points="562.709,-672.841 573.119,-670.871 563.752,-665.919 562.709,-672.841"/>
</g>
<!-- Node11 -->
<g id="node11" class="node"><title>Node11</title>
<g id="a_node11"><a xlink:href="io_8c.html#ac19e870c3ea785bd1c4dd30921e2b7e2" target="_top" xlink:title="Setup communication with keyboard. ">
<polygon fill="none" stroke="black" points="192,-38.5 192,-57.5 237,-57.5 237,-38.5 192,-38.5"/>
<text text-anchor="middle" x="214.5" y="-45.5" font-family="Helvetica,sans-Serif" font-size="10.00">init_kb</text>
</a>
</g>
</g>
<!-- Node10&#45;&gt;Node11 -->
<g id="edge11" class="edge"><title>Node10&#45;&gt;Node11</title>
<path fill="none" stroke="midnightblue" d="M125.154,-48C141.035,-48 163.472,-48 181.76,-48"/>
<polygon fill="midnightblue" stroke="midnightblue" points="181.968,-51.5001 191.968,-48 181.968,-44.5001 181.968,-51.5001"/>
</g>
<!-- Node12 -->
<g id="node12" class="node"><title>Node12</title>
<g id="a_node12"><a xlink:href="io_8c.html#abbc5518f3ef5b3d0ef1b00aeffa0211e" target="_top" xlink:title="Reset terminal attached to serial port. ">
<polygon fill="none" stroke="black" points="170,-0.5 170,-19.5 259,-19.5 259,-0.5 170,-0.5"/>
<text text-anchor="middle" x="214.5" y="-7.5" font-family="Helvetica,sans-Serif" font-size="10.00">uart_ansi_rst_clr</text>
</a>
</g>
</g>
<!-- Node10&#45;&gt;Node12 -->
<g id="edge12" class="edge"><title>Node10&#45;&gt;Node12</title>
<path fill="none" stroke="midnightblue" d="M125.154,-40.9415C139.498,-35.9177 159.191,-29.0208 176.344,-23.0132"/>
<polygon fill="midnightblue" stroke="midnightblue" points="177.809,-26.2085 186.09,-19.5997 175.495,-19.602 177.809,-26.2085"/>
</g>
<!-- Node14 -->
<g id="node14" class="node"><title>Node14</title>
<g id="a_node14"><a xlink:href="interpreter_8c.html#afe087d3248bda92aa0ace94a8d3839b8" target="_top" xlink:title="Print appropriate error mesage. ">
<polygon fill="none" stroke="black" points="174,-570.5 174,-589.5 255,-589.5 255,-570.5 174,-570.5"/>
<text text-anchor="middle" x="214.5" y="-577.5" font-family="Helvetica,sans-Serif" font-size="10.00">error_message</text>
</a>
</g>
</g>
<!-- Node13&#45;&gt;Node14 -->
<g id="edge14" class="edge"><title>Node13&#45;&gt;Node14</title>
<path fill="none" stroke="midnightblue" d="M107.612,-361.692C115.049,-388.464 137.892,-465.267 170,-523 177.83,-537.078 188.859,-551.488 197.852,-562.298"/>
<polygon fill="midnightblue" stroke="midnightblue" points="195.374,-564.785 204.528,-570.119 200.698,-560.241 195.374,-564.785"/>
</g>
<!-- Node18 -->
<g id="node18" class="node"><title>Node18</title>
<g id="a_node18"><a xlink:href="interpreter_8c.html#ae0c498ea10540cc81b1388062c7cf86e" target="_top" xlink:title="Execute specified line. ">
<polygon fill="none" stroke="black" points="185,-304.5 185,-323.5 244,-323.5 244,-304.5 185,-304.5"/>
<text text-anchor="middle" x="214.5" y="-311.5" font-family="Helvetica,sans-Serif" font-size="10.00">execution</text>
</a>
</g>
</g>
<!-- Node13&#45;&gt;Node18 -->
<g id="edge23" class="edge"><title>Node13&#45;&gt;Node18</title>
<path fill="none" stroke="midnightblue" d="M132.379,-342.411C145.743,-337.731 162.017,-332.031 176.472,-326.968"/>
<polygon fill="midnightblue" stroke="midnightblue" points="177.849,-330.195 186.13,-323.586 175.535,-323.588 177.849,-330.195"/>
</g>
<!-- Node21 -->
<g id="node21" class="node"><title>Node21</title>
<g id="a_node21"><a xlink:href="main_8c.html#ae363da215544e897ef8e44a64dabce48" target="_top" xlink:title="Ignore whitespace characters. ">
<polygon fill="none" stroke="black" points="688,-209.5 688,-228.5 757,-228.5 757,-209.5 688,-209.5"/>
<text text-anchor="middle" x="722.5" y="-216.5" font-family="Helvetica,sans-Serif" font-size="10.00">ignorespace</text>
</a>
</g>
</g>
<!-- Node13&#45;&gt;Node21 -->
<g id="edge43" class="edge"><title>Node13&#45;&gt;Node21</title>
<path fill="none" stroke="midnightblue" d="M105.824,-342.293C108.793,-313.425 121.502,-227.246 170,-181 229.046,-124.696 262.912,-124 344.5,-124 344.5,-124 344.5,-124 474.5,-124 562.461,-124 657.003,-177.133 699.086,-203.927"/>
<polygon fill="midnightblue" stroke="midnightblue" points="697.184,-206.865 707.479,-209.368 700.992,-200.991 697.184,-206.865"/>
</g>
<!-- Node26 -->
<g id="node26" class="node"><title>Node26</title>
<g id="a_node26"><a xlink:href="main_8c.html#a4fb1091799fbbfe6111481081e0b8e8d" target="_top" xlink:title="find_line">
<polygon fill="none" stroke="black" points="188,-228.5 188,-247.5 241,-247.5 241,-228.5 188,-228.5"/>
<text text-anchor="middle" x="214.5" y="-235.5" font-family="Helvetica,sans-Serif" font-size="10.00">find_line</text>
</a>
</g>
</g>
<!-- Node13&#45;&gt;Node26 -->
<g id="edge36" class="edge"><title>Node13&#45;&gt;Node26</title>
<path fill="none" stroke="midnightblue" d="M109.335,-342.332C118.204,-323.528 140.131,-281.716 170,-257 172.685,-254.779 175.669,-252.773 178.781,-250.972"/>
<polygon fill="midnightblue" stroke="midnightblue" points="180.407,-254.071 187.746,-246.43 177.243,-247.827 180.407,-254.071"/>
</g>
<!-- Node27 -->
<g id="node27" class="node"><title>Node27</title>
<g id="a_node27"><a xlink:href="main_8c.html#af44d438dc813084f712e286e88697bca" target="_top" xlink:title="Get line(s) from EEPROM, SERIAL or STDIO. ">
<polygon fill="none" stroke="black" points="189.5,-266.5 189.5,-285.5 239.5,-285.5 239.5,-266.5 189.5,-266.5"/>
<text text-anchor="middle" x="214.5" y="-273.5" font-family="Helvetica,sans-Serif" font-size="10.00">get_line</text>
</a>
</g>
</g>
<!-- Node13&#45;&gt;Node27 -->
<g id="edge37" class="edge"><title>Node13&#45;&gt;Node27</title>
<path fill="none" stroke="midnightblue" d="M114.364,-342.087C126.357,-329.814 148.208,-308.841 170,-295 173.178,-292.981 176.608,-291.078 180.097,-289.313"/>
<polygon fill="midnightblue" stroke="midnightblue" points="181.773,-292.393 189.344,-284.981 178.803,-286.054 181.773,-292.393"/>
</g>
<!-- Node29 -->
<g id="node29" class="node"><title>Node29</title>
<g id="a_node29"><a xlink:href="interpreter_8c.html#a2d6b18b46373b8375ce476c14b9f1955" target="_top" xlink:title="Get current line number. ">
<polygon fill="none" stroke="black" points="551,-76.5 551,-95.5 652,-95.5 652,-76.5 551,-76.5"/>
<text text-anchor="middle" x="601.5" y="-83.5" font-family="Helvetica,sans-Serif" font-size="10.00">get_line_numberber</text>
</a>
</g>
</g>
<!-- Node13&#45;&gt;Node29 -->
<g id="edge41" class="edge"><title>Node13&#45;&gt;Node29</title>
<path fill="none" stroke="midnightblue" d="M106.085,-342.497C110.97,-301.514 132.346,-140.577 170,-110 225.253,-65.1323 435.973,-73.6803 540.696,-81.0438"/>
<polygon fill="midnightblue" stroke="midnightblue" points="540.57,-84.5436 550.796,-81.7734 541.074,-77.5618 540.57,-84.5436"/>
</g>
<!-- Node30 -->
<g id="node30" class="node"><title>Node30</title>
<g id="a_node30"><a xlink:href="interpreter_8c.html#af49382b389812666243c96753baca38f" target="_top" xlink:title="Insert new line in the program. ">
<polygon fill="none" stroke="black" points="184,-190.5 184,-209.5 245,-209.5 245,-190.5 184,-190.5"/>
<text text-anchor="middle" x="214.5" y="-197.5" font-family="Helvetica,sans-Serif" font-size="10.00">insert_line</text>
</a>
</g>
</g>
<!-- Node13&#45;&gt;Node30 -->
<g id="edge44" class="edge"><title>Node13&#45;&gt;Node30</title>
<path fill="none" stroke="midnightblue" d="M107.27,-342.256C113.345,-318.192 132.143,-255.271 170,-219 171.473,-217.589 173.067,-216.273 174.746,-215.047"/>
<polygon fill="midnightblue" stroke="midnightblue" points="176.931,-217.817 183.673,-209.644 173.306,-211.828 176.931,-217.817"/>
</g>
<!-- Node31 -->
<g id="node31" class="node"><title>Node31</title>
<g id="a_node31"><a xlink:href="interpreter_8c.html#a3fc708ab62376ff333a697900b557961" target="_top" xlink:title="Move line at the end of program memory. ">
<polygon fill="none" stroke="black" points="184,-494.5 184,-513.5 245,-513.5 245,-494.5 184,-494.5"/>
<text text-anchor="middle" x="214.5" y="-501.5" font-family="Helvetica,sans-Serif" font-size="10.00">move_line</text>
</a>
</g>
</g>
<!-- Node13&#45;&gt;Node31 -->
<g id="edge45" class="edge"><title>Node13&#45;&gt;Node31</title>
<path fill="none" stroke="midnightblue" d="M107.27,-361.744C113.345,-385.808 132.143,-448.729 170,-485 171.473,-486.411 173.067,-487.727 174.746,-488.953"/>
<polygon fill="midnightblue" stroke="midnightblue" points="173.306,-492.172 183.673,-494.356 176.931,-486.183 173.306,-492.172"/>
</g>
<!-- Node32 -->
<g id="node32" class="node"><title>Node32</title>
<g id="a_node32"><a xlink:href="interpreter_8c.html#ac78b765daf8c1127f58a6ae260d05454" target="_top" xlink:title="Prepare line for merging with the program. ">
<polygon fill="none" stroke="black" points="186.5,-456.5 186.5,-475.5 242.5,-475.5 242.5,-456.5 186.5,-456.5"/>
<text text-anchor="middle" x="214.5" y="-463.5" font-family="Helvetica,sans-Serif" font-size="10.00">prep_line</text>
</a>
</g>
</g>
<!-- Node13&#45;&gt;Node32 -->
<g id="edge46" class="edge"><title>Node13&#45;&gt;Node32</title>
<path fill="none" stroke="midnightblue" d="M109.335,-361.668C118.204,-380.472 140.131,-422.284 170,-447 172.262,-448.872 174.737,-450.59 177.321,-452.162"/>
<polygon fill="midnightblue" stroke="midnightblue" points="175.905,-455.373 186.382,-456.952 179.177,-449.184 175.905,-455.373"/>
</g>
<!-- Node33 -->
<g id="node33" class="node"><title>Node33</title>
<g id="a_node33"><a xlink:href="interpreter_8c.html#a80f48f3afb5e7166e7d9b93a20248afe" target="_top" xlink:title="Remove line from program. ">
<polygon fill="none" stroke="black" points="180,-418.5 180,-437.5 249,-437.5 249,-418.5 180,-418.5"/>
<text text-anchor="middle" x="214.5" y="-425.5" font-family="Helvetica,sans-Serif" font-size="10.00">remove_line</text>
</a>
</g>
</g>
<!-- Node13&#45;&gt;Node33 -->
<g id="edge47" class="edge"><title>Node13&#45;&gt;Node33</title>
<path fill="none" stroke="midnightblue" d="M114.364,-361.913C126.357,-374.186 148.208,-395.159 170,-409 172.783,-410.767 175.758,-412.446 178.797,-414.021"/>
<polygon fill="midnightblue" stroke="midnightblue" points="177.449,-417.257 187.98,-418.419 180.473,-410.943 177.449,-417.257"/>
</g>
<!-- Node34 -->
<g id="node34" class="node"><title>Node34</title>
<g id="a_node34"><a xlink:href="main_8c.html#a465c7ff93dae090d15d81d192c23e086" target="_top" xlink:title="Transform to uppercase. ">
<polygon fill="none" stroke="black" points="183.5,-380.5 183.5,-399.5 245.5,-399.5 245.5,-380.5 183.5,-380.5"/>
<text text-anchor="middle" x="214.5" y="-387.5" font-family="Helvetica,sans-Serif" font-size="10.00">uppercase</text>
</a>
</g>
</g>
<!-- Node13&#45;&gt;Node34 -->
<g id="edge48" class="edge"><title>Node13&#45;&gt;Node34</title>
<path fill="none" stroke="midnightblue" d="M132.379,-361.589C145.743,-366.269 162.017,-371.969 176.472,-377.032"/>
<polygon fill="midnightblue" stroke="midnightblue" points="175.535,-380.412 186.13,-380.414 177.849,-373.805 175.535,-380.412"/>
</g>
<!-- Node35 -->
<g id="node35" class="node"><title>Node35</title>
<g id="a_node35"><a xlink:href="interpreter_8c.html#ad441e17fe29b6b71e917f8ff03fd347c" target="_top" xlink:title="Perform a warm&#45;reset. ">
<polygon fill="none" stroke="black" points="180.5,-342.5 180.5,-361.5 248.5,-361.5 248.5,-342.5 180.5,-342.5"/>
<text text-anchor="middle" x="214.5" y="-349.5" font-family="Helvetica,sans-Serif" font-size="10.00">warm_reset</text>
</a>
</g>
</g>
<!-- Node13&#45;&gt;Node35 -->
<g id="edge49" class="edge"><title>Node13&#45;&gt;Node35</title>
<path fill="none" stroke="midnightblue" d="M134.076,-352C145.048,-352 157.786,-352 169.805,-352"/>
<polygon fill="midnightblue" stroke="midnightblue" points="170.119,-355.5 180.119,-352 170.119,-348.5 170.119,-355.5"/>
</g>
<!-- Node14&#45;&gt;Node3 -->
<g id="edge15" class="edge"><title>Node14&#45;&gt;Node3</title>
<path fill="none" stroke="midnightblue" d="M251.312,-570.412C264.913,-567.042 280.596,-563.482 295,-561 344.268,-552.512 401.924,-547.177 437.835,-544.391"/>
<polygon fill="midnightblue" stroke="midnightblue" points="438.538,-547.848 448.248,-543.608 438.013,-540.868 438.538,-547.848"/>
</g>
<!-- Node14&#45;&gt;Node4 -->
<g id="edge20" class="edge"><title>Node14&#45;&gt;Node4</title>
<path fill="none" stroke="midnightblue" d="M238.392,-570.472C245.582,-566.711 253.159,-561.869 259,-556 282.57,-532.316 270.814,-513.054 295,-490 299.148,-486.046 304.07,-482.627 309.177,-479.71"/>
<polygon fill="midnightblue" stroke="midnightblue" points="311.117,-482.65 318.439,-474.993 307.94,-476.412 311.117,-482.65"/>
</g>
<!-- Node14&#45;&gt;Node5 -->
<g id="edge21" class="edge"><title>Node14&#45;&gt;Node5</title>
<path fill="none" stroke="midnightblue" d="M235.184,-570.393C251.125,-562.783 274.26,-552.117 295,-544 340.746,-526.096 394.409,-508.749 430.658,-497.553"/>
<polygon fill="midnightblue" stroke="midnightblue" points="431.867,-500.844 440.399,-494.563 429.813,-494.152 431.867,-500.844"/>
</g>
<!-- Node14&#45;&gt;Node15 -->
<g id="edge16" class="edge"><title>Node14&#45;&gt;Node15</title>
<path fill="none" stroke="midnightblue" d="M226.995,-589.695C241.922,-601.931 269.136,-623.062 295,-637 298.692,-638.99 302.638,-640.873 306.63,-642.625"/>
<polygon fill="midnightblue" stroke="midnightblue" points="305.353,-645.884 315.933,-646.461 308.023,-639.413 305.353,-645.884"/>
</g>
<!-- Node16 -->
<g id="node16" class="node"><title>Node16</title>
<g id="a_node16"><a xlink:href="printing_8c.html#a8788c3947bf9ede0778e41c57171473a" target="_top" xlink:title="Print a program line. ">
<polygon fill="none" stroke="black" points="320.5,-570.5 320.5,-589.5 370.5,-589.5 370.5,-570.5 320.5,-570.5"/>
<text text-anchor="middle" x="345.5" y="-577.5" font-family="Helvetica,sans-Serif" font-size="10.00">printline</text>
</a>
</g>
</g>
<!-- Node14&#45;&gt;Node16 -->
<g id="edge17" class="edge"><title>Node14&#45;&gt;Node16</title>
<path fill="none" stroke="midnightblue" d="M255.257,-580C272.913,-580 293.485,-580 310.425,-580"/>
<polygon fill="midnightblue" stroke="midnightblue" points="310.444,-583.5 320.444,-580 310.444,-576.5 310.444,-583.5"/>
</g>
<!-- Node14&#45;&gt;Node17 -->
<g id="edge22" class="edge"><title>Node14&#45;&gt;Node17</title>
<path fill="none" stroke="midnightblue" d="M248.052,-589.589C265.767,-594.807 287.784,-601.293 306.307,-606.749"/>
<polygon fill="midnightblue" stroke="midnightblue" points="305.329,-610.11 315.911,-609.578 307.307,-603.395 305.329,-610.11"/>
</g>
<!-- Node16&#45;&gt;Node3 -->
<g id="edge19" class="edge"><title>Node16&#45;&gt;Node3</title>
<path fill="none" stroke="midnightblue" d="M370.794,-572.673C390.055,-566.864 417.198,-558.678 438.599,-552.224"/>
<polygon fill="midnightblue" stroke="midnightblue" points="439.717,-555.543 448.281,-549.304 437.696,-548.841 439.717,-555.543"/>
</g>
<!-- Node16&#45;&gt;Node6 -->
<g id="edge18" class="edge"><title>Node16&#45;&gt;Node6</title>
<path fill="none" stroke="midnightblue" d="M370.51,-587.713C378.806,-590.766 388.018,-594.604 396,-599 417.102,-610.622 438.921,-627.438 453.83,-639.795"/>
<polygon fill="midnightblue" stroke="midnightblue" points="451.852,-642.706 461.751,-646.481 456.367,-637.356 451.852,-642.706"/>
</g>
<!-- Node18&#45;&gt;Node4 -->
<g id="edge34" class="edge"><title>Node18&#45;&gt;Node4</title>
<path fill="none" stroke="midnightblue" d="M244.419,-322.54C249.814,-325.193 255.003,-328.614 259,-333 293.363,-370.71 261.391,-403.616 295,-442 298.95,-446.511 303.94,-450.253 309.221,-453.332"/>
<polygon fill="midnightblue" stroke="midnightblue" points="307.751,-456.511 318.254,-457.905 310.914,-450.265 307.751,-456.511"/>
</g>
<!-- Node18&#45;&gt;Node9 -->
<g id="edge25" class="edge"><title>Node18&#45;&gt;Node9</title>
<path fill="none" stroke="midnightblue" d="M244.014,-305.72C249.567,-303.035 254.922,-299.534 259,-295 294.529,-255.493 258.585,-219.692 295,-181 298.943,-176.81 303.911,-173.534 309.169,-170.975"/>
<polygon fill="midnightblue" stroke="midnightblue" points="310.819,-174.083 318.786,-167.1 308.203,-167.591 310.819,-174.083"/>
</g>
<!-- Node19 -->
<g id="node19" class="node"><title>Node19</title>
<g id="a_node19"><a xlink:href="main_8c.html#acd9b94c6ca68bfcee93930f454e37b6b" target="_top" xlink:title="Check if BREAK button was pressed. ">
<polygon fill="none" stroke="black" points="314.5,-304.5 314.5,-323.5 376.5,-323.5 376.5,-304.5 314.5,-304.5"/>
<text text-anchor="middle" x="345.5" y="-311.5" font-family="Helvetica,sans-Serif" font-size="10.00">break_test</text>
</a>
</g>
</g>
<!-- Node18&#45;&gt;Node19 -->
<g id="edge24" class="edge"><title>Node18&#45;&gt;Node19</title>
<path fill="none" stroke="midnightblue" d="M244.129,-314C261.747,-314 284.599,-314 304.047,-314"/>
<polygon fill="midnightblue" stroke="midnightblue" points="304.153,-317.5 314.153,-314 304.153,-310.5 304.153,-317.5"/>
</g>
<!-- Node20 -->
<g id="node20" class="node"><title>Node20</title>
<g id="a_node20"><a xlink:href="main_8c.html#a77995f5f32cf02e2670d84114fa3c6b1" target="_top" xlink:title="Busy&#45;delay functions. ">
<polygon fill="none" stroke="black" points="309.5,-380.5 309.5,-399.5 381.5,-399.5 381.5,-380.5 309.5,-380.5"/>
<text text-anchor="middle" x="345.5" y="-387.5" font-family="Helvetica,sans-Serif" font-size="10.00">fx_delay_ms</text>
</a>
</g>
</g>
<!-- Node18&#45;&gt;Node20 -->
<g id="edge26" class="edge"><title>Node18&#45;&gt;Node20</title>
<path fill="none" stroke="midnightblue" d="M241.532,-323.698C247.469,-326.361 253.612,-329.494 259,-333 277.193,-344.838 277.046,-353.804 295,-366 300.34,-369.628 306.311,-373.013 312.208,-376.03"/>
<polygon fill="midnightblue" stroke="midnightblue" points="310.787,-379.231 321.311,-380.452 313.845,-372.935 310.787,-379.231"/>
</g>
<!-- Node18&#45;&gt;Node21 -->
<g id="edge27" class="edge"><title>Node18&#45;&gt;Node21</title>
<path fill="none" stroke="midnightblue" d="M244.012,-322.934C249.436,-325.559 254.741,-328.869 259,-333 285.829,-359.022 263.417,-389.013 295,-409 332.932,-433.004 352.668,-420.721 396,-409 524.736,-374.177 654.805,-274.37 702.485,-235.126"/>
<polygon fill="midnightblue" stroke="midnightblue" points="704.961,-237.619 710.41,-228.532 700.484,-232.238 704.961,-237.619"/>
</g>
<!-- Node22 -->
<g id="node22" class="node"><title>Node22</title>
<g id="a_node22"><a xlink:href="parser_8c.html#a4fe92c8d54d0ce4ec516d64f098ee056" target="_top" xlink:title="Search for relational operators. ">
<polygon fill="none" stroke="black" points="305.5,-228.5 305.5,-247.5 385.5,-247.5 385.5,-228.5 305.5,-228.5"/>
<text text-anchor="middle" x="345.5" y="-235.5" font-family="Helvetica,sans-Serif" font-size="10.00">parse_expr_s1</text>
</a>
</g>
</g>
<!-- Node18&#45;&gt;Node22 -->
<g id="edge28" class="edge"><title>Node18&#45;&gt;Node22</title>
<path fill="none" stroke="midnightblue" d="M239.342,-304.486C245.83,-301.656 252.78,-298.397 259,-295 281.722,-282.59 306.159,-265.932 323.065,-253.831"/>
<polygon fill="midnightblue" stroke="midnightblue" points="325.577,-256.333 331.623,-247.633 321.471,-250.664 325.577,-256.333"/>
</g>
<!-- Node25 -->
<g id="node25" class="node"><title>Node25</title>
<g id="a_node25"><a xlink:href="parser_8c.html#ad7ccacd8a08ca721b55ce29bf016a849" target="_top" xlink:title="Search for any string in specified table. ">
<polygon fill="none" stroke="black" points="444,-247.5 444,-266.5 503,-266.5 503,-247.5 444,-247.5"/>
<text text-anchor="middle" x="473.5" y="-254.5" font-family="Helvetica,sans-Serif" font-size="10.00">scantable</text>
</a>
</g>
</g>
<!-- Node18&#45;&gt;Node25 -->
<g id="edge35" class="edge"><title>Node18&#45;&gt;Node25</title>
<path fill="none" stroke="midnightblue" d="M239.323,-323.534C274.874,-336.24 343.273,-354.739 396,-333 424.28,-321.34 447.624,-293.604 460.813,-275.063"/>
<polygon fill="midnightblue" stroke="midnightblue" points="463.859,-276.808 466.603,-266.575 458.076,-272.864 463.859,-276.808"/>
</g>
<!-- Node23 -->
<g id="node23" class="node"><title>Node23</title>
<g id="a_node23"><a xlink:href="parser_8c.html#aaa34262580f9ec1997162ce62c1dcb94" target="_top" xlink:title="Search for subtraction or addition operators. ">
<polygon fill="none" stroke="black" points="433.5,-209.5 433.5,-228.5 513.5,-228.5 513.5,-209.5 433.5,-209.5"/>
<text text-anchor="middle" x="473.5" y="-216.5" font-family="Helvetica,sans-Serif" font-size="10.00">parse_expr_s2</text>
</a>
</g>
</g>
<!-- Node22&#45;&gt;Node23 -->
<g id="edge29" class="edge"><title>Node22&#45;&gt;Node23</title>
<path fill="none" stroke="midnightblue" d="M385.677,-232.092C397.529,-230.305 410.7,-228.319 423.128,-226.445"/>
<polygon fill="midnightblue" stroke="midnightblue" points="423.981,-229.856 433.348,-224.904 422.938,-222.934 423.981,-229.856"/>
</g>
<!-- Node22&#45;&gt;Node25 -->
<g id="edge32" class="edge"><title>Node22&#45;&gt;Node25</title>
<path fill="none" stroke="midnightblue" d="M385.677,-243.908C400.937,-246.209 418.386,-248.84 433.618,-251.137"/>
<polygon fill="midnightblue" stroke="midnightblue" points="433.346,-254.635 443.756,-252.666 434.39,-247.714 433.346,-254.635"/>
</g>
<!-- Node24 -->
<g id="node24" class="node"><title>Node24</title>
<g id="a_node24"><a xlink:href="parser_8c.html#ae642e2964ae1b7ad02e9f31475d6167b" target="_top" xlink:title="Search for multiplication or division operators. ">
<polygon fill="none" stroke="red" points="561.5,-209.5 561.5,-228.5 641.5,-228.5 641.5,-209.5 561.5,-209.5"/>
<text text-anchor="middle" x="601.5" y="-216.5" font-family="Helvetica,sans-Serif" font-size="10.00">parse_expr_s3</text>
</a>
</g>
</g>
<!-- Node23&#45;&gt;Node24 -->
<g id="edge30" class="edge"><title>Node23&#45;&gt;Node24</title>
<path fill="none" stroke="midnightblue" d="M513.677,-219C525.529,-219 538.7,-219 551.128,-219"/>
<polygon fill="midnightblue" stroke="midnightblue" points="551.348,-222.5 561.348,-219 551.348,-215.5 551.348,-222.5"/>
</g>
<!-- Node24&#45;&gt;Node21 -->
<g id="edge31" class="edge"><title>Node24&#45;&gt;Node21</title>
<path fill="none" stroke="midnightblue" d="M641.795,-219C653.314,-219 665.98,-219 677.759,-219"/>
<polygon fill="midnightblue" stroke="midnightblue" points="677.829,-222.5 687.829,-219 677.829,-215.5 677.829,-222.5"/>
</g>
<!-- Node25&#45;&gt;Node21 -->
<g id="edge33" class="edge"><title>Node25&#45;&gt;Node21</title>
<path fill="none" stroke="midnightblue" d="M503.297,-255.341C538.582,-252.981 600.077,-247.811 652,-238 661.387,-236.226 671.36,-233.82 680.732,-231.316"/>
<polygon fill="midnightblue" stroke="midnightblue" points="681.904,-234.623 690.611,-228.586 680.039,-227.876 681.904,-234.623"/>
</g>
<!-- Node27&#45;&gt;Node3 -->
<g id="edge39" class="edge"><title>Node27&#45;&gt;Node3</title>
<path fill="none" stroke="midnightblue" d="M239.632,-270.379C278.134,-262.977 353.449,-255.156 396,-295 464.803,-359.425 387.316,-421.008 432,-504 436.468,-512.298 443.429,-519.8 450.327,-525.903"/>
<polygon fill="midnightblue" stroke="midnightblue" points="448.29,-528.759 458.244,-532.39 452.727,-523.344 448.29,-528.759"/>
</g>
<!-- Node27&#45;&gt;Node9 -->
<g id="edge38" class="edge"><title>Node27&#45;&gt;Node9</title>
<path fill="none" stroke="midnightblue" d="M239.935,-268.908C246.719,-266.045 253.676,-262.164 259,-257 285.829,-230.978 267.588,-206.407 295,-181 299.135,-177.167 304.125,-174.081 309.324,-171.603"/>
<polygon fill="midnightblue" stroke="midnightblue" points="310.819,-174.774 318.769,-167.771 308.187,-168.288 310.819,-174.774"/>
</g>
<!-- Node28 -->
<g id="node28" class="node"><title>Node28</title>
<g id="a_node28"><a xlink:href="main_8c.html#a98840489c057199354470e80b0779dfa" target="_top" xlink:title="Read from SERIAL or EEPROM. ">
<polygon fill="none" stroke="black" points="295,-190.5 295,-209.5 396,-209.5 396,-190.5 295,-190.5"/>
<text text-anchor="middle" x="345.5" y="-197.5" font-family="Helvetica,sans-Serif" font-size="10.00">read_serial_eeprom</text>
</a>
</g>
</g>
<!-- Node27&#45;&gt;Node28 -->
<g id="edge40" class="edge"><title>Node27&#45;&gt;Node28</title>
<path fill="none" stroke="midnightblue" d="M239.897,-267.379C246.387,-264.553 253.2,-261.072 259,-257 278.04,-243.632 275.662,-231.933 295,-219 297.88,-217.074 300.983,-215.303 304.182,-213.684"/>
<polygon fill="midnightblue" stroke="midnightblue" points="305.688,-216.845 313.343,-209.52 302.791,-210.472 305.688,-216.845"/>
</g>
<!-- Node29&#45;&gt;Node21 -->
<g id="edge42" class="edge"><title>Node29&#45;&gt;Node21</title>
<path fill="none" stroke="midnightblue" d="M629.079,-95.6169C637.019,-99.3125 645.365,-104.095 652,-110 680.914,-135.736 702.415,-176.271 713.367,-199.981"/>
<polygon fill="midnightblue" stroke="midnightblue" points="710.254,-201.594 717.526,-209.3 716.646,-198.742 710.254,-201.594"/>
</g>
<!-- Node35&#45;&gt;Node4 -->
<g id="edge50" class="edge"><title>Node35&#45;&gt;Node4</title>
<path fill="none" stroke="midnightblue" d="M245.281,-361.692C250.238,-364.195 255.045,-367.266 259,-371 284.726,-395.289 269.761,-417.206 295,-442 299.088,-446.016 303.979,-449.467 309.072,-452.399"/>
<polygon fill="midnightblue" stroke="midnightblue" points="307.829,-455.694 318.327,-457.123 311.011,-449.459 307.829,-455.694"/>
</g>
</g>
</svg>
        <g id="navigator" transform="translate(0 0)" fill="#404254">
                <rect fill="#f2f5e9" fill-opacity="0.5" stroke="#606060" stroke-width=".5" x="0" y="0" width="60" height="60"/>
                <use id="zoomplus" xlink:href="#zoomPlus" x="17" y="9" onmousedown="handleZoom(evt,'in')"/>
                <use id="zoomminus" xlink:href="#zoomMin" x="42" y="9" onmousedown="handleZoom(evt,'out')"/>
                <use id="reset" xlink:href="#resetDef" x="30" y="36" onmousedown="handleReset()"/>
                <g id="arrowUp" xlink:href="#dirArrow" transform="translate(30 24)" onmousedown="handlePan(0,-1)">
                  <use xlink:href="#rim" fill="#404040">
                        <set attributeName="fill" to="#808080" begin="arrowUp.mouseover" end="arrowUp.mouseout"/>
                  </use>
                  <path fill="none" stroke="white" stroke-width="1.5" d="M0,-3.0v7 M-2.5,-0.5L0,-3.0L2.5,-0.5"/>
                </g>
                <g id="arrowRight" xlink:href="#dirArrow" transform="rotate(90) translate(36 -43)" onmousedown="handlePan(1,0)">
                  <use xlink:href="#rim" fill="#404040">
                        <set attributeName="fill" to="#808080" begin="arrowRight.mouseover" end="arrowRight.mouseout"/>
                  </use>
                  <path fill="none" stroke="white" stroke-width="1.5" d="M0,-3.0v7 M-2.5,-0.5L0,-3.0L2.5,-0.5"/>
                </g>
                <g id="arrowDown" xlink:href="#dirArrow" transform="rotate(180) translate(-30 -48)" onmousedown="handlePan(0,1)">
                  <use xlink:href="#rim" fill="#404040">
                        <set attributeName="fill" to="#808080" begin="arrowDown.mouseover" end="arrowDown.mouseout"/>
                  </use>
                  <path fill="none" stroke="white" stroke-width="1.5" d="M0,-3.0v7 M-2.5,-0.5L0,-3.0L2.5,-0.5"/>
                </g>
                <g id="arrowLeft" xlink:href="#dirArrow" transform="rotate(270) translate(-36 17)" onmousedown="handlePan(-1,0)">
                  <use xlink:href="#rim" fill="#404040">
                        <set attributeName="fill" to="#808080" begin="arrowLeft.mouseover" end="arrowLeft.mouseout"/>
                  </use>
                  <path fill="none" stroke="white" stroke-width="1.5" d="M0,-3.0v7 M-2.5,-0.5L0,-3.0L2.5,-0.5"/>
                </g>
        </g>
        <svg viewBox="0 0 15 15" width="100%" height="30px" preserveAspectRatio="xMaxYMin meet">
         <g id="arrow_out" transform="scale(0.3 0.3)">
          <a xlink:href="main_8c_a840291bc02cba5474a4cb46a9b9566fe_cgraph_org.svg" target="_base">
           <rect id="button" ry="5" rx="5" y="6" x="6" height="38" width="38"
                fill="#f2f5e9" fill-opacity="0.5" stroke="#606060" stroke-width="1.0"/>
           <path id="arrow"
             d="M 11.500037,31.436501 C 11.940474,20.09759 22.043105,11.32322 32.158766,21.979434 L 37.068811,17.246167 C 37.068811,17.246167 37.088388,32 37.088388,32 L 22.160133,31.978069 C 22.160133,31.978069 26.997745,27.140456 26.997745,27.140456 C 18.528582,18.264221 13.291696,25.230495 11.500037,31.436501 z"
             style="fill:#404040;"/>
          </a>
         </g>
        </svg>
</svg>
