<?xml version="1.0" encoding="UTF-8" standalone="no"?>
<!DOCTYPE svg PUBLIC "-//W3C//DTD SVG 1.1//EN"
 "http://www.w3.org/Graphics/SVG/1.1/DTD/svg11.dtd">
<!-- Generated by graphviz version 2.38.0 (20140413.2041)
 -->
<!-- Title: get_line Pages: 1 -->
<svg width="195pt" height="104pt"
 viewBox="0.00 0.00 195.00 104.00" xmlns="http://www.w3.org/2000/svg" xmlns:xlink="http://www.w3.org/1999/xlink">
<g id="graph0" class="graph" transform="scale(1 1) rotate(0) translate(4 100)">
<title>get_line</title>
<!-- Node1 -->
<g id="node1" class="node"><title>Node1</title>
<polygon fill="#bfbfbf" stroke="black" points="0,-38.5 0,-57.5 50,-57.5 50,-38.5 0,-38.5"/>
<text text-anchor="middle" x="25" y="-45.5" font-family="Helvetica,sans-Serif" font-size="10.00">get_line</text>
</g>
<!-- Node2 -->
<g id="node2" class="node"><title>Node2</title>
<g id="a_node2"><a xlink:href="io_8c.html#a0d79c14d617757baa2806dc42d26f11a" target="_top" xlink:title="BEEP or flash the LED. ">
<polygon fill="none" stroke="black" points="110,-76.5 110,-95.5 163,-95.5 163,-76.5 110,-76.5"/>
<text text-anchor="middle" x="136.5" y="-83.5" font-family="Helvetica,sans-Serif" font-size="10.00">do_beep</text>
</a>
</g>
</g>
<!-- Node1&#45;&gt;Node2 -->
<g id="edge1" class="edge"><title>Node1&#45;&gt;Node2</title>
<path fill="none" stroke="midnightblue" d="M50.0302,-56.3393C64.628,-61.4052 83.5336,-67.966 99.8512,-73.6287"/>
<polygon fill="midnightblue" stroke="midnightblue" points="99.0203,-77.0451 109.615,-77.0171 101.315,-70.432 99.0203,-77.0451"/>
</g>
<!-- Node3 -->
<g id="node3" class="node"><title>Node3</title>
<g id="a_node3"><a xlink:href="printing_8c.html#aa893fecf81f3b8383deb48439b24a27d" target="_top" xlink:title="Print a NEW LINE character. ">
<polygon fill="none" stroke="black" points="111.5,-38.5 111.5,-57.5 161.5,-57.5 161.5,-38.5 111.5,-38.5"/>
<text text-anchor="middle" x="136.5" y="-45.5" font-family="Helvetica,sans-Serif" font-size="10.00">newline</text>
</a>
</g>
</g>
<!-- Node1&#45;&gt;Node3 -->
<g id="edge2" class="edge"><title>Node1&#45;&gt;Node3</title>
<path fill="none" stroke="midnightblue" d="M50.0302,-48C64.9034,-48 84.2486,-48 100.772,-48"/>
<polygon fill="midnightblue" stroke="midnightblue" points="101.147,-51.5001 111.147,-48 101.147,-44.5001 101.147,-51.5001"/>
</g>
<!-- Node4 -->
<g id="node4" class="node"><title>Node4</title>
<g id="a_node4"><a xlink:href="main_8c.html#a98840489c057199354470e80b0779dfa" target="_top" xlink:title="Read from SERIAL or EEPROM. ">
<polygon fill="none" stroke="black" points="86,-0.5 86,-19.5 187,-19.5 187,-0.5 86,-0.5"/>
<text text-anchor="middle" x="136.5" y="-7.5" font-family="Helvetica,sans-Serif" font-size="10.00">read_serial_eeprom</text>
</a>
</g>
</g>
<!-- Node1&#45;&gt;Node4 -->
<g id="edge3" class="edge"><title>Node1&#45;&gt;Node4</title>
<path fill="none" stroke="midnightblue" d="M50.0302,-39.6607C64.2109,-34.7396 82.4568,-28.4077 98.4463,-22.8588"/>
<polygon fill="midnightblue" stroke="midnightblue" points="99.7542,-26.1098 108.054,-19.5246 97.4592,-19.4967 99.7542,-26.1098"/>
</g>
</g>
</svg>
