<?xml version="1.0" encoding="UTF-8" standalone="no"?>
<!DOCTYPE svg PUBLIC "-//W3C//DTD SVG 1.1//EN"
 "http://www.w3.org/Graphics/SVG/1.1/DTD/svg11.dtd">
<!-- Generated by graphviz version 2.38.0 (20140413.2041)
 -->
<!-- Title: parse_notes Pages: 1 -->
<svg width="186pt" height="180pt"
 viewBox="0.00 0.00 186.00 180.00" xmlns="http://www.w3.org/2000/svg" xmlns:xlink="http://www.w3.org/1999/xlink">
<g id="graph0" class="graph" transform="scale(1 1) rotate(0) translate(4 176)">
<title>parse_notes</title>
<!-- Node1 -->
<g id="node1" class="node"><title>Node1</title>
<polygon fill="#bfbfbf" stroke="black" points="0,-76.5 0,-95.5 70,-95.5 70,-76.5 0,-76.5"/>
<text text-anchor="middle" x="35" y="-83.5" font-family="Helvetica,sans-Serif" font-size="10.00">parse_notes</text>
</g>
<!-- Node2 -->
<g id="node2" class="node"><title>Node2</title>
<g id="a_node2"><a xlink:href="parser_8c.html#a69ca2b492fb7b4fd14e1a3f90a516ecd" target="_top" xlink:title="Get duration value. ">
<polygon fill="none" stroke="black" points="107,-152.5 107,-171.5 177,-171.5 177,-152.5 107,-152.5"/>
<text text-anchor="middle" x="142" y="-159.5" font-family="Helvetica,sans-Serif" font-size="10.00">get_duration</text>
</a>
</g>
</g>
<!-- Node1&#45;&gt;Node2 -->
<g id="edge1" class="edge"><title>Node1&#45;&gt;Node2</title>
<path fill="none" stroke="midnightblue" d="M46.4309,-95.5367C59.7052,-107.422 83.6065,-127.994 106,-143 108.161,-144.448 110.443,-145.881 112.763,-147.272"/>
<polygon fill="midnightblue" stroke="midnightblue" points="111.308,-150.47 121.731,-152.371 114.768,-144.385 111.308,-150.47"/>
</g>
<!-- Node3 -->
<g id="node3" class="node"><title>Node3</title>
<g id="a_node3"><a xlink:href="parser_8c.html#a5f067be1dd6d96fbc8d54e689f2f5a7f" target="_top" xlink:title="Search for an effect mark. ">
<polygon fill="none" stroke="black" points="112,-114.5 112,-133.5 172,-133.5 172,-114.5 112,-114.5"/>
<text text-anchor="middle" x="142" y="-121.5" font-family="Helvetica,sans-Serif" font-size="10.00">get_effect</text>
</a>
</g>
</g>
<!-- Node1&#45;&gt;Node3 -->
<g id="edge2" class="edge"><title>Node1&#45;&gt;Node3</title>
<path fill="none" stroke="midnightblue" d="M62.4959,-95.589C75.3043,-100.224 90.8753,-105.86 104.762,-110.885"/>
<polygon fill="midnightblue" stroke="midnightblue" points="103.918,-114.302 114.513,-114.414 106.3,-107.72 103.918,-114.302"/>
</g>
<!-- Node4 -->
<g id="node4" class="node"><title>Node4</title>
<g id="a_node4"><a xlink:href="parser_8c.html#a6f49f829c37ce2c78cf358856378b116" target="_top" xlink:title="Get single note. ">
<polygon fill="none" stroke="black" points="115,-76.5 115,-95.5 169,-95.5 169,-76.5 115,-76.5"/>
<text text-anchor="middle" x="142" y="-83.5" font-family="Helvetica,sans-Serif" font-size="10.00">get_note</text>
</a>
</g>
</g>
<!-- Node1&#45;&gt;Node4 -->
<g id="edge3" class="edge"><title>Node1&#45;&gt;Node4</title>
<path fill="none" stroke="midnightblue" d="M70.0905,-86C81.0722,-86 93.2844,-86 104.437,-86"/>
<polygon fill="midnightblue" stroke="midnightblue" points="104.73,-89.5001 114.729,-86 104.729,-82.5001 104.73,-89.5001"/>
</g>
<!-- Node5 -->
<g id="node5" class="node"><title>Node5</title>
<g id="a_node5"><a xlink:href="parser_8c.html#a2563d634bb11c4e3b491e3a26180c9b6" target="_top" xlink:title="Get octave. ">
<polygon fill="none" stroke="black" points="109.5,-38.5 109.5,-57.5 174.5,-57.5 174.5,-38.5 109.5,-38.5"/>
<text text-anchor="middle" x="142" y="-45.5" font-family="Helvetica,sans-Serif" font-size="10.00">get_octave</text>
</a>
</g>
</g>
<!-- Node1&#45;&gt;Node5 -->
<g id="edge4" class="edge"><title>Node1&#45;&gt;Node5</title>
<path fill="none" stroke="midnightblue" d="M62.4959,-76.411C75.3043,-71.7756 90.8753,-66.1404 104.762,-61.1147"/>
<polygon fill="midnightblue" stroke="midnightblue" points="106.3,-64.2802 114.513,-57.5859 103.918,-57.6979 106.3,-64.2802"/>
</g>
<!-- Node6 -->
<g id="node6" class="node"><title>Node6</title>
<g id="a_node6"><a xlink:href="io_8c.html#ab9297f8051f65a786c6b4260bc49a35b" target="_top" xlink:title="Send character to sound controller. ">
<polygon fill="none" stroke="black" points="106,-0.5 106,-19.5 178,-19.5 178,-0.5 106,-0.5"/>
<text text-anchor="middle" x="142" y="-7.5" font-family="Helvetica,sans-Serif" font-size="10.00">send_to_apu</text>
</a>
</g>
</g>
<!-- Node1&#45;&gt;Node6 -->
<g id="edge5" class="edge"><title>Node1&#45;&gt;Node6</title>
<path fill="none" stroke="midnightblue" d="M46.4309,-76.4633C59.7052,-64.5781 83.6065,-44.0056 106,-29 108.161,-27.5519 110.443,-26.119 112.763,-24.7282"/>
<polygon fill="midnightblue" stroke="midnightblue" points="114.768,-27.6148 121.731,-19.6291 111.308,-21.5298 114.768,-27.6148"/>
</g>
</g>
</svg>
