<?xml version="1.0" encoding="UTF-8" standalone="no"?>
<!DOCTYPE svg PUBLIC "-//W3C//DTD SVG 1.1//EN"
 "http://www.w3.org/Graphics/SVG/1.1/DTD/svg11.dtd">
<!-- Generated by graphviz version 2.38.0 (20140413.2041)
 -->
<!-- Title: scantable Pages: 1 -->
<svg width="531pt" height="104pt"
 viewBox="0.00 0.00 531.00 104.00" xmlns="http://www.w3.org/2000/svg" xmlns:xlink="http://www.w3.org/1999/xlink">
<g id="graph0" class="graph" transform="scale(1 1) rotate(0) translate(4 100)">
<title>scantable</title>
<!-- Node1 -->
<g id="node1" class="node"><title>Node1</title>
<polygon fill="#bfbfbf" stroke="black" points="0,-38.5 0,-57.5 59,-57.5 59,-38.5 0,-38.5"/>
<text text-anchor="middle" x="29.5" y="-45.5" font-family="Helvetica,sans-Serif" font-size="10.00">scantable</text>
</g>
<!-- Node2 -->
<g id="node2" class="node"><title>Node2</title>
<g id="a_node2"><a xlink:href="interpreter_8c.html#ae0c498ea10540cc81b1388062c7cf86e" target="_top" xlink:title="Execute specified line. ">
<polygon fill="none" stroke="black" points="221.5,-76.5 221.5,-95.5 280.5,-95.5 280.5,-76.5 221.5,-76.5"/>
<text text-anchor="middle" x="251" y="-83.5" font-family="Helvetica,sans-Serif" font-size="10.00">execution</text>
</a>
</g>
</g>
<!-- Node1&#45;&gt;Node2 -->
<g id="edge1" class="edge"><title>Node1&#45;&gt;Node2</title>
<path fill="none" stroke="midnightblue" d="M68.864,-60.4249C77.4013,-62.8742 86.4553,-65.2303 95,-67 138.671,-76.0447 190.219,-81.3107 221.488,-83.9197"/>
<polygon fill="midnightblue" stroke="midnightblue" points="69.7234,-57.0291 59.1407,-57.5365 67.73,-63.7393 69.7234,-57.0291"/>
</g>
<!-- Node5 -->
<g id="node5" class="node"><title>Node5</title>
<g id="a_node5"><a xlink:href="parser_8h.html#a4fe92c8d54d0ce4ec516d64f098ee056" target="_top" xlink:title="Search for relational operators. ">
<polygon fill="none" stroke="black" points="95,-38.5 95,-57.5 175,-57.5 175,-38.5 95,-38.5"/>
<text text-anchor="middle" x="135" y="-45.5" font-family="Helvetica,sans-Serif" font-size="10.00">parse_expr_s1</text>
</a>
</g>
</g>
<!-- Node1&#45;&gt;Node5 -->
<g id="edge4" class="edge"><title>Node1&#45;&gt;Node5</title>
<path fill="none" stroke="midnightblue" d="M69.2577,-48C77.5693,-48 86.359,-48 94.6912,-48"/>
<polygon fill="midnightblue" stroke="midnightblue" points="69.0558,-44.5001 59.0558,-48 69.0558,-51.5001 69.0558,-44.5001"/>
</g>
<!-- Node6 -->
<g id="node6" class="node"><title>Node6</title>
<g id="a_node6"><a xlink:href="parser_8c.html#ad38a783e0f6ac48469c7e9ff1175f217" target="_top" xlink:title="Search for numbers, variables or functions. ">
<polygon fill="none" stroke="black" points="211,-0.5 211,-19.5 291,-19.5 291,-0.5 211,-0.5"/>
<text text-anchor="middle" x="251" y="-7.5" font-family="Helvetica,sans-Serif" font-size="10.00">parse_expr_s4</text>
</a>
</g>
</g>
<!-- Node1&#45;&gt;Node6 -->
<g id="edge10" class="edge"><title>Node1&#45;&gt;Node6</title>
<path fill="none" stroke="midnightblue" d="M68.864,-35.5751C77.4013,-33.1258 86.4553,-30.7697 95,-29 134.025,-20.9175 179.34,-15.8525 210.854,-13.0045"/>
<polygon fill="midnightblue" stroke="midnightblue" points="67.73,-32.2607 59.1407,-38.4635 69.7234,-38.9709 67.73,-32.2607"/>
</g>
<!-- Node3 -->
<g id="node3" class="node"><title>Node3</title>
<g id="a_node3"><a xlink:href="interpreter_8h.html#a08a98a5503e4f3e1a5a19222d425275a" target="_top" xlink:title="The interpreter main loop. ">
<polygon fill="none" stroke="black" points="337,-76.5 337,-95.5 397,-95.5 397,-76.5 337,-76.5"/>
<text text-anchor="middle" x="367" y="-83.5" font-family="Helvetica,sans-Serif" font-size="10.00">interpreter</text>
</a>
</g>
</g>
<!-- Node2&#45;&gt;Node3 -->
<g id="edge2" class="edge"><title>Node2&#45;&gt;Node3</title>
<path fill="none" stroke="midnightblue" d="M290.835,-86C305.9,-86 322.856,-86 336.846,-86"/>
<polygon fill="midnightblue" stroke="midnightblue" points="290.767,-82.5001 280.767,-86 290.767,-89.5001 290.767,-82.5001"/>
</g>
<!-- Node4 -->
<g id="node4" class="node"><title>Node4</title>
<g id="a_node4"><a xlink:href="main_8h.html#a840291bc02cba5474a4cb46a9b9566fe" target="_top" xlink:title="Program entry point – the main function. ">
<polygon fill="none" stroke="black" points="464,-76.5 464,-95.5 502,-95.5 502,-76.5 464,-76.5"/>
<text text-anchor="middle" x="483" y="-83.5" font-family="Helvetica,sans-Serif" font-size="10.00">main</text>
</a>
</g>
</g>
<!-- Node3&#45;&gt;Node4 -->
<g id="edge3" class="edge"><title>Node3&#45;&gt;Node4</title>
<path fill="none" stroke="midnightblue" d="M407.324,-86C426.454,-86 448.532,-86 463.693,-86"/>
<polygon fill="midnightblue" stroke="midnightblue" points="407.062,-82.5001 397.062,-86 407.062,-89.5001 407.062,-82.5001"/>
</g>
<!-- Node5&#45;&gt;Node2 -->
<g id="edge5" class="edge"><title>Node5&#45;&gt;Node2</title>
<path fill="none" stroke="midnightblue" d="M174.478,-60.8259C189.774,-65.9247 207.067,-71.6891 221.242,-76.4141"/>
<polygon fill="midnightblue" stroke="midnightblue" points="175.361,-57.431 164.767,-57.589 173.147,-64.0717 175.361,-57.431"/>
</g>
<!-- Node5&#45;&gt;Node6 -->
<g id="edge6" class="edge"><title>Node5&#45;&gt;Node6</title>
<path fill="none" stroke="midnightblue" d="M174.478,-35.1741C189.774,-30.0753 207.067,-24.3109 221.242,-19.5859"/>
<polygon fill="midnightblue" stroke="midnightblue" points="173.147,-31.9283 164.767,-38.411 175.361,-38.569 173.147,-31.9283"/>
</g>
<!-- Node7 -->
<g id="node7" class="node"><title>Node7</title>
<g id="a_node7"><a xlink:href="parser_8c.html#ae642e2964ae1b7ad02e9f31475d6167b" target="_top" xlink:title="Search for multiplication or division operators. ">
<polygon fill="none" stroke="black" points="327,-0.5 327,-19.5 407,-19.5 407,-0.5 327,-0.5"/>
<text text-anchor="middle" x="367" y="-7.5" font-family="Helvetica,sans-Serif" font-size="10.00">parse_expr_s3</text>
</a>
</g>
</g>
<!-- Node6&#45;&gt;Node7 -->
<g id="edge7" class="edge"><title>Node6&#45;&gt;Node7</title>
<path fill="none" stroke="midnightblue" d="M301.39,-10C309.852,-10 318.542,-10 326.695,-10"/>
<polygon fill="midnightblue" stroke="midnightblue" points="301.232,-6.5001 291.232,-10 301.232,-13.5001 301.232,-6.5001"/>
</g>
<!-- Node8 -->
<g id="node8" class="node"><title>Node8</title>
<g id="a_node8"><a xlink:href="parser_8c.html#aaa34262580f9ec1997162ce62c1dcb94" target="_top" xlink:title="Search for subtraction or addition operators. ">
<polygon fill="none" stroke="black" points="443,-19.5 443,-38.5 523,-38.5 523,-19.5 443,-19.5"/>
<text text-anchor="middle" x="483" y="-26.5" font-family="Helvetica,sans-Serif" font-size="10.00">parse_expr_s2</text>
</a>
</g>
</g>
<!-- Node7&#45;&gt;Node8 -->
<g id="edge8" class="edge"><title>Node7&#45;&gt;Node8</title>
<path fill="none" stroke="midnightblue" d="M417.111,-18.1852C425.661,-19.6101 434.452,-21.0754 442.695,-22.4492"/>
<polygon fill="midnightblue" stroke="midnightblue" points="417.672,-14.7304 407.232,-16.5387 416.521,-21.6352 417.672,-14.7304"/>
</g>
<!-- Node8&#45;&gt;Node5 -->
<g id="edge9" class="edge"><title>Node8&#45;&gt;Node5</title>
<path fill="none" stroke="midnightblue" d="M432.629,-31.7111C363.246,-35.5212 238.309,-42.3819 175.018,-45.8574"/>
<polygon fill="midnightblue" stroke="midnightblue" points="433.066,-35.1925 442.859,-31.1493 432.683,-28.203 433.066,-35.1925"/>
</g>
</g>
</svg>
