<?xml version="1.0" encoding="UTF-8" standalone="no"?>
<!DOCTYPE svg PUBLIC "-//W3C//DTD SVG 1.1//EN"
 "http://www.w3.org/Graphics/SVG/1.1/DTD/svg11.dtd">
<!-- Generated by graphviz version 2.38.0 (20140413.2041)
 -->
<!-- Title: parse_expr_s3 Pages: 1 -->
<svg width="541pt" height="123pt"
 viewBox="0.00 0.00 541.00 123.00" xmlns="http://www.w3.org/2000/svg" xmlns:xlink="http://www.w3.org/1999/xlink">
<g id="graph0" class="graph" transform="scale(1 1) rotate(0) translate(4 119)">
<title>parse_expr_s3</title>
<!-- Node1 -->
<g id="node1" class="node"><title>Node1</title>
<polygon fill="#bfbfbf" stroke="black" points="0,-57.5 0,-76.5 80,-76.5 80,-57.5 0,-57.5"/>
<text text-anchor="middle" x="40" y="-64.5" font-family="Helvetica,sans-Serif" font-size="10.00">parse_expr_s3</text>
</g>
<!-- Node2 -->
<g id="node2" class="node"><title>Node2</title>
<g id="a_node2"><a xlink:href="main_8c.html#ae363da215544e897ef8e44a64dabce48" target="_top" xlink:title="Ignore whitespace characters. ">
<polygon fill="none" stroke="black" points="464,-95.5 464,-114.5 533,-114.5 533,-95.5 464,-95.5"/>
<text text-anchor="middle" x="498.5" y="-102.5" font-family="Helvetica,sans-Serif" font-size="10.00">ignorespace</text>
</a>
</g>
</g>
<!-- Node1&#45;&gt;Node2 -->
<g id="edge1" class="edge"><title>Node1&#45;&gt;Node2</title>
<path fill="none" stroke="midnightblue" d="M74.7603,-76.5957C87.5884,-79.9659 102.388,-83.525 116,-86 252.867,-110.886 289.018,-116.988 428,-111 436.344,-110.64 445.236,-110.039 453.775,-109.353"/>
<polygon fill="midnightblue" stroke="midnightblue" points="454.289,-112.822 463.955,-108.483 453.694,-105.847 454.289,-112.822"/>
</g>
<!-- Node3 -->
<g id="node3" class="node"><title>Node3</title>
<g id="a_node3"><a xlink:href="parser_8c.html#ad38a783e0f6ac48469c7e9ff1175f217" target="_top" xlink:title="Search for numbers, variables or functions. ">
<polygon fill="none" stroke="black" points="116,-57.5 116,-76.5 196,-76.5 196,-57.5 116,-57.5"/>
<text text-anchor="middle" x="156" y="-64.5" font-family="Helvetica,sans-Serif" font-size="10.00">parse_expr_s4</text>
</a>
</g>
</g>
<!-- Node1&#45;&gt;Node3 -->
<g id="edge2" class="edge"><title>Node1&#45;&gt;Node3</title>
<path fill="none" stroke="midnightblue" d="M80.2323,-67C88.3828,-67 97.0717,-67 105.535,-67"/>
<polygon fill="midnightblue" stroke="midnightblue" points="105.695,-70.5001 115.695,-67 105.695,-63.5001 105.695,-70.5001"/>
</g>
<!-- Node3&#45;&gt;Node2 -->
<g id="edge3" class="edge"><title>Node3&#45;&gt;Node2</title>
<path fill="none" stroke="midnightblue" d="M196.2,-75.0396C207.699,-77.2021 220.322,-79.3859 232,-81 309.795,-91.7525 401.108,-98.7952 453.839,-102.322"/>
<polygon fill="midnightblue" stroke="midnightblue" points="453.647,-105.817 463.855,-102.98 454.106,-98.8319 453.647,-105.817"/>
</g>
<!-- Node4 -->
<g id="node4" class="node"><title>Node4</title>
<g id="a_node4"><a xlink:href="parser_8c.html#ad7ccacd8a08ca721b55ce29bf016a849" target="_top" xlink:title="Search for any string in specified table. ">
<polygon fill="none" stroke="black" points="358.5,-57.5 358.5,-76.5 417.5,-76.5 417.5,-57.5 358.5,-57.5"/>
<text text-anchor="middle" x="388" y="-64.5" font-family="Helvetica,sans-Serif" font-size="10.00">scantable</text>
</a>
</g>
</g>
<!-- Node3&#45;&gt;Node4 -->
<g id="edge4" class="edge"><title>Node3&#45;&gt;Node4</title>
<path fill="none" stroke="midnightblue" d="M196.016,-67C238.433,-67 305.811,-67 348.159,-67"/>
<polygon fill="midnightblue" stroke="midnightblue" points="348.355,-70.5001 358.355,-67 348.355,-63.5001 348.355,-70.5001"/>
</g>
<!-- Node5 -->
<g id="node5" class="node"><title>Node5</title>
<g id="a_node5"><a xlink:href="parser_8c.html#a4fe92c8d54d0ce4ec516d64f098ee056" target="_top" xlink:title="Search for relational operators. ">
<polygon fill="none" stroke="black" points="232,-19.5 232,-38.5 312,-38.5 312,-19.5 232,-19.5"/>
<text text-anchor="middle" x="272" y="-26.5" font-family="Helvetica,sans-Serif" font-size="10.00">parse_expr_s1</text>
</a>
</g>
</g>
<!-- Node3&#45;&gt;Node5 -->
<g id="edge6" class="edge"><title>Node3&#45;&gt;Node5</title>
<path fill="none" stroke="midnightblue" d="M185.767,-57.411C199.943,-52.6856 217.237,-46.9211 232.532,-41.8226"/>
<polygon fill="midnightblue" stroke="midnightblue" points="233.862,-45.0687 242.242,-38.5859 231.649,-38.4279 233.862,-45.0687"/>
</g>
<!-- Node4&#45;&gt;Node2 -->
<g id="edge5" class="edge"><title>Node4&#45;&gt;Node2</title>
<path fill="none" stroke="midnightblue" d="M416.379,-76.589C429.743,-81.2694 446.017,-86.9692 460.472,-92.0315"/>
<polygon fill="midnightblue" stroke="midnightblue" points="459.535,-95.4118 470.13,-95.4141 461.849,-88.8053 459.535,-95.4118"/>
</g>
<!-- Node5&#45;&gt;Node4 -->
<g id="edge9" class="edge"><title>Node5&#45;&gt;Node4</title>
<path fill="none" stroke="midnightblue" d="M301.767,-38.589C315.943,-43.3144 333.237,-49.0789 348.532,-54.1774"/>
<polygon fill="midnightblue" stroke="midnightblue" points="347.649,-57.5721 358.242,-57.4141 349.862,-50.9313 347.649,-57.5721"/>
</g>
<!-- Node6 -->
<g id="node6" class="node"><title>Node6</title>
<g id="a_node6"><a xlink:href="parser_8c.html#aaa34262580f9ec1997162ce62c1dcb94" target="_top" xlink:title="Search for subtraction or addition operators. ">
<polygon fill="none" stroke="black" points="348,-0.5 348,-19.5 428,-19.5 428,-0.5 348,-0.5"/>
<text text-anchor="middle" x="388" y="-7.5" font-family="Helvetica,sans-Serif" font-size="10.00">parse_expr_s2</text>
</a>
</g>
</g>
<!-- Node5&#45;&gt;Node6 -->
<g id="edge7" class="edge"><title>Node5&#45;&gt;Node6</title>
<path fill="none" stroke="midnightblue" d="M312.232,-22.4613C320.472,-21.0879 329.263,-19.6229 337.814,-18.1977"/>
<polygon fill="midnightblue" stroke="midnightblue" points="338.407,-21.6472 347.695,-16.5508 337.256,-14.7425 338.407,-21.6472"/>
</g>
<!-- Node6&#45;&gt;Node1 -->
<g id="edge8" class="edge"><title>Node6&#45;&gt;Node1</title>
<path fill="none" stroke="midnightblue" d="M347.917,-6.89123C316.44,-5.13245 271.142,-4.28397 232,-10 175.264,-18.2853 111.958,-39.7239 74.3545,-53.8182"/>
<polygon fill="midnightblue" stroke="midnightblue" points="73.017,-50.5822 64.9124,-57.4061 75.5035,-57.1257 73.017,-50.5822"/>
</g>
</g>
</svg>
