<?xml version="1.0" encoding="UTF-8" standalone="no"?>
<!DOCTYPE svg PUBLIC "-//W3C//DTD SVG 1.1//EN"
 "http://www.w3.org/Graphics/SVG/1.1/DTD/svg11.dtd">
<!-- Generated by graphviz version 2.38.0 (20140413.2041)
 -->
<!-- Title: parse_expr_s4 Pages: 1 -->
<svg width="541pt" height="104pt"
 viewBox="0.00 0.00 541.00 103.96" xmlns="http://www.w3.org/2000/svg" xmlns:xlink="http://www.w3.org/1999/xlink">
<g id="graph0" class="graph" transform="scale(1 1) rotate(0) translate(4 99.9638)">
<title>parse_expr_s4</title>
<!-- Node1 -->
<g id="node1" class="node"><title>Node1</title>
<polygon fill="#bfbfbf" stroke="black" points="0,-40.7232 0,-59.7232 80,-59.7232 80,-40.7232 0,-40.7232"/>
<text text-anchor="middle" x="40" y="-47.7232" font-family="Helvetica,sans-Serif" font-size="10.00">parse_expr_s4</text>
</g>
<!-- Node2 -->
<g id="node2" class="node"><title>Node2</title>
<g id="a_node2"><a xlink:href="main_8c.html#ae363da215544e897ef8e44a64dabce48" target="_top" xlink:title="Ignore whitespace characters. ">
<polygon fill="none" stroke="black" points="464,-59.7232 464,-78.7232 533,-78.7232 533,-59.7232 464,-59.7232"/>
<text text-anchor="middle" x="498.5" y="-66.7232" font-family="Helvetica,sans-Serif" font-size="10.00">ignorespace</text>
</a>
</g>
</g>
<!-- Node1&#45;&gt;Node2 -->
<g id="edge1" class="edge"><title>Node1&#45;&gt;Node2</title>
<path fill="none" stroke="midnightblue" d="M68.1357,-59.7582C82.2572,-64.4094 99.8933,-69.7383 116,-73.2232 251.6,-102.562 290.275,-99.9596 428,-83.2232 436.431,-82.1987 445.366,-80.7094 453.921,-79.0803"/>
<polygon fill="midnightblue" stroke="midnightblue" points="454.614,-82.5111 463.736,-77.1231 453.245,-75.6463 454.614,-82.5111"/>
</g>
<!-- Node3 -->
<g id="node3" class="node"><title>Node3</title>
<g id="a_node3"><a xlink:href="parser_8c.html#a4fe92c8d54d0ce4ec516d64f098ee056" target="_top" xlink:title="Search for relational operators. ">
<polygon fill="none" stroke="black" points="116,-21.7232 116,-40.7232 196,-40.7232 196,-21.7232 116,-21.7232"/>
<text text-anchor="middle" x="156" y="-28.7232" font-family="Helvetica,sans-Serif" font-size="10.00">parse_expr_s1</text>
</a>
</g>
</g>
<!-- Node1&#45;&gt;Node3 -->
<g id="edge2" class="edge"><title>Node1&#45;&gt;Node3</title>
<path fill="none" stroke="midnightblue" d="M80.2323,-43.6845C88.4723,-42.3111 97.2628,-40.8461 105.814,-39.4209"/>
<polygon fill="midnightblue" stroke="midnightblue" points="106.407,-42.8704 115.695,-37.774 105.256,-35.9657 106.407,-42.8704"/>
</g>
<!-- Node6 -->
<g id="node6" class="node"><title>Node6</title>
<g id="a_node6"><a xlink:href="parser_8c.html#ad7ccacd8a08ca721b55ce29bf016a849" target="_top" xlink:title="Search for any string in specified table. ">
<polygon fill="none" stroke="black" points="242.5,-59.7232 242.5,-78.7232 301.5,-78.7232 301.5,-59.7232 242.5,-59.7232"/>
<text text-anchor="middle" x="272" y="-66.7232" font-family="Helvetica,sans-Serif" font-size="10.00">scantable</text>
</a>
</g>
</g>
<!-- Node1&#45;&gt;Node6 -->
<g id="edge9" class="edge"><title>Node1&#45;&gt;Node6</title>
<path fill="none" stroke="midnightblue" d="M80.0164,-53.4463C122.433,-56.9502 189.811,-62.5163 232.159,-66.0146"/>
<polygon fill="midnightblue" stroke="midnightblue" points="232.101,-69.5216 242.355,-66.8569 232.677,-62.5454 232.101,-69.5216"/>
</g>
<!-- Node4 -->
<g id="node4" class="node"><title>Node4</title>
<g id="a_node4"><a xlink:href="parser_8c.html#aaa34262580f9ec1997162ce62c1dcb94" target="_top" xlink:title="Search for subtraction or addition operators. ">
<polygon fill="none" stroke="black" points="232,-21.7232 232,-40.7232 312,-40.7232 312,-21.7232 232,-21.7232"/>
<text text-anchor="middle" x="272" y="-28.7232" font-family="Helvetica,sans-Serif" font-size="10.00">parse_expr_s2</text>
</a>
</g>
</g>
<!-- Node3&#45;&gt;Node4 -->
<g id="edge3" class="edge"><title>Node3&#45;&gt;Node4</title>
<path fill="none" stroke="midnightblue" d="M196.232,-31.2232C204.383,-31.2232 213.072,-31.2232 221.535,-31.2232"/>
<polygon fill="midnightblue" stroke="midnightblue" points="221.695,-34.7233 231.695,-31.2232 221.695,-27.7233 221.695,-34.7233"/>
</g>
<!-- Node3&#45;&gt;Node6 -->
<g id="edge7" class="edge"><title>Node3&#45;&gt;Node6</title>
<path fill="none" stroke="midnightblue" d="M185.767,-40.8122C199.943,-45.5376 217.237,-51.3021 232.532,-56.4006"/>
<polygon fill="midnightblue" stroke="midnightblue" points="231.649,-59.7953 242.242,-59.6373 233.862,-53.1545 231.649,-59.7953"/>
</g>
<!-- Node5 -->
<g id="node5" class="node"><title>Node5</title>
<g id="a_node5"><a xlink:href="parser_8c.html#ae642e2964ae1b7ad02e9f31475d6167b" target="_top" xlink:title="Search for multiplication or division operators. ">
<polygon fill="none" stroke="black" points="348,-21.7232 348,-40.7232 428,-40.7232 428,-21.7232 348,-21.7232"/>
<text text-anchor="middle" x="388" y="-28.7232" font-family="Helvetica,sans-Serif" font-size="10.00">parse_expr_s3</text>
</a>
</g>
</g>
<!-- Node4&#45;&gt;Node5 -->
<g id="edge4" class="edge"><title>Node4&#45;&gt;Node5</title>
<path fill="none" stroke="midnightblue" d="M312.232,-31.2232C320.383,-31.2232 329.072,-31.2232 337.535,-31.2232"/>
<polygon fill="midnightblue" stroke="midnightblue" points="337.695,-34.7233 347.695,-31.2232 337.695,-27.7233 337.695,-34.7233"/>
</g>
<!-- Node5&#45;&gt;Node1 -->
<g id="edge6" class="edge"><title>Node5&#45;&gt;Node1</title>
<path fill="none" stroke="midnightblue" d="M356.676,-21.7182C343.15,-17.9541 326.928,-14.0847 312,-12.2232 225.558,-1.44418 200.727,8.01624 116,-12.2232 97.2496,-16.7023 77.8844,-26.6736 63.5292,-35.2782"/>
<polygon fill="midnightblue" stroke="midnightblue" points="61.5166,-32.4083 54.8761,-40.6638 65.2155,-38.3512 61.5166,-32.4083"/>
</g>
<!-- Node5&#45;&gt;Node2 -->
<g id="edge5" class="edge"><title>Node5&#45;&gt;Node2</title>
<path fill="none" stroke="midnightblue" d="M416.379,-40.8122C429.743,-45.4926 446.017,-51.1924 460.472,-56.2547"/>
<polygon fill="midnightblue" stroke="midnightblue" points="459.535,-59.635 470.13,-59.6373 461.849,-53.0285 459.535,-59.635"/>
</g>
<!-- Node6&#45;&gt;Node2 -->
<g id="edge8" class="edge"><title>Node6&#45;&gt;Node2</title>
<path fill="none" stroke="midnightblue" d="M301.89,-69.2232C340.453,-69.2232 409.089,-69.2232 453.945,-69.2232"/>
<polygon fill="midnightblue" stroke="midnightblue" points="453.969,-72.7233 463.969,-69.2232 453.969,-65.7233 453.969,-72.7233"/>
</g>
</g>
</svg>
