<?xml version="1.0" encoding="UTF-8" standalone="no"?>
<!DOCTYPE svg PUBLIC "-//W3C//DTD SVG 1.1//EN"
 "http://www.w3.org/Graphics/SVG/1.1/DTD/svg11.dtd">
<!-- Generated by graphviz version 2.38.0 (20140413.2041)
 -->
<!-- Title: parse_expr_s1 Pages: 1 -->
<svg width="752pt" height="133pt"
 viewBox="0.00 0.00 752.00 132.83" xmlns="http://www.w3.org/2000/svg" xmlns:xlink="http://www.w3.org/1999/xlink">
<g id="graph0" class="graph" transform="scale(1 1) rotate(0) translate(4 128.826)">
<title>parse_expr_s1</title>
<!-- Node1 -->
<g id="node1" class="node"><title>Node1</title>
<polygon fill="#bfbfbf" stroke="black" points="0,-10.3263 0,-29.3263 80,-29.3263 80,-10.3263 0,-10.3263"/>
<text text-anchor="middle" x="40" y="-17.3263" font-family="Helvetica,sans-Serif" font-size="10.00">parse_expr_s1</text>
</g>
<!-- Node2 -->
<g id="node2" class="node"><title>Node2</title>
<g id="a_node2"><a xlink:href="parser_8c.html#aaa34262580f9ec1997162ce62c1dcb94" target="_top" xlink:title="Search for subtraction or addition operators. ">
<polygon fill="none" stroke="black" points="116,-29.3263 116,-48.3263 196,-48.3263 196,-29.3263 116,-29.3263"/>
<text text-anchor="middle" x="156" y="-36.3263" font-family="Helvetica,sans-Serif" font-size="10.00">parse_expr_s2</text>
</a>
</g>
</g>
<!-- Node1&#45;&gt;Node2 -->
<g id="edge1" class="edge"><title>Node1&#45;&gt;Node2</title>
<path fill="none" stroke="midnightblue" d="M80.2323,-26.365C88.4723,-27.7384 97.2628,-29.2034 105.814,-30.6287"/>
<polygon fill="midnightblue" stroke="midnightblue" points="105.256,-34.0838 115.695,-32.2755 106.407,-27.1791 105.256,-34.0838"/>
</g>
<!-- Node7 -->
<g id="node7" class="node"><title>Node7</title>
<g id="a_node7"><a xlink:href="parser_8c.html#ad7ccacd8a08ca721b55ce29bf016a849" target="_top" xlink:title="Search for any string in specified table. ">
<polygon fill="none" stroke="black" points="580,-48.3263 580,-67.3263 639,-67.3263 639,-48.3263 580,-48.3263"/>
<text text-anchor="middle" x="609.5" y="-55.3263" font-family="Helvetica,sans-Serif" font-size="10.00">scantable</text>
</a>
</g>
</g>
<!-- Node1&#45;&gt;Node7 -->
<g id="edge11" class="edge"><title>Node1&#45;&gt;Node7</title>
<path fill="none" stroke="midnightblue" d="M80.3957,-14.5842C126.135,-8.9603 203.888,-0.826311 271,-0.826311 271,-0.826311 271,-0.826311 389,-0.826311 458.405,-0.826311 478.277,2.47893 544,-19.8263 559.496,-25.0853 575.351,-34.3631 587.464,-42.4345"/>
<polygon fill="midnightblue" stroke="midnightblue" points="585.713,-45.4789 595.929,-48.2851 589.693,-39.7203 585.713,-45.4789"/>
</g>
<!-- Node3 -->
<g id="node3" class="node"><title>Node3</title>
<g id="a_node3"><a xlink:href="parser_8c.html#ae642e2964ae1b7ad02e9f31475d6167b" target="_top" xlink:title="Search for multiplication or division operators. ">
<polygon fill="none" stroke="black" points="232,-67.3263 232,-86.3263 312,-86.3263 312,-67.3263 232,-67.3263"/>
<text text-anchor="middle" x="272" y="-74.3263" font-family="Helvetica,sans-Serif" font-size="10.00">parse_expr_s3</text>
</a>
</g>
</g>
<!-- Node2&#45;&gt;Node3 -->
<g id="edge2" class="edge"><title>Node2&#45;&gt;Node3</title>
<path fill="none" stroke="midnightblue" d="M185.767,-48.4153C199.943,-53.1407 217.237,-58.9052 232.532,-64.0037"/>
<polygon fill="midnightblue" stroke="midnightblue" points="231.649,-67.3984 242.242,-67.2404 233.862,-60.7576 231.649,-67.3984"/>
</g>
<!-- Node4 -->
<g id="node4" class="node"><title>Node4</title>
<g id="a_node4"><a xlink:href="main_8c.html#ae363da215544e897ef8e44a64dabce48" target="_top" xlink:title="Ignore whitespace characters. ">
<polygon fill="none" stroke="black" points="675,-105.326 675,-124.326 744,-124.326 744,-105.326 675,-105.326"/>
<text text-anchor="middle" x="709.5" y="-112.326" font-family="Helvetica,sans-Serif" font-size="10.00">ignorespace</text>
</a>
</g>
</g>
<!-- Node3&#45;&gt;Node4 -->
<g id="edge3" class="edge"><title>Node3&#45;&gt;Node4</title>
<path fill="none" stroke="midnightblue" d="M305.988,-86.3805C318.982,-89.8284 334.098,-93.4514 348,-95.8263 475.818,-117.661 509.344,-118.691 639,-116.826 647.323,-116.707 656.206,-116.506 664.742,-116.277"/>
<polygon fill="midnightblue" stroke="midnightblue" points="665.025,-119.771 674.922,-115.988 664.826,-112.774 665.025,-119.771"/>
</g>
<!-- Node5 -->
<g id="node5" class="node"><title>Node5</title>
<g id="a_node5"><a xlink:href="parser_8c.html#ad38a783e0f6ac48469c7e9ff1175f217" target="_top" xlink:title="Search for numbers, variables or functions. ">
<polygon fill="none" stroke="black" points="348,-67.3263 348,-86.3263 428,-86.3263 428,-67.3263 348,-67.3263"/>
<text text-anchor="middle" x="388" y="-74.3263" font-family="Helvetica,sans-Serif" font-size="10.00">parse_expr_s4</text>
</a>
</g>
</g>
<!-- Node3&#45;&gt;Node5 -->
<g id="edge4" class="edge"><title>Node3&#45;&gt;Node5</title>
<path fill="none" stroke="midnightblue" d="M312.232,-76.8263C320.383,-76.8263 329.072,-76.8263 337.535,-76.8263"/>
<polygon fill="midnightblue" stroke="midnightblue" points="337.695,-80.3264 347.695,-76.8263 337.695,-73.3264 337.695,-80.3264"/>
</g>
<!-- Node5&#45;&gt;Node4 -->
<g id="edge5" class="edge"><title>Node5&#45;&gt;Node4</title>
<path fill="none" stroke="midnightblue" d="M428.177,-81.4859C488.158,-88.6198 602.357,-102.202 664.891,-109.64"/>
<polygon fill="midnightblue" stroke="midnightblue" points="664.493,-113.117 674.837,-110.823 665.32,-106.166 664.493,-113.117"/>
</g>
<!-- Node6 -->
<g id="node6" class="node"><title>Node6</title>
<g id="a_node6"><a xlink:href="parser_8c.html#a4fe92c8d54d0ce4ec516d64f098ee056" target="_top" xlink:title="Search for relational operators. ">
<polygon fill="none" stroke="black" points="464,-29.3263 464,-48.3263 544,-48.3263 544,-29.3263 464,-29.3263"/>
<text text-anchor="middle" x="504" y="-36.3263" font-family="Helvetica,sans-Serif" font-size="10.00">parse_expr_s1</text>
</a>
</g>
</g>
<!-- Node5&#45;&gt;Node6 -->
<g id="edge6" class="edge"><title>Node5&#45;&gt;Node6</title>
<path fill="none" stroke="midnightblue" d="M417.767,-67.2373C431.943,-62.5119 449.237,-56.7474 464.532,-51.6489"/>
<polygon fill="midnightblue" stroke="midnightblue" points="465.862,-54.895 474.242,-48.4122 463.649,-48.2542 465.862,-54.895"/>
</g>
<!-- Node5&#45;&gt;Node7 -->
<g id="edge10" class="edge"><title>Node5&#45;&gt;Node7</title>
<path fill="none" stroke="midnightblue" d="M428.242,-73.4295C468.201,-69.9707 529.784,-64.64 569.613,-61.1924"/>
<polygon fill="midnightblue" stroke="midnightblue" points="570.078,-64.6653 579.739,-60.3159 569.474,-57.6914 570.078,-64.6653"/>
</g>
<!-- Node6&#45;&gt;Node2 -->
<g id="edge7" class="edge"><title>Node6&#45;&gt;Node2</title>
<path fill="none" stroke="midnightblue" d="M463.859,-38.8263C400.489,-38.8263 275.548,-38.8263 206.237,-38.8263"/>
<polygon fill="midnightblue" stroke="midnightblue" points="206.018,-35.3264 196.018,-38.8263 206.018,-42.3264 206.018,-35.3264"/>
</g>
<!-- Node6&#45;&gt;Node7 -->
<g id="edge8" class="edge"><title>Node6&#45;&gt;Node7</title>
<path fill="none" stroke="midnightblue" d="M544.129,-46.0094C552.594,-47.5634 561.539,-49.2054 569.98,-50.7551"/>
<polygon fill="midnightblue" stroke="midnightblue" points="569.494,-54.2241 579.961,-52.5873 570.758,-47.3392 569.494,-54.2241"/>
</g>
<!-- Node7&#45;&gt;Node4 -->
<g id="edge9" class="edge"><title>Node7&#45;&gt;Node4</title>
<path fill="none" stroke="midnightblue" d="M627.124,-67.4956C642.563,-76.4754 665.764,-89.9697 683.447,-100.255"/>
<polygon fill="midnightblue" stroke="midnightblue" points="681.717,-103.298 692.121,-105.3 685.237,-97.2466 681.717,-103.298"/>
</g>
</g>
</svg>
