<?xml version="1.0" encoding="UTF-8" standalone="no"?>
<!DOCTYPE svg PUBLIC "-//W3C//DTD SVG 1.1//EN"
 "http://www.w3.org/Graphics/SVG/1.1/DTD/svg11.dtd">
<!-- Generated by graphviz version 2.38.0 (20140413.2041)
 -->
<!-- Title: parse_expr_s1 Pages: 1 -->
<svg width="636pt" height="104pt"
 viewBox="0.00 0.00 636.00 104.00" xmlns="http://www.w3.org/2000/svg" xmlns:xlink="http://www.w3.org/1999/xlink">
<g id="graph0" class="graph" transform="scale(1 1) rotate(0) translate(4 100)">
<title>parse_expr_s1</title>
<!-- Node1 -->
<g id="node1" class="node"><title>Node1</title>
<polygon fill="#bfbfbf" stroke="black" points="0,-38.5 0,-57.5 80,-57.5 80,-38.5 0,-38.5"/>
<text text-anchor="middle" x="40" y="-45.5" font-family="Helvetica,sans-Serif" font-size="10.00">parse_expr_s1</text>
</g>
<!-- Node2 -->
<g id="node2" class="node"><title>Node2</title>
<g id="a_node2"><a xlink:href="parser_8c.html#aaa34262580f9ec1997162ce62c1dcb94" target="_top" xlink:title="Search for subtraction or addition operators. ">
<polygon fill="none" stroke="black" points="116,-76.5 116,-95.5 196,-95.5 196,-76.5 116,-76.5"/>
<text text-anchor="middle" x="156" y="-83.5" font-family="Helvetica,sans-Serif" font-size="10.00">parse_expr_s2</text>
</a>
</g>
</g>
<!-- Node1&#45;&gt;Node2 -->
<g id="edge1" class="edge"><title>Node1&#45;&gt;Node2</title>
<path fill="none" stroke="midnightblue" d="M69.767,-57.589C83.9433,-62.3144 101.237,-68.0789 116.532,-73.1774"/>
<polygon fill="midnightblue" stroke="midnightblue" points="115.649,-76.5721 126.242,-76.4141 117.862,-69.9313 115.649,-76.5721"/>
</g>
<!-- Node6 -->
<g id="node6" class="node"><title>Node6</title>
<g id="a_node6"><a xlink:href="parser_8c.html#ad7ccacd8a08ca721b55ce29bf016a849" target="_top" xlink:title="Search for any string in specified table. ">
<polygon fill="none" stroke="black" points="464,-0.5 464,-19.5 523,-19.5 523,-0.5 464,-0.5"/>
<text text-anchor="middle" x="493.5" y="-7.5" font-family="Helvetica,sans-Serif" font-size="10.00">scantable</text>
</a>
</g>
</g>
<!-- Node1&#45;&gt;Node6 -->
<g id="edge9" class="edge"><title>Node1&#45;&gt;Node6</title>
<path fill="none" stroke="midnightblue" d="M80.2778,-44.6942C165.955,-37.4833 368.757,-20.4147 453.854,-13.2526"/>
<polygon fill="midnightblue" stroke="midnightblue" points="454.2,-16.7359 463.871,-12.4095 453.613,-9.76061 454.2,-16.7359"/>
</g>
<!-- Node3 -->
<g id="node3" class="node"><title>Node3</title>
<g id="a_node3"><a xlink:href="parser_8c.html#ae642e2964ae1b7ad02e9f31475d6167b" target="_top" xlink:title="Search for multiplication or division operators. ">
<polygon fill="none" stroke="black" points="232,-76.5 232,-95.5 312,-95.5 312,-76.5 232,-76.5"/>
<text text-anchor="middle" x="272" y="-83.5" font-family="Helvetica,sans-Serif" font-size="10.00">parse_expr_s3</text>
</a>
</g>
</g>
<!-- Node2&#45;&gt;Node3 -->
<g id="edge2" class="edge"><title>Node2&#45;&gt;Node3</title>
<path fill="none" stroke="midnightblue" d="M196.232,-86C204.383,-86 213.072,-86 221.535,-86"/>
<polygon fill="midnightblue" stroke="midnightblue" points="221.695,-89.5001 231.695,-86 221.695,-82.5001 221.695,-89.5001"/>
</g>
<!-- Node4 -->
<g id="node4" class="node"><title>Node4</title>
<g id="a_node4"><a xlink:href="parser_8c.html#ad38a783e0f6ac48469c7e9ff1175f217" target="_top" xlink:title="Search for numbers, variables or functions. ">
<polygon fill="none" stroke="black" points="348,-38.5 348,-57.5 428,-57.5 428,-38.5 348,-38.5"/>
<text text-anchor="middle" x="388" y="-45.5" font-family="Helvetica,sans-Serif" font-size="10.00">parse_expr_s4</text>
</a>
</g>
</g>
<!-- Node3&#45;&gt;Node4 -->
<g id="edge3" class="edge"><title>Node3&#45;&gt;Node4</title>
<path fill="none" stroke="midnightblue" d="M301.767,-76.411C315.943,-71.6856 333.237,-65.9211 348.532,-60.8226"/>
<polygon fill="midnightblue" stroke="midnightblue" points="349.862,-64.0687 358.242,-57.5859 347.649,-57.4279 349.862,-64.0687"/>
</g>
<!-- Node5 -->
<g id="node5" class="node"><title>Node5</title>
<g id="a_node5"><a xlink:href="main_8c.html#ae363da215544e897ef8e44a64dabce48" target="_top" xlink:title="Ignore whitespace characters. ">
<polygon fill="none" stroke="black" points="559,-38.5 559,-57.5 628,-57.5 628,-38.5 559,-38.5"/>
<text text-anchor="middle" x="593.5" y="-45.5" font-family="Helvetica,sans-Serif" font-size="10.00">ignorespace</text>
</a>
</g>
</g>
<!-- Node3&#45;&gt;Node5 -->
<g id="edge8" class="edge"><title>Node3&#45;&gt;Node5</title>
<path fill="none" stroke="midnightblue" d="M312.124,-83.4977C361.462,-80.0545 448.816,-73.0028 523,-62 531.401,-60.754 540.322,-59.1626 548.873,-57.5026"/>
<polygon fill="midnightblue" stroke="midnightblue" points="549.568,-60.9329 558.687,-55.5388 548.195,-54.0689 549.568,-60.9329"/>
</g>
<!-- Node4&#45;&gt;Node1 -->
<g id="edge7" class="edge"><title>Node4&#45;&gt;Node1</title>
<path fill="none" stroke="midnightblue" d="M347.859,-48C284.489,-48 159.548,-48 90.2366,-48"/>
<polygon fill="midnightblue" stroke="midnightblue" points="90.0181,-44.5001 80.018,-48 90.018,-51.5001 90.0181,-44.5001"/>
</g>
<!-- Node4&#45;&gt;Node5 -->
<g id="edge4" class="edge"><title>Node4&#45;&gt;Node5</title>
<path fill="none" stroke="midnightblue" d="M428.237,-48C462.716,-48 512.833,-48 548.629,-48"/>
<polygon fill="midnightblue" stroke="midnightblue" points="548.782,-51.5001 558.782,-48 548.782,-44.5001 548.782,-51.5001"/>
</g>
<!-- Node4&#45;&gt;Node6 -->
<g id="edge5" class="edge"><title>Node4&#45;&gt;Node6</title>
<path fill="none" stroke="midnightblue" d="M415.117,-38.411C427.743,-33.7756 443.091,-28.1404 456.78,-23.1147"/>
<polygon fill="midnightblue" stroke="midnightblue" points="458.21,-26.3181 466.391,-19.5859 455.797,-19.747 458.21,-26.3181"/>
</g>
<!-- Node6&#45;&gt;Node5 -->
<g id="edge6" class="edge"><title>Node6&#45;&gt;Node5</title>
<path fill="none" stroke="midnightblue" d="M519.23,-19.589C531.068,-24.1794 545.435,-29.7503 558.3,-34.7388"/>
<polygon fill="midnightblue" stroke="midnightblue" points="557.189,-38.062 567.778,-38.4141 559.72,-31.5355 557.189,-38.062"/>
</g>
</g>
</svg>
