<?xml version="1.0" encoding="UTF-8" standalone="no"?>
<!DOCTYPE svg PUBLIC "-//W3C//DTD SVG 1.1//EN"
 "http://www.w3.org/Graphics/SVG/1.1/DTD/svg11.dtd">
<!-- Generated by graphviz version 2.38.0 (20140413.2041)
 -->
<!-- Title: parse_expr_s2 Pages: 1 -->
<svg width="636pt" height="104pt"
 viewBox="0.00 0.00 636.00 104.00" xmlns="http://www.w3.org/2000/svg" xmlns:xlink="http://www.w3.org/1999/xlink">
<g id="graph0" class="graph" transform="scale(1 1) rotate(0) translate(4 100)">
<title>parse_expr_s2</title>
<!-- Node1 -->
<g id="node1" class="node"><title>Node1</title>
<polygon fill="#bfbfbf" stroke="black" points="0,-19.5 0,-38.5 80,-38.5 80,-19.5 0,-19.5"/>
<text text-anchor="middle" x="40" y="-26.5" font-family="Helvetica,sans-Serif" font-size="10.00">parse_expr_s2</text>
</g>
<!-- Node2 -->
<g id="node2" class="node"><title>Node2</title>
<g id="a_node2"><a xlink:href="parser_8c.html#ae642e2964ae1b7ad02e9f31475d6167b" target="_top" xlink:title="Search for multiplication or division operators. ">
<polygon fill="none" stroke="black" points="116,-38.5 116,-57.5 196,-57.5 196,-38.5 116,-38.5"/>
<text text-anchor="middle" x="156" y="-45.5" font-family="Helvetica,sans-Serif" font-size="10.00">parse_expr_s3</text>
</a>
</g>
</g>
<!-- Node1&#45;&gt;Node2 -->
<g id="edge1" class="edge"><title>Node1&#45;&gt;Node2</title>
<path fill="none" stroke="midnightblue" d="M80.2323,-35.5387C88.4723,-36.9121 97.2628,-38.3771 105.814,-39.8023"/>
<polygon fill="midnightblue" stroke="midnightblue" points="105.256,-43.2575 115.695,-41.4492 106.407,-36.3528 105.256,-43.2575"/>
</g>
<!-- Node3 -->
<g id="node3" class="node"><title>Node3</title>
<g id="a_node3"><a xlink:href="parser_8c.html#ad38a783e0f6ac48469c7e9ff1175f217" target="_top" xlink:title="Search for numbers, variables or functions. ">
<polygon fill="none" stroke="black" points="232,-38.5 232,-57.5 312,-57.5 312,-38.5 232,-38.5"/>
<text text-anchor="middle" x="272" y="-45.5" font-family="Helvetica,sans-Serif" font-size="10.00">parse_expr_s4</text>
</a>
</g>
</g>
<!-- Node2&#45;&gt;Node3 -->
<g id="edge2" class="edge"><title>Node2&#45;&gt;Node3</title>
<path fill="none" stroke="midnightblue" d="M196.232,-48C204.383,-48 213.072,-48 221.535,-48"/>
<polygon fill="midnightblue" stroke="midnightblue" points="221.695,-51.5001 231.695,-48 221.695,-44.5001 221.695,-51.5001"/>
</g>
<!-- Node4 -->
<g id="node4" class="node"><title>Node4</title>
<g id="a_node4"><a xlink:href="main_8c.html#ae363da215544e897ef8e44a64dabce48" target="_top" xlink:title="Ignore whitespace characters. ">
<polygon fill="none" stroke="black" points="559,-76.5 559,-95.5 628,-95.5 628,-76.5 559,-76.5"/>
<text text-anchor="middle" x="593.5" y="-83.5" font-family="Helvetica,sans-Serif" font-size="10.00">ignorespace</text>
</a>
</g>
</g>
<!-- Node2&#45;&gt;Node4 -->
<g id="edge9" class="edge"><title>Node2&#45;&gt;Node4</title>
<path fill="none" stroke="midnightblue" d="M190.76,-57.5957C203.588,-60.9659 218.388,-64.525 232,-67 359.716,-90.2217 393.311,-97.5877 523,-92 531.344,-91.6405 540.236,-91.0393 548.775,-90.3527"/>
<polygon fill="midnightblue" stroke="midnightblue" points="549.289,-93.8216 558.955,-89.4833 548.694,-86.847 549.289,-93.8216"/>
</g>
<!-- Node3&#45;&gt;Node4 -->
<g id="edge3" class="edge"><title>Node3&#45;&gt;Node4</title>
<path fill="none" stroke="midnightblue" d="M312.208,-55.9823C323.708,-58.1434 336.329,-60.341 348,-62 417.83,-71.9257 499.467,-79.0425 548.519,-82.8377"/>
<polygon fill="midnightblue" stroke="midnightblue" points="548.536,-86.349 558.773,-83.6193 549.068,-79.3693 548.536,-86.349"/>
</g>
<!-- Node5 -->
<g id="node5" class="node"><title>Node5</title>
<g id="a_node5"><a xlink:href="parser_8c.html#ad7ccacd8a08ca721b55ce29bf016a849" target="_top" xlink:title="Search for any string in specified table. ">
<polygon fill="none" stroke="black" points="464,-38.5 464,-57.5 523,-57.5 523,-38.5 464,-38.5"/>
<text text-anchor="middle" x="493.5" y="-45.5" font-family="Helvetica,sans-Serif" font-size="10.00">scantable</text>
</a>
</g>
</g>
<!-- Node3&#45;&gt;Node5 -->
<g id="edge4" class="edge"><title>Node3&#45;&gt;Node5</title>
<path fill="none" stroke="midnightblue" d="M312.242,-48C352.201,-48 413.784,-48 453.613,-48"/>
<polygon fill="midnightblue" stroke="midnightblue" points="453.739,-51.5001 463.739,-48 453.739,-44.5001 453.739,-51.5001"/>
</g>
<!-- Node6 -->
<g id="node6" class="node"><title>Node6</title>
<g id="a_node6"><a xlink:href="parser_8c.html#a4fe92c8d54d0ce4ec516d64f098ee056" target="_top" xlink:title="Search for relational operators. ">
<polygon fill="none" stroke="black" points="348,-0.5 348,-19.5 428,-19.5 428,-0.5 348,-0.5"/>
<text text-anchor="middle" x="388" y="-7.5" font-family="Helvetica,sans-Serif" font-size="10.00">parse_expr_s1</text>
</a>
</g>
</g>
<!-- Node3&#45;&gt;Node6 -->
<g id="edge6" class="edge"><title>Node3&#45;&gt;Node6</title>
<path fill="none" stroke="midnightblue" d="M301.767,-38.411C315.943,-33.6856 333.237,-27.9211 348.532,-22.8226"/>
<polygon fill="midnightblue" stroke="midnightblue" points="349.862,-26.0687 358.242,-19.5859 347.649,-19.4279 349.862,-26.0687"/>
</g>
<!-- Node5&#45;&gt;Node4 -->
<g id="edge5" class="edge"><title>Node5&#45;&gt;Node4</title>
<path fill="none" stroke="midnightblue" d="M519.23,-57.589C531.068,-62.1794 545.435,-67.7503 558.3,-72.7388"/>
<polygon fill="midnightblue" stroke="midnightblue" points="557.189,-76.062 567.778,-76.4141 559.72,-69.5355 557.189,-76.062"/>
</g>
<!-- Node6&#45;&gt;Node1 -->
<g id="edge7" class="edge"><title>Node6&#45;&gt;Node1</title>
<path fill="none" stroke="midnightblue" d="M347.859,-12.1493C284.489,-15.6292 159.548,-22.4901 90.2366,-26.2963"/>
<polygon fill="midnightblue" stroke="midnightblue" points="89.811,-22.8143 80.018,-26.8574 90.1949,-29.8037 89.811,-22.8143"/>
</g>
<!-- Node6&#45;&gt;Node5 -->
<g id="edge8" class="edge"><title>Node6&#45;&gt;Node5</title>
<path fill="none" stroke="midnightblue" d="M415.117,-19.589C427.743,-24.2244 443.091,-29.8596 456.78,-34.8853"/>
<polygon fill="midnightblue" stroke="midnightblue" points="455.797,-38.253 466.391,-38.4141 458.21,-31.6819 455.797,-38.253"/>
</g>
</g>
</svg>
