<?xml version="1.0" encoding="UTF-8" standalone="no"?>
<!DOCTYPE svg PUBLIC "-//W3C//DTD SVG 1.1//EN"
 "http://www.w3.org/Graphics/SVG/1.1/DTD/svg11.dtd">
<!-- Generated by graphviz version 2.38.0 (20140413.2041)
 -->
<!-- Title: parse_expr_s2 Pages: 1 -->
<svg width="510pt" height="85pt"
 viewBox="0.00 0.00 510.00 85.00" xmlns="http://www.w3.org/2000/svg" xmlns:xlink="http://www.w3.org/1999/xlink">
<g id="graph0" class="graph" transform="scale(1 1) rotate(0) translate(4 81)">
<title>parse_expr_s2</title>
<!-- Node1 -->
<g id="node1" class="node"><title>Node1</title>
<polygon fill="#bfbfbf" stroke="black" points="0,-0.5 0,-19.5 80,-19.5 80,-0.5 0,-0.5"/>
<text text-anchor="middle" x="40" y="-7.5" font-family="Helvetica,sans-Serif" font-size="10.00">parse_expr_s2</text>
</g>
<!-- Node2 -->
<g id="node2" class="node"><title>Node2</title>
<g id="a_node2"><a xlink:href="parser_8h.html#a4fe92c8d54d0ce4ec516d64f098ee056" target="_top" xlink:title="Search for relational operators. ">
<polygon fill="none" stroke="black" points="116,-19.5 116,-38.5 196,-38.5 196,-19.5 116,-19.5"/>
<text text-anchor="middle" x="156" y="-26.5" font-family="Helvetica,sans-Serif" font-size="10.00">parse_expr_s1</text>
</a>
</g>
</g>
<!-- Node1&#45;&gt;Node2 -->
<g id="edge1" class="edge"><title>Node1&#45;&gt;Node2</title>
<path fill="none" stroke="midnightblue" d="M90.1109,-18.1852C98.6608,-19.6101 107.452,-21.0754 115.695,-22.4492"/>
<polygon fill="midnightblue" stroke="midnightblue" points="90.6717,-14.7304 80.2323,-16.5387 89.5208,-21.6352 90.6717,-14.7304"/>
</g>
<!-- Node3 -->
<g id="node3" class="node"><title>Node3</title>
<g id="a_node3"><a xlink:href="interpreter_8c.html#ae0c498ea10540cc81b1388062c7cf86e" target="_top" xlink:title="Execute specified line. ">
<polygon fill="none" stroke="black" points="242.5,-57.5 242.5,-76.5 301.5,-76.5 301.5,-57.5 242.5,-57.5"/>
<text text-anchor="middle" x="272" y="-64.5" font-family="Helvetica,sans-Serif" font-size="10.00">execution</text>
</a>
</g>
</g>
<!-- Node2&#45;&gt;Node3 -->
<g id="edge2" class="edge"><title>Node2&#45;&gt;Node3</title>
<path fill="none" stroke="midnightblue" d="M195.478,-41.8259C210.774,-46.9247 228.067,-52.6891 242.242,-57.4141"/>
<polygon fill="midnightblue" stroke="midnightblue" points="196.361,-38.431 185.767,-38.589 194.147,-45.0717 196.361,-38.431"/>
</g>
<!-- Node6 -->
<g id="node6" class="node"><title>Node6</title>
<g id="a_node6"><a xlink:href="parser_8c.html#ad38a783e0f6ac48469c7e9ff1175f217" target="_top" xlink:title="Search for numbers, variables or functions. ">
<polygon fill="none" stroke="black" points="232,-19.5 232,-38.5 312,-38.5 312,-19.5 232,-19.5"/>
<text text-anchor="middle" x="272" y="-26.5" font-family="Helvetica,sans-Serif" font-size="10.00">parse_expr_s4</text>
</a>
</g>
</g>
<!-- Node2&#45;&gt;Node6 -->
<g id="edge5" class="edge"><title>Node2&#45;&gt;Node6</title>
<path fill="none" stroke="midnightblue" d="M206.39,-29C214.852,-29 223.542,-29 231.695,-29"/>
<polygon fill="midnightblue" stroke="midnightblue" points="206.232,-25.5001 196.232,-29 206.232,-32.5001 206.232,-25.5001"/>
</g>
<!-- Node4 -->
<g id="node4" class="node"><title>Node4</title>
<g id="a_node4"><a xlink:href="interpreter_8h.html#a08a98a5503e4f3e1a5a19222d425275a" target="_top" xlink:title="The interpreter main loop. ">
<polygon fill="none" stroke="black" points="358,-57.5 358,-76.5 418,-76.5 418,-57.5 358,-57.5"/>
<text text-anchor="middle" x="388" y="-64.5" font-family="Helvetica,sans-Serif" font-size="10.00">interpreter</text>
</a>
</g>
</g>
<!-- Node3&#45;&gt;Node4 -->
<g id="edge3" class="edge"><title>Node3&#45;&gt;Node4</title>
<path fill="none" stroke="midnightblue" d="M311.835,-67C326.9,-67 343.856,-67 357.846,-67"/>
<polygon fill="midnightblue" stroke="midnightblue" points="311.767,-63.5001 301.767,-67 311.767,-70.5001 311.767,-63.5001"/>
</g>
<!-- Node5 -->
<g id="node5" class="node"><title>Node5</title>
<g id="a_node5"><a xlink:href="main_8h.html#a840291bc02cba5474a4cb46a9b9566fe" target="_top" xlink:title="Program entry point – the main function. ">
<polygon fill="none" stroke="black" points="464,-57.5 464,-76.5 502,-76.5 502,-57.5 464,-57.5"/>
<text text-anchor="middle" x="483" y="-64.5" font-family="Helvetica,sans-Serif" font-size="10.00">main</text>
</a>
</g>
</g>
<!-- Node4&#45;&gt;Node5 -->
<g id="edge4" class="edge"><title>Node4&#45;&gt;Node5</title>
<path fill="none" stroke="midnightblue" d="M428.279,-67C440.6,-67 453.615,-67 463.748,-67"/>
<polygon fill="midnightblue" stroke="midnightblue" points="428.171,-63.5001 418.171,-67 428.171,-70.5001 428.171,-63.5001"/>
</g>
<!-- Node7 -->
<g id="node7" class="node"><title>Node7</title>
<g id="a_node7"><a xlink:href="parser_8c.html#ae642e2964ae1b7ad02e9f31475d6167b" target="_top" xlink:title="Search for multiplication or division operators. ">
<polygon fill="none" stroke="black" points="348,-0.5 348,-19.5 428,-19.5 428,-0.5 348,-0.5"/>
<text text-anchor="middle" x="388" y="-7.5" font-family="Helvetica,sans-Serif" font-size="10.00">parse_expr_s3</text>
</a>
</g>
</g>
<!-- Node6&#45;&gt;Node7 -->
<g id="edge6" class="edge"><title>Node6&#45;&gt;Node7</title>
<path fill="none" stroke="midnightblue" d="M322.111,-20.8148C330.661,-19.3899 339.452,-17.9246 347.695,-16.5508"/>
<polygon fill="midnightblue" stroke="midnightblue" points="321.521,-17.3648 312.232,-22.4613 322.672,-24.2696 321.521,-17.3648"/>
</g>
<!-- Node7&#45;&gt;Node1 -->
<g id="edge7" class="edge"><title>Node7&#45;&gt;Node1</title>
<path fill="none" stroke="midnightblue" d="M337.629,-10C268.246,-10 143.309,-10 80.018,-10"/>
<polygon fill="midnightblue" stroke="midnightblue" points="337.86,-13.5001 347.859,-10 337.859,-6.5001 337.86,-13.5001"/>
</g>
</g>
</svg>
