<?xml version="1.0" encoding="UTF-8" standalone="no"?>
<!DOCTYPE svg PUBLIC "-//W3C//DTD SVG 1.1//EN"
 "http://www.w3.org/Graphics/SVG/1.1/DTD/svg11.dtd">
<!-- Generated by graphviz version 2.38.0 (20140413.2041)
 -->
<!-- Title: parse_expr_s3 Pages: 1 -->
<!--zoomable 123 -->
<svg id="main" version="1.1" xmlns="http://www.w3.org/2000/svg" xmlns:xlink="http://www.w3.org/1999/xlink" xml:space="preserve" onload="init(evt)">
<style type="text/css"><![CDATA[
.edge:hover path { stroke: red; }
.edge:hover polygon { stroke: red; fill: red; }
]]></style>
<script type="text/javascript"><![CDATA[
var edges = document.getElementsByTagName('g');
if (edges && edges.length) {
  for (var i=0;i<edges.length;i++) {
    if (edges[i].id.substr(0,4)=='edge') {
      edges[i].setAttribute('class','edge');
    }
  }
}
]]></script>
        <defs>
                <circle id="rim" cx="0" cy="0" r="7"/>
                <circle id="rim2" cx="0" cy="0" r="3.5"/>
                <g id="zoomPlus">
                        <use xlink:href="#rim" fill="#404040">
                                <set attributeName="fill" to="#808080" begin="zoomplus.mouseover" end="zoomplus.mouseout"/>
                        </use>
                        <path d="M-4,0h8M0,-4v8" fill="none" stroke="white" stroke-width="1.5" pointer-events="none"/>
                </g>
                <g id="zoomMin">
                        <use xlink:href="#rim" fill="#404040">
                                <set attributeName="fill" to="#808080" begin="zoomminus.mouseover" end="zoomminus.mouseout"/>
                        </use>
                        <path d="M-4,0h8" fill="none" stroke="white" stroke-width="1.5" pointer-events="none"/>
                </g>
                <g id="dirArrow">
                        <path fill="none" stroke="white" stroke-width="1.5" d="M0,-3.0v7 M-2.5,-0.5L0,-3.0L2.5,-0.5"/>
                </g>
               <g id="resetDef">
                       <use xlink:href="#rim2" fill="#404040">
                               <set attributeName="fill" to="#808080" begin="reset.mouseover" end="reset.mouseout"/>
                       </use>
               </g>
        </defs>

<script type="text/javascript">
var viewWidth = 541;
var viewHeight = 123;
var sectionId = 'dynsection-9';
</script>
<script xlink:href="svgpan.js"/>
<svg id="graph" class="graph">
<g id="viewport">
<title>parse_expr_s3</title>
<!-- Node1 -->
<g id="node1" class="node"><title>Node1</title>
<polygon fill="#bfbfbf" stroke="black" points="0,-57.5 0,-76.5 80,-76.5 80,-57.5 0,-57.5"/>
<text text-anchor="middle" x="40" y="-64.5" font-family="Helvetica,sans-Serif" font-size="10.00">parse_expr_s3</text>
</g>
<!-- Node2 -->
<g id="node2" class="node"><title>Node2</title>
<g id="a_node2"><a xlink:href="main_8c.html#ae363da215544e897ef8e44a64dabce48" target="_top" xlink:title="Ignore whitespace characters. ">
<polygon fill="none" stroke="black" points="464,-95.5 464,-114.5 533,-114.5 533,-95.5 464,-95.5"/>
<text text-anchor="middle" x="498.5" y="-102.5" font-family="Helvetica,sans-Serif" font-size="10.00">ignorespace</text>
</a>
</g>
</g>
<!-- Node1&#45;&gt;Node2 -->
<g id="edge1" class="edge"><title>Node1&#45;&gt;Node2</title>
<path fill="none" stroke="midnightblue" d="M74.7603,-76.5957C87.5884,-79.9659 102.388,-83.525 116,-86 252.867,-110.886 289.018,-116.988 428,-111 436.344,-110.64 445.236,-110.039 453.775,-109.353"/>
<polygon fill="midnightblue" stroke="midnightblue" points="454.289,-112.822 463.955,-108.483 453.694,-105.847 454.289,-112.822"/>
</g>
<!-- Node3 -->
<g id="node3" class="node"><title>Node3</title>
<g id="a_node3"><a xlink:href="parser_8c.html#ad38a783e0f6ac48469c7e9ff1175f217" target="_top" xlink:title="Search for numbers, variables or functions. ">
<polygon fill="none" stroke="black" points="116,-57.5 116,-76.5 196,-76.5 196,-57.5 116,-57.5"/>
<text text-anchor="middle" x="156" y="-64.5" font-family="Helvetica,sans-Serif" font-size="10.00">parse_expr_s4</text>
</a>
</g>
</g>
<!-- Node1&#45;&gt;Node3 -->
<g id="edge2" class="edge"><title>Node1&#45;&gt;Node3</title>
<path fill="none" stroke="midnightblue" d="M80.2323,-67C88.3828,-67 97.0717,-67 105.535,-67"/>
<polygon fill="midnightblue" stroke="midnightblue" points="105.695,-70.5001 115.695,-67 105.695,-63.5001 105.695,-70.5001"/>
</g>
<!-- Node3&#45;&gt;Node2 -->
<g id="edge3" class="edge"><title>Node3&#45;&gt;Node2</title>
<path fill="none" stroke="midnightblue" d="M196.2,-75.0396C207.699,-77.2021 220.322,-79.3859 232,-81 309.795,-91.7525 401.108,-98.7952 453.839,-102.322"/>
<polygon fill="midnightblue" stroke="midnightblue" points="453.647,-105.817 463.855,-102.98 454.106,-98.8319 453.647,-105.817"/>
</g>
<!-- Node4 -->
<g id="node4" class="node"><title>Node4</title>
<g id="a_node4"><a xlink:href="parser_8c.html#ad7ccacd8a08ca721b55ce29bf016a849" target="_top" xlink:title="Search for any string in specified table. ">
<polygon fill="none" stroke="black" points="358.5,-57.5 358.5,-76.5 417.5,-76.5 417.5,-57.5 358.5,-57.5"/>
<text text-anchor="middle" x="388" y="-64.5" font-family="Helvetica,sans-Serif" font-size="10.00">scantable</text>
</a>
</g>
</g>
<!-- Node3&#45;&gt;Node4 -->
<g id="edge4" class="edge"><title>Node3&#45;&gt;Node4</title>
<path fill="none" stroke="midnightblue" d="M196.016,-67C238.433,-67 305.811,-67 348.159,-67"/>
<polygon fill="midnightblue" stroke="midnightblue" points="348.355,-70.5001 358.355,-67 348.355,-63.5001 348.355,-70.5001"/>
</g>
<!-- Node5 -->
<g id="node5" class="node"><title>Node5</title>
<g id="a_node5"><a xlink:href="parser_8c.html#a4fe92c8d54d0ce4ec516d64f098ee056" target="_top" xlink:title="Search for relational operators. ">
<polygon fill="none" stroke="black" points="232,-19.5 232,-38.5 312,-38.5 312,-19.5 232,-19.5"/>
<text text-anchor="middle" x="272" y="-26.5" font-family="Helvetica,sans-Serif" font-size="10.00">parse_expr_s1</text>
</a>
</g>
</g>
<!-- Node3&#45;&gt;Node5 -->
<g id="edge6" class="edge"><title>Node3&#45;&gt;Node5</title>
<path fill="none" stroke="midnightblue" d="M185.767,-57.411C199.943,-52.6856 217.237,-46.9211 232.532,-41.8226"/>
<polygon fill="midnightblue" stroke="midnightblue" points="233.862,-45.0687 242.242,-38.5859 231.649,-38.4279 233.862,-45.0687"/>
</g>
<!-- Node4&#45;&gt;Node2 -->
<g id="edge5" class="edge"><title>Node4&#45;&gt;Node2</title>
<path fill="none" stroke="midnightblue" d="M416.379,-76.589C429.743,-81.2694 446.017,-86.9692 460.472,-92.0315"/>
<polygon fill="midnightblue" stroke="midnightblue" points="459.535,-95.4118 470.13,-95.4141 461.849,-88.8053 459.535,-95.4118"/>
</g>
<!-- Node5&#45;&gt;Node4 -->
<g id="edge9" class="edge"><title>Node5&#45;&gt;Node4</title>
<path fill="none" stroke="midnightblue" d="M301.767,-38.589C315.943,-43.3144 333.237,-49.0789 348.532,-54.1774"/>
<polygon fill="midnightblue" stroke="midnightblue" points="347.649,-57.5721 358.242,-57.4141 349.862,-50.9313 347.649,-57.5721"/>
</g>
<!-- Node6 -->
<g id="node6" class="node"><title>Node6</title>
<g id="a_node6"><a xlink:href="parser_8c.html#aaa34262580f9ec1997162ce62c1dcb94" target="_top" xlink:title="Search for subtraction or addition operators. ">
<polygon fill="none" stroke="black" points="348,-0.5 348,-19.5 428,-19.5 428,-0.5 348,-0.5"/>
<text text-anchor="middle" x="388" y="-7.5" font-family="Helvetica,sans-Serif" font-size="10.00">parse_expr_s2</text>
</a>
</g>
</g>
<!-- Node5&#45;&gt;Node6 -->
<g id="edge7" class="edge"><title>Node5&#45;&gt;Node6</title>
<path fill="none" stroke="midnightblue" d="M312.232,-22.4613C320.472,-21.0879 329.263,-19.6229 337.814,-18.1977"/>
<polygon fill="midnightblue" stroke="midnightblue" points="338.407,-21.6472 347.695,-16.5508 337.256,-14.7425 338.407,-21.6472"/>
</g>
<!-- Node6&#45;&gt;Node1 -->
<g id="edge8" class="edge"><title>Node6&#45;&gt;Node1</title>
<path fill="none" stroke="midnightblue" d="M347.917,-6.89123C316.44,-5.13245 271.142,-4.28397 232,-10 175.264,-18.2853 111.958,-39.7239 74.3545,-53.8182"/>
<polygon fill="midnightblue" stroke="midnightblue" points="73.017,-50.5822 64.9124,-57.4061 75.5035,-57.1257 73.017,-50.5822"/>
</g>
</g>
</svg>
        <g id="navigator" transform="translate(0 0)" fill="#404254">
                <rect fill="#f2f5e9" fill-opacity="0.5" stroke="#606060" stroke-width=".5" x="0" y="0" width="60" height="60"/>
                <use id="zoomplus" xlink:href="#zoomPlus" x="17" y="9" onmousedown="handleZoom(evt,'in')"/>
                <use id="zoomminus" xlink:href="#zoomMin" x="42" y="9" onmousedown="handleZoom(evt,'out')"/>
                <use id="reset" xlink:href="#resetDef" x="30" y="36" onmousedown="handleReset()"/>
                <g id="arrowUp" xlink:href="#dirArrow" transform="translate(30 24)" onmousedown="handlePan(0,-1)">
                  <use xlink:href="#rim" fill="#404040">
                        <set attributeName="fill" to="#808080" begin="arrowUp.mouseover" end="arrowUp.mouseout"/>
                  </use>
                  <path fill="none" stroke="white" stroke-width="1.5" d="M0,-3.0v7 M-2.5,-0.5L0,-3.0L2.5,-0.5"/>
                </g>
                <g id="arrowRight" xlink:href="#dirArrow" transform="rotate(90) translate(36 -43)" onmousedown="handlePan(1,0)">
                  <use xlink:href="#rim" fill="#404040">
                        <set attributeName="fill" to="#808080" begin="arrowRight.mouseover" end="arrowRight.mouseout"/>
                  </use>
                  <path fill="none" stroke="white" stroke-width="1.5" d="M0,-3.0v7 M-2.5,-0.5L0,-3.0L2.5,-0.5"/>
                </g>
                <g id="arrowDown" xlink:href="#dirArrow" transform="rotate(180) translate(-30 -48)" onmousedown="handlePan(0,1)">
                  <use xlink:href="#rim" fill="#404040">
                        <set attributeName="fill" to="#808080" begin="arrowDown.mouseover" end="arrowDown.mouseout"/>
                  </use>
                  <path fill="none" stroke="white" stroke-width="1.5" d="M0,-3.0v7 M-2.5,-0.5L0,-3.0L2.5,-0.5"/>
                </g>
                <g id="arrowLeft" xlink:href="#dirArrow" transform="rotate(270) translate(-36 17)" onmousedown="handlePan(-1,0)">
                  <use xlink:href="#rim" fill="#404040">
                        <set attributeName="fill" to="#808080" begin="arrowLeft.mouseover" end="arrowLeft.mouseout"/>
                  </use>
                  <path fill="none" stroke="white" stroke-width="1.5" d="M0,-3.0v7 M-2.5,-0.5L0,-3.0L2.5,-0.5"/>
                </g>
        </g>
        <svg viewBox="0 0 15 15" width="100%" height="30px" preserveAspectRatio="xMaxYMin meet">
         <g id="arrow_out" transform="scale(0.3 0.3)">
          <a xlink:href="parser_8c_ae642e2964ae1b7ad02e9f31475d6167b_cgraph_org.svg" target="_base">
           <rect id="button" ry="5" rx="5" y="6" x="6" height="38" width="38"
                fill="#f2f5e9" fill-opacity="0.5" stroke="#606060" stroke-width="1.0"/>
           <path id="arrow"
             d="M 11.500037,31.436501 C 11.940474,20.09759 22.043105,11.32322 32.158766,21.979434 L 37.068811,17.246167 C 37.068811,17.246167 37.088388,32 37.088388,32 L 22.160133,31.978069 C 22.160133,31.978069 26.997745,27.140456 26.997745,27.140456 C 18.528582,18.264221 13.291696,25.230495 11.500037,31.436501 z"
             style="fill:#404040;"/>
          </a>
         </g>
        </svg>
</svg>
