<?xml version="1.0" encoding="UTF-8" standalone="no"?>
<!DOCTYPE svg PUBLIC "-//W3C//DTD SVG 1.1//EN"
 "http://www.w3.org/Graphics/SVG/1.1/DTD/svg11.dtd">
<!-- Generated by graphviz version 2.38.0 (20140413.2041)
 -->
<!-- Title: parse_expr_s4 Pages: 1 -->
<svg width="627pt" height="47pt"
 viewBox="0.00 0.00 627.00 47.00" xmlns="http://www.w3.org/2000/svg" xmlns:xlink="http://www.w3.org/1999/xlink">
<g id="graph0" class="graph" transform="scale(1 1) rotate(0) translate(4 43)">
<title>parse_expr_s4</title>
<!-- Node1 -->
<g id="node1" class="node"><title>Node1</title>
<polygon fill="#bfbfbf" stroke="black" points="0,-0.5 0,-19.5 80,-19.5 80,-0.5 0,-0.5"/>
<text text-anchor="middle" x="40" y="-7.5" font-family="Helvetica,sans-Serif" font-size="10.00">parse_expr_s4</text>
</g>
<!-- Node2 -->
<g id="node2" class="node"><title>Node2</title>
<g id="a_node2"><a xlink:href="parser_8c.html#ae642e2964ae1b7ad02e9f31475d6167b" target="_top" xlink:title="Search for multiplication or division operators. ">
<polygon fill="none" stroke="black" points="116,-19.5 116,-38.5 196,-38.5 196,-19.5 116,-19.5"/>
<text text-anchor="middle" x="156" y="-26.5" font-family="Helvetica,sans-Serif" font-size="10.00">parse_expr_s3</text>
</a>
</g>
</g>
<!-- Node1&#45;&gt;Node2 -->
<g id="edge1" class="edge"><title>Node1&#45;&gt;Node2</title>
<path fill="none" stroke="midnightblue" d="M90.1109,-18.1852C98.6608,-19.6101 107.452,-21.0754 115.695,-22.4492"/>
<polygon fill="midnightblue" stroke="midnightblue" points="90.6717,-14.7304 80.2323,-16.5387 89.5208,-21.6352 90.6717,-14.7304"/>
</g>
<!-- Node3 -->
<g id="node3" class="node"><title>Node3</title>
<g id="a_node3"><a xlink:href="parser_8c.html#aaa34262580f9ec1997162ce62c1dcb94" target="_top" xlink:title="Search for subtraction or addition operators. ">
<polygon fill="none" stroke="black" points="232,-19.5 232,-38.5 312,-38.5 312,-19.5 232,-19.5"/>
<text text-anchor="middle" x="272" y="-26.5" font-family="Helvetica,sans-Serif" font-size="10.00">parse_expr_s2</text>
</a>
</g>
</g>
<!-- Node2&#45;&gt;Node3 -->
<g id="edge2" class="edge"><title>Node2&#45;&gt;Node3</title>
<path fill="none" stroke="midnightblue" d="M206.39,-29C214.852,-29 223.542,-29 231.695,-29"/>
<polygon fill="midnightblue" stroke="midnightblue" points="206.232,-25.5001 196.232,-29 206.232,-32.5001 206.232,-25.5001"/>
</g>
<!-- Node4 -->
<g id="node4" class="node"><title>Node4</title>
<g id="a_node4"><a xlink:href="parser_8h.html#a4fe92c8d54d0ce4ec516d64f098ee056" target="_top" xlink:title="Search for relational operators. ">
<polygon fill="none" stroke="black" points="348,-0.5 348,-19.5 428,-19.5 428,-0.5 348,-0.5"/>
<text text-anchor="middle" x="388" y="-7.5" font-family="Helvetica,sans-Serif" font-size="10.00">parse_expr_s1</text>
</a>
</g>
</g>
<!-- Node3&#45;&gt;Node4 -->
<g id="edge3" class="edge"><title>Node3&#45;&gt;Node4</title>
<path fill="none" stroke="midnightblue" d="M322.111,-20.8148C330.661,-19.3899 339.452,-17.9246 347.695,-16.5508"/>
<polygon fill="midnightblue" stroke="midnightblue" points="321.521,-17.3648 312.232,-22.4613 322.672,-24.2696 321.521,-17.3648"/>
</g>
<!-- Node4&#45;&gt;Node1 -->
<g id="edge6" class="edge"><title>Node4&#45;&gt;Node1</title>
<path fill="none" stroke="midnightblue" d="M337.629,-10C268.246,-10 143.309,-10 80.018,-10"/>
<polygon fill="midnightblue" stroke="midnightblue" points="337.86,-13.5001 347.859,-10 337.859,-6.5001 337.86,-13.5001"/>
</g>
<!-- Node5 -->
<g id="node5" class="node"><title>Node5</title>
<g id="a_node5"><a xlink:href="interpreter_8c.html#ae0c498ea10540cc81b1388062c7cf86e" target="_top" xlink:title="Execute specified line. ">
<polygon fill="none" stroke="black" points="464,-0.5 464,-19.5 523,-19.5 523,-0.5 464,-0.5"/>
<text text-anchor="middle" x="493.5" y="-7.5" font-family="Helvetica,sans-Serif" font-size="10.00">execution</text>
</a>
</g>
</g>
<!-- Node4&#45;&gt;Node5 -->
<g id="edge4" class="edge"><title>Node4&#45;&gt;Node5</title>
<path fill="none" stroke="midnightblue" d="M438.34,-10C447.126,-10 456.005,-10 463.961,-10"/>
<polygon fill="midnightblue" stroke="midnightblue" points="438.129,-6.5001 428.129,-10 438.129,-13.5001 438.129,-6.5001"/>
</g>
<!-- Node6 -->
<g id="node6" class="node"><title>Node6</title>
<g id="a_node6"><a xlink:href="interpreter_8h.html#a08a98a5503e4f3e1a5a19222d425275a" target="_top" xlink:title="The interpreter main loop. ">
<polygon fill="none" stroke="red" points="559,-0.5 559,-19.5 619,-19.5 619,-0.5 559,-0.5"/>
<text text-anchor="middle" x="589" y="-7.5" font-family="Helvetica,sans-Serif" font-size="10.00">interpreter</text>
</a>
</g>
</g>
<!-- Node5&#45;&gt;Node6 -->
<g id="edge5" class="edge"><title>Node5&#45;&gt;Node6</title>
<path fill="none" stroke="midnightblue" d="M533.281,-10C541.876,-10 550.841,-10 558.968,-10"/>
<polygon fill="midnightblue" stroke="midnightblue" points="533.061,-6.5001 523.061,-10 533.061,-13.5001 533.061,-6.5001"/>
</g>
</g>
</svg>
