<?xml version="1.0" encoding="UTF-8" standalone="no"?>
<!DOCTYPE svg PUBLIC "-//W3C//DTD SVG 1.1//EN"
 "http://www.w3.org/Graphics/SVG/1.1/DTD/svg11.dtd">
<!-- Generated by graphviz version 2.38.0 (20140413.2041)
 -->
<!-- Title: printmsg Pages: 1 -->
<svg width="349pt" height="218pt"
 viewBox="0.00 0.00 349.00 218.00" xmlns="http://www.w3.org/2000/svg" xmlns:xlink="http://www.w3.org/1999/xlink">
<g id="graph0" class="graph" transform="scale(1 1) rotate(0) translate(4 214)">
<title>printmsg</title>
<!-- Node1 -->
<g id="node1" class="node"><title>Node1</title>
<polygon fill="#bfbfbf" stroke="black" points="0,-95.5 0,-114.5 54,-114.5 54,-95.5 0,-95.5"/>
<text text-anchor="middle" x="27" y="-102.5" font-family="Helvetica,sans-Serif" font-size="10.00">printmsg</text>
</g>
<!-- Node2 -->
<g id="node2" class="node"><title>Node2</title>
<g id="a_node2"><a xlink:href="interpreter_8h.html#ad8667f20f0a1f7689ba90c07ea0460af" target="_top" xlink:title="Initialization of language interpreter. ">
<polygon fill="none" stroke="black" points="208,-190.5 208,-209.5 266,-209.5 266,-190.5 208,-190.5"/>
<text text-anchor="middle" x="237" y="-197.5" font-family="Helvetica,sans-Serif" font-size="10.00">basic_init</text>
</a>
</g>
</g>
<!-- Node1&#45;&gt;Node2 -->
<g id="edge1" class="edge"><title>Node1&#45;&gt;Node2</title>
<path fill="none" stroke="midnightblue" d="M38.8867,-123.518C49.6707,-140.091 67.768,-163.624 90,-176 127.033,-196.615 176.98,-200.626 207.809,-200.873"/>
<polygon fill="midnightblue" stroke="midnightblue" points="41.6582,-121.347 33.4063,-114.702 35.7132,-125.042 41.6582,-121.347"/>
</g>
<!-- Node3 -->
<g id="node3" class="node"><title>Node3</title>
<g id="a_node3"><a xlink:href="main_8h.html#a840291bc02cba5474a4cb46a9b9566fe" target="_top" xlink:title="Program entry point – the main function. ">
<polygon fill="none" stroke="black" points="303,-152.5 303,-171.5 341,-171.5 341,-152.5 303,-152.5"/>
<text text-anchor="middle" x="322" y="-159.5" font-family="Helvetica,sans-Serif" font-size="10.00">main</text>
</a>
</g>
</g>
<!-- Node1&#45;&gt;Node3 -->
<g id="edge10" class="edge"><title>Node1&#45;&gt;Node3</title>
<path fill="none" stroke="midnightblue" d="M48.0554,-120.64C59.6473,-128.788 74.8915,-138.061 90,-143 165.922,-167.82 262.99,-165.573 302.764,-163.311"/>
<polygon fill="midnightblue" stroke="midnightblue" points="50.1022,-117.8 39.9657,-114.718 45.9674,-123.449 50.1022,-117.8"/>
</g>
<!-- Node4 -->
<g id="node4" class="node"><title>Node4</title>
<g id="a_node4"><a xlink:href="interpreter_8c.html#afe087d3248bda92aa0ace94a8d3839b8" target="_top" xlink:title="Print appropriate error mesage. ">
<polygon fill="none" stroke="black" points="90,-114.5 90,-133.5 171,-133.5 171,-114.5 90,-114.5"/>
<text text-anchor="middle" x="130.5" y="-121.5" font-family="Helvetica,sans-Serif" font-size="10.00">error_message</text>
</a>
</g>
</g>
<!-- Node1&#45;&gt;Node4 -->
<g id="edge3" class="edge"><title>Node1&#45;&gt;Node4</title>
<path fill="none" stroke="midnightblue" d="M64.2105,-111.778C72.4559,-113.322 81.2607,-114.97 89.6485,-116.54"/>
<polygon fill="midnightblue" stroke="midnightblue" points="64.6121,-108.293 54.1388,-109.893 63.324,-115.173 64.6121,-108.293"/>
</g>
<!-- Node6 -->
<g id="node6" class="node"><title>Node6</title>
<g id="a_node6"><a xlink:href="interpreter_8c.html#ae0c498ea10540cc81b1388062c7cf86e" target="_top" xlink:title="Execute specified line. ">
<polygon fill="none" stroke="black" points="101,-76.5 101,-95.5 160,-95.5 160,-76.5 101,-76.5"/>
<text text-anchor="middle" x="130.5" y="-83.5" font-family="Helvetica,sans-Serif" font-size="10.00">execution</text>
</a>
</g>
</g>
<!-- Node1&#45;&gt;Node6 -->
<g id="edge6" class="edge"><title>Node1&#45;&gt;Node6</title>
<path fill="none" stroke="midnightblue" d="M63.9716,-98.2664C76.1047,-95.9952 89.4724,-93.4929 100.952,-91.3439"/>
<polygon fill="midnightblue" stroke="midnightblue" points="63.324,-94.8267 54.1388,-100.107 64.6121,-101.707 63.324,-94.8267"/>
</g>
<!-- Node7 -->
<g id="node7" class="node"><title>Node7</title>
<g id="a_node7"><a xlink:href="io_8h.html#ac1d977279fb3e9ff3927d2e62e4737a2" target="_top" xlink:title="Keyboard data decoding. ">
<polygon fill="none" stroke="black" points="98.5,-0.5 98.5,-19.5 162.5,-19.5 162.5,-0.5 98.5,-0.5"/>
<text text-anchor="middle" x="130.5" y="-7.5" font-family="Helvetica,sans-Serif" font-size="10.00">kb_decode</text>
</a>
</g>
</g>
<!-- Node1&#45;&gt;Node7 -->
<g id="edge8" class="edge"><title>Node1&#45;&gt;Node7</title>
<path fill="none" stroke="midnightblue" d="M39.5514,-86.6303C50.7993,-69.9043 69.2053,-45.3877 90,-29 94.5424,-25.4203 99.8691,-22.2915 105.114,-19.6613"/>
<polygon fill="midnightblue" stroke="midnightblue" points="36.325,-85.1701 33.792,-95.4577 42.1876,-88.9951 36.325,-85.1701"/>
</g>
<!-- Node9 -->
<g id="node9" class="node"><title>Node9</title>
<g id="a_node9"><a xlink:href="interpreter_8c.html#ad441e17fe29b6b71e917f8ff03fd347c" target="_top" xlink:title="Perform a warm&#45;reset. ">
<polygon fill="none" stroke="black" points="96.5,-38.5 96.5,-57.5 164.5,-57.5 164.5,-38.5 96.5,-38.5"/>
<text text-anchor="middle" x="130.5" y="-45.5" font-family="Helvetica,sans-Serif" font-size="10.00">warm_reset</text>
</a>
</g>
</g>
<!-- Node1&#45;&gt;Node9 -->
<g id="edge11" class="edge"><title>Node1&#45;&gt;Node9</title>
<path fill="none" stroke="midnightblue" d="M51.58,-89.7694C63.0185,-82.5829 77.0551,-74.0567 90,-67 95.8797,-63.7948 102.385,-60.5481 108.39,-57.6671"/>
<polygon fill="midnightblue" stroke="midnightblue" points="49.6026,-86.8789 43.0341,-95.1919 53.353,-92.7895 49.6026,-86.8789"/>
</g>
<!-- Node2&#45;&gt;Node3 -->
<g id="edge2" class="edge"><title>Node2&#45;&gt;Node3</title>
<path fill="none" stroke="midnightblue" d="M268.305,-186.126C279.906,-180.814 292.768,-174.925 302.881,-170.295"/>
<polygon fill="midnightblue" stroke="midnightblue" points="266.58,-183.066 258.944,-190.411 269.494,-189.43 266.58,-183.066"/>
</g>
<!-- Node5 -->
<g id="node5" class="node"><title>Node5</title>
<g id="a_node5"><a xlink:href="interpreter_8h.html#a08a98a5503e4f3e1a5a19222d425275a" target="_top" xlink:title="The interpreter main loop. ">
<polygon fill="none" stroke="black" points="207,-95.5 207,-114.5 267,-114.5 267,-95.5 207,-95.5"/>
<text text-anchor="middle" x="237" y="-102.5" font-family="Helvetica,sans-Serif" font-size="10.00">interpreter</text>
</a>
</g>
</g>
<!-- Node4&#45;&gt;Node5 -->
<g id="edge4" class="edge"><title>Node4&#45;&gt;Node5</title>
<path fill="none" stroke="midnightblue" d="M180.93,-115.013C189.808,-113.398 198.796,-111.764 206.863,-110.298"/>
<polygon fill="midnightblue" stroke="midnightblue" points="180.22,-111.584 171.007,-116.817 181.472,-118.472 180.22,-111.584"/>
</g>
<!-- Node5&#45;&gt;Node3 -->
<g id="edge5" class="edge"><title>Node5&#45;&gt;Node3</title>
<path fill="none" stroke="midnightblue" d="M260.708,-120.595C275.559,-130.794 294.48,-143.788 307.128,-152.474"/>
<polygon fill="midnightblue" stroke="midnightblue" points="262.305,-117.445 252.08,-114.669 258.342,-123.216 262.305,-117.445"/>
</g>
<!-- Node6&#45;&gt;Node5 -->
<g id="edge7" class="edge"><title>Node6&#45;&gt;Node5</title>
<path fill="none" stroke="midnightblue" d="M169.953,-92.9914C182.112,-95.2023 195.346,-97.6083 206.752,-99.6822"/>
<polygon fill="midnightblue" stroke="midnightblue" points="170.52,-89.5372 160.055,-91.1918 169.268,-96.4243 170.52,-89.5372"/>
</g>
<!-- Node8 -->
<g id="node8" class="node"><title>Node8</title>
<g id="a_node8"><a xlink:href="io_8c.html#afea150fcd685610cb9f7672fce361e53" target="_top" xlink:title="ISR: Gather bits sent from the keyboard and form packets. ">
<polygon fill="none" stroke="black" points="220,-0.5 220,-19.5 254,-19.5 254,-0.5 220,-0.5"/>
<text text-anchor="middle" x="237" y="-7.5" font-family="Helvetica,sans-Serif" font-size="10.00">ISR</text>
</a>
</g>
</g>
<!-- Node7&#45;&gt;Node8 -->
<g id="edge9" class="edge"><title>Node7&#45;&gt;Node8</title>
<path fill="none" stroke="midnightblue" d="M172.576,-10C189.069,-10 207.12,-10 219.733,-10"/>
<polygon fill="midnightblue" stroke="midnightblue" points="172.571,-6.5001 162.571,-10 172.57,-13.5001 172.571,-6.5001"/>
</g>
<!-- Node9&#45;&gt;Node5 -->
<g id="edge12" class="edge"><title>Node9&#45;&gt;Node5</title>
<path fill="none" stroke="midnightblue" d="M161.306,-62.0194C164.596,-63.661 167.882,-65.3421 171,-67 188.197,-76.1437 207.395,-87.5165 220.439,-95.426"/>
<polygon fill="midnightblue" stroke="midnightblue" points="162.68,-58.7952 152.159,-57.5504 159.607,-65.0848 162.68,-58.7952"/>
</g>
</g>
</svg>
