<?xml version="1.0" encoding="UTF-8" standalone="no"?>
<!DOCTYPE svg PUBLIC "-//W3C//DTD SVG 1.1//EN"
 "http://www.w3.org/Graphics/SVG/1.1/DTD/svg11.dtd">
<!-- Generated by graphviz version 2.38.0 (20140413.2041)
 -->
<!-- Title: printnum Pages: 1 -->
<svg width="435pt" height="66pt"
 viewBox="0.00 0.00 435.00 66.00" xmlns="http://www.w3.org/2000/svg" xmlns:xlink="http://www.w3.org/1999/xlink">
<g id="graph0" class="graph" transform="scale(1 1) rotate(0) translate(4 62)">
<title>printnum</title>
<!-- Node1 -->
<g id="node1" class="node"><title>Node1</title>
<polygon fill="#bfbfbf" stroke="black" points="0,-19.5 0,-38.5 54,-38.5 54,-19.5 0,-19.5"/>
<text text-anchor="middle" x="27" y="-26.5" font-family="Helvetica,sans-Serif" font-size="10.00">printnum</text>
</g>
<!-- Node2 -->
<g id="node2" class="node"><title>Node2</title>
<g id="a_node2"><a xlink:href="interpreter_8h.html#ad8667f20f0a1f7689ba90c07ea0460af" target="_top" xlink:title="Initialization of language interpreter. ">
<polygon fill="none" stroke="black" points="187.5,-38.5 187.5,-57.5 245.5,-57.5 245.5,-38.5 187.5,-38.5"/>
<text text-anchor="middle" x="216.5" y="-45.5" font-family="Helvetica,sans-Serif" font-size="10.00">basic_init</text>
</a>
</g>
</g>
<!-- Node1&#45;&gt;Node2 -->
<g id="edge1" class="edge"><title>Node1&#45;&gt;Node2</title>
<path fill="none" stroke="midnightblue" d="M64.1242,-32.6606C100.019,-36.2979 154.325,-41.801 187.201,-45.1324"/>
<polygon fill="midnightblue" stroke="midnightblue" points="64.373,-29.168 54.0711,-31.6419 63.6672,-36.1323 64.373,-29.168"/>
</g>
<!-- Node4 -->
<g id="node4" class="node"><title>Node4</title>
<g id="a_node4"><a xlink:href="printing_8h.html#a8788c3947bf9ede0778e41c57171473a" target="_top" xlink:title="Print a program line. ">
<polygon fill="none" stroke="black" points="90,-0.5 90,-19.5 140,-19.5 140,-0.5 90,-0.5"/>
<text text-anchor="middle" x="115" y="-7.5" font-family="Helvetica,sans-Serif" font-size="10.00">printline</text>
</a>
</g>
</g>
<!-- Node1&#45;&gt;Node4 -->
<g id="edge3" class="edge"><title>Node1&#45;&gt;Node4</title>
<path fill="none" stroke="midnightblue" d="M64.2063,-21.0009C72.8939,-19.0816 81.961,-17.0784 89.9406,-15.3155"/>
<polygon fill="midnightblue" stroke="midnightblue" points="63.2796,-17.6212 54.2701,-23.1961 64.7897,-24.4564 63.2796,-17.6212"/>
</g>
<!-- Node3 -->
<g id="node3" class="node"><title>Node3</title>
<g id="a_node3"><a xlink:href="main_8h.html#a840291bc02cba5474a4cb46a9b9566fe" target="_top" xlink:title="Program entry point – the main function. ">
<polygon fill="none" stroke="black" points="389,-19.5 389,-38.5 427,-38.5 427,-19.5 389,-19.5"/>
<text text-anchor="middle" x="408" y="-26.5" font-family="Helvetica,sans-Serif" font-size="10.00">main</text>
</a>
</g>
</g>
<!-- Node2&#45;&gt;Node3 -->
<g id="edge2" class="edge"><title>Node2&#45;&gt;Node3</title>
<path fill="none" stroke="midnightblue" d="M255.931,-44.1467C296.473,-40.0819 358.607,-33.8521 388.999,-30.8048"/>
<polygon fill="midnightblue" stroke="midnightblue" points="255.471,-40.6752 245.87,-45.1555 256.169,-47.6403 255.471,-40.6752"/>
</g>
<!-- Node5 -->
<g id="node5" class="node"><title>Node5</title>
<g id="a_node5"><a xlink:href="interpreter_8c.html#afe087d3248bda92aa0ace94a8d3839b8" target="_top" xlink:title="Print appropriate error mesage. ">
<polygon fill="none" stroke="black" points="176,-0.5 176,-19.5 257,-19.5 257,-0.5 176,-0.5"/>
<text text-anchor="middle" x="216.5" y="-7.5" font-family="Helvetica,sans-Serif" font-size="10.00">error_message</text>
</a>
</g>
</g>
<!-- Node4&#45;&gt;Node5 -->
<g id="edge4" class="edge"><title>Node4&#45;&gt;Node5</title>
<path fill="none" stroke="midnightblue" d="M150.112,-10C158.358,-10 167.243,-10 175.724,-10"/>
<polygon fill="midnightblue" stroke="midnightblue" points="150.086,-6.5001 140.086,-10 150.086,-13.5001 150.086,-6.5001"/>
</g>
<!-- Node6 -->
<g id="node6" class="node"><title>Node6</title>
<g id="a_node6"><a xlink:href="interpreter_8h.html#a08a98a5503e4f3e1a5a19222d425275a" target="_top" xlink:title="The interpreter main loop. ">
<polygon fill="none" stroke="black" points="293,-0.5 293,-19.5 353,-19.5 353,-0.5 293,-0.5"/>
<text text-anchor="middle" x="323" y="-7.5" font-family="Helvetica,sans-Serif" font-size="10.00">interpreter</text>
</a>
</g>
</g>
<!-- Node5&#45;&gt;Node6 -->
<g id="edge5" class="edge"><title>Node5&#45;&gt;Node6</title>
<path fill="none" stroke="midnightblue" d="M267.216,-10C276.002,-10 284.883,-10 292.863,-10"/>
<polygon fill="midnightblue" stroke="midnightblue" points="267.007,-6.5001 257.007,-10 267.007,-13.5001 267.007,-6.5001"/>
</g>
<!-- Node6&#45;&gt;Node3 -->
<g id="edge6" class="edge"><title>Node6&#45;&gt;Node3</title>
<path fill="none" stroke="midnightblue" d="M362.804,-18.8829C371.954,-20.9773 381.279,-23.112 388.99,-24.8773"/>
<polygon fill="midnightblue" stroke="midnightblue" points="363.558,-15.465 353.029,-16.6453 361.996,-22.2885 363.558,-15.465"/>
</g>
</g>
</svg>
