<?xml version="1.0" encoding="UTF-8" standalone="no"?>
<!DOCTYPE svg PUBLIC "-//W3C//DTD SVG 1.1//EN"
 "http://www.w3.org/Graphics/SVG/1.1/DTD/svg11.dtd">
<!-- Generated by graphviz version 2.38.0 (20140413.2041)
 -->
<!-- Title: printmsg_noNL Pages: 1 -->
<svg width="468pt" height="218pt"
 viewBox="0.00 0.00 468.00 218.00" xmlns="http://www.w3.org/2000/svg" xmlns:xlink="http://www.w3.org/1999/xlink">
<g id="graph0" class="graph" transform="scale(1 1) rotate(0) translate(4 214)">
<title>printmsg_noNL</title>
<!-- Node1 -->
<g id="node1" class="node"><title>Node1</title>
<polygon fill="#bfbfbf" stroke="black" points="0,-142.5 0,-161.5 83,-161.5 83,-142.5 0,-142.5"/>
<text text-anchor="middle" x="41.5" y="-149.5" font-family="Helvetica,sans-Serif" font-size="10.00">printmsg_noNL</text>
</g>
<!-- Node2 -->
<g id="node2" class="node"><title>Node2</title>
<g id="a_node2"><a xlink:href="interpreter_8c.html#afe087d3248bda92aa0ace94a8d3839b8" target="_top" xlink:title="Print appropriate error mesage. ">
<polygon fill="none" stroke="black" points="209,-190.5 209,-209.5 290,-209.5 290,-190.5 209,-190.5"/>
<text text-anchor="middle" x="249.5" y="-197.5" font-family="Helvetica,sans-Serif" font-size="10.00">error_message</text>
</a>
</g>
</g>
<!-- Node1&#45;&gt;Node2 -->
<g id="edge1" class="edge"><title>Node1&#45;&gt;Node2</title>
<path fill="none" stroke="midnightblue" d="M92.9488,-163.755C128.676,-172.08 175.924,-183.089 208.935,-190.781"/>
<polygon fill="midnightblue" stroke="midnightblue" points="93.7324,-160.344 83.199,-161.483 92.1438,-167.161 93.7324,-160.344"/>
</g>
<!-- Node5 -->
<g id="node5" class="node"><title>Node5</title>
<g id="a_node5"><a xlink:href="printing_8h.html#aa66328790b870e8b5b77352e26dc1fe9" target="_top" xlink:title="Print selected message from FLASH (with new&#45;line) ">
<polygon fill="none" stroke="black" points="119,-114.5 119,-133.5 173,-133.5 173,-114.5 119,-114.5"/>
<text text-anchor="middle" x="146" y="-121.5" font-family="Helvetica,sans-Serif" font-size="10.00">printmsg</text>
</a>
</g>
</g>
<!-- Node1&#45;&gt;Node5 -->
<g id="edge4" class="edge"><title>Node1&#45;&gt;Node5</title>
<path fill="none" stroke="midnightblue" d="M87.2532,-139.775C98.068,-136.82 109.275,-133.759 118.906,-131.128"/>
<polygon fill="midnightblue" stroke="midnightblue" points="86.2122,-136.431 77.488,-142.442 88.0569,-143.183 86.2122,-136.431"/>
</g>
<!-- Node3 -->
<g id="node3" class="node"><title>Node3</title>
<g id="a_node3"><a xlink:href="interpreter_8h.html#a08a98a5503e4f3e1a5a19222d425275a" target="_top" xlink:title="The interpreter main loop. ">
<polygon fill="none" stroke="black" points="326,-133.5 326,-152.5 386,-152.5 386,-133.5 326,-133.5"/>
<text text-anchor="middle" x="356" y="-140.5" font-family="Helvetica,sans-Serif" font-size="10.00">interpreter</text>
</a>
</g>
</g>
<!-- Node2&#45;&gt;Node3 -->
<g id="edge2" class="edge"><title>Node2&#45;&gt;Node3</title>
<path fill="none" stroke="midnightblue" d="M280.306,-185.981C283.596,-184.339 286.882,-182.658 290,-181 307.197,-171.856 326.395,-160.484 339.439,-152.574"/>
<polygon fill="midnightblue" stroke="midnightblue" points="278.607,-182.915 271.159,-190.45 281.68,-189.205 278.607,-182.915"/>
</g>
<!-- Node4 -->
<g id="node4" class="node"><title>Node4</title>
<g id="a_node4"><a xlink:href="main_8h.html#a840291bc02cba5474a4cb46a9b9566fe" target="_top" xlink:title="Program entry point – the main function. ">
<polygon fill="none" stroke="black" points="422,-76.5 422,-95.5 460,-95.5 460,-76.5 422,-76.5"/>
<text text-anchor="middle" x="441" y="-83.5" font-family="Helvetica,sans-Serif" font-size="10.00">main</text>
</a>
</g>
</g>
<!-- Node3&#45;&gt;Node4 -->
<g id="edge3" class="edge"><title>Node3&#45;&gt;Node4</title>
<path fill="none" stroke="midnightblue" d="M379.708,-127.405C394.559,-117.206 413.48,-104.212 426.128,-95.5265"/>
<polygon fill="midnightblue" stroke="midnightblue" points="377.342,-124.784 371.08,-133.331 381.305,-130.555 377.342,-124.784"/>
</g>
<!-- Node5&#45;&gt;Node2 -->
<g id="edge7" class="edge"><title>Node5&#45;&gt;Node2</title>
<path fill="none" stroke="midnightblue" d="M162.94,-141.144C174.839,-153.292 191.925,-169.422 209,-181 214.165,-184.502 220.073,-187.71 225.72,-190.453"/>
<polygon fill="midnightblue" stroke="midnightblue" points="165.369,-138.621 155.922,-133.825 160.316,-143.465 165.369,-138.621"/>
</g>
<!-- Node5&#45;&gt;Node4 -->
<g id="edge12" class="edge"><title>Node5&#45;&gt;Node4</title>
<path fill="none" stroke="midnightblue" d="M182.856,-111.582C191.34,-109.044 200.418,-106.648 209,-105 287.245,-89.975 382.64,-86.8259 421.85,-86.1702"/>
<polygon fill="midnightblue" stroke="midnightblue" points="181.733,-108.265 173.234,-114.591 183.823,-114.946 181.733,-108.265"/>
</g>
<!-- Node6 -->
<g id="node6" class="node"><title>Node6</title>
<g id="a_node6"><a xlink:href="interpreter_8h.html#ad8667f20f0a1f7689ba90c07ea0460af" target="_top" xlink:title="Initialization of language interpreter. ">
<polygon fill="none" stroke="black" points="327,-38.5 327,-57.5 385,-57.5 385,-38.5 327,-38.5"/>
<text text-anchor="middle" x="356" y="-45.5" font-family="Helvetica,sans-Serif" font-size="10.00">basic_init</text>
</a>
</g>
</g>
<!-- Node5&#45;&gt;Node6 -->
<g id="edge5" class="edge"><title>Node5&#45;&gt;Node6</title>
<path fill="none" stroke="midnightblue" d="M162.706,-106.638C174.319,-94.9361 191.158,-80.1918 209,-72 247.285,-54.4225 296.436,-49.5165 326.818,-48.2605"/>
<polygon fill="midnightblue" stroke="midnightblue" points="159.923,-104.484 155.552,-114.135 164.988,-109.316 159.923,-104.484"/>
</g>
<!-- Node7 -->
<g id="node7" class="node"><title>Node7</title>
<g id="a_node7"><a xlink:href="interpreter_8c.html#ae0c498ea10540cc81b1388062c7cf86e" target="_top" xlink:title="Execute specified line. ">
<polygon fill="none" stroke="black" points="220,-152.5 220,-171.5 279,-171.5 279,-152.5 220,-152.5"/>
<text text-anchor="middle" x="249.5" y="-159.5" font-family="Helvetica,sans-Serif" font-size="10.00">execution</text>
</a>
</g>
</g>
<!-- Node5&#45;&gt;Node7 -->
<g id="edge8" class="edge"><title>Node5&#45;&gt;Node7</title>
<path fill="none" stroke="midnightblue" d="M182.039,-137.118C195.463,-142.144 210.515,-147.779 222.895,-152.414"/>
<polygon fill="midnightblue" stroke="midnightblue" points="183.205,-133.817 172.613,-133.589 180.751,-140.373 183.205,-133.817"/>
</g>
<!-- Node8 -->
<g id="node8" class="node"><title>Node8</title>
<g id="a_node8"><a xlink:href="io_8h.html#ac1d977279fb3e9ff3927d2e62e4737a2" target="_top" xlink:title="Keyboard data decoding. ">
<polygon fill="none" stroke="black" points="217.5,-0.5 217.5,-19.5 281.5,-19.5 281.5,-0.5 217.5,-0.5"/>
<text text-anchor="middle" x="249.5" y="-7.5" font-family="Helvetica,sans-Serif" font-size="10.00">kb_decode</text>
</a>
</g>
</g>
<!-- Node5&#45;&gt;Node8 -->
<g id="edge10" class="edge"><title>Node5&#45;&gt;Node8</title>
<path fill="none" stroke="midnightblue" d="M156.621,-105.545C167.435,-86.0634 186.46,-55.2854 209,-34 214.951,-28.3805 222.43,-23.429 229.275,-19.5053"/>
<polygon fill="midnightblue" stroke="midnightblue" points="153.537,-103.89 151.865,-114.352 159.697,-107.216 153.537,-103.89"/>
</g>
<!-- Node10 -->
<g id="node10" class="node"><title>Node10</title>
<g id="a_node10"><a xlink:href="interpreter_8c.html#ad441e17fe29b6b71e917f8ff03fd347c" target="_top" xlink:title="Perform a warm&#45;reset. ">
<polygon fill="none" stroke="black" points="215.5,-114.5 215.5,-133.5 283.5,-133.5 283.5,-114.5 215.5,-114.5"/>
<text text-anchor="middle" x="249.5" y="-121.5" font-family="Helvetica,sans-Serif" font-size="10.00">warm_reset</text>
</a>
</g>
</g>
<!-- Node5&#45;&gt;Node10 -->
<g id="edge13" class="edge"><title>Node5&#45;&gt;Node10</title>
<path fill="none" stroke="midnightblue" d="M183.187,-124C193.606,-124 204.919,-124 215.157,-124"/>
<polygon fill="midnightblue" stroke="midnightblue" points="183.139,-120.5 173.139,-124 183.139,-127.5 183.139,-120.5"/>
</g>
<!-- Node6&#45;&gt;Node4 -->
<g id="edge6" class="edge"><title>Node6&#45;&gt;Node4</title>
<path fill="none" stroke="midnightblue" d="M387.305,-61.8744C398.906,-67.1858 411.768,-73.0747 421.881,-77.7048"/>
<polygon fill="midnightblue" stroke="midnightblue" points="388.494,-58.5695 377.944,-57.589 385.58,-64.9342 388.494,-58.5695"/>
</g>
<!-- Node7&#45;&gt;Node3 -->
<g id="edge9" class="edge"><title>Node7&#45;&gt;Node3</title>
<path fill="none" stroke="midnightblue" d="M288.953,-155.009C301.112,-152.798 314.346,-150.392 325.752,-148.318"/>
<polygon fill="midnightblue" stroke="midnightblue" points="288.268,-151.576 279.055,-156.808 289.52,-158.463 288.268,-151.576"/>
</g>
<!-- Node9 -->
<g id="node9" class="node"><title>Node9</title>
<g id="a_node9"><a xlink:href="io_8c.html#afea150fcd685610cb9f7672fce361e53" target="_top" xlink:title="ISR: Gather bits sent from the keyboard and form packets. ">
<polygon fill="none" stroke="black" points="339,-0.5 339,-19.5 373,-19.5 373,-0.5 339,-0.5"/>
<text text-anchor="middle" x="356" y="-7.5" font-family="Helvetica,sans-Serif" font-size="10.00">ISR</text>
</a>
</g>
</g>
<!-- Node8&#45;&gt;Node9 -->
<g id="edge11" class="edge"><title>Node8&#45;&gt;Node9</title>
<path fill="none" stroke="midnightblue" d="M291.576,-10C308.069,-10 326.12,-10 338.733,-10"/>
<polygon fill="midnightblue" stroke="midnightblue" points="291.571,-6.5001 281.571,-10 291.57,-13.5001 291.571,-6.5001"/>
</g>
<!-- Node10&#45;&gt;Node3 -->
<g id="edge14" class="edge"><title>Node10&#45;&gt;Node3</title>
<path fill="none" stroke="midnightblue" d="M293.671,-131.849C304.446,-133.808 315.753,-135.864 325.682,-137.67"/>
<polygon fill="midnightblue" stroke="midnightblue" points="294.029,-128.357 283.564,-130.012 292.777,-135.244 294.029,-128.357"/>
</g>
</g>
</svg>
