<?xml version="1.0" encoding="UTF-8" standalone="no"?>
<!DOCTYPE svg PUBLIC "-//W3C//DTD SVG 1.1//EN"
 "http://www.w3.org/Graphics/SVG/1.1/DTD/svg11.dtd">
<!-- Generated by graphviz version 2.38.0 (20140413.2041)
 -->
<!-- Title: printline Pages: 1 -->
<svg width="246pt" height="85pt"
 viewBox="0.00 0.00 246.00 85.00" xmlns="http://www.w3.org/2000/svg" xmlns:xlink="http://www.w3.org/1999/xlink">
<g id="graph0" class="graph" transform="scale(1 1) rotate(0) translate(4 81)">
<title>printline</title>
<!-- Node1 -->
<g id="node1" class="node"><title>Node1</title>
<polygon fill="#bfbfbf" stroke="black" points="0,-38.5 0,-57.5 50,-57.5 50,-38.5 0,-38.5"/>
<text text-anchor="middle" x="25" y="-45.5" font-family="Helvetica,sans-Serif" font-size="10.00">printline</text>
</g>
<!-- Node2 -->
<g id="node2" class="node"><title>Node2</title>
<g id="a_node2"><a xlink:href="printing_8c.html#aa893fecf81f3b8383deb48439b24a27d" target="_top" xlink:title="Print a NEW LINE character. ">
<polygon fill="none" stroke="black" points="88,-57.5 88,-76.5 138,-76.5 138,-57.5 88,-57.5"/>
<text text-anchor="middle" x="113" y="-64.5" font-family="Helvetica,sans-Serif" font-size="10.00">newline</text>
</a>
</g>
</g>
<!-- Node1&#45;&gt;Node2 -->
<g id="edge1" class="edge"><title>Node1&#45;&gt;Node2</title>
<path fill="none" stroke="midnightblue" d="M50.4141,-53.3938C58.9291,-55.275 68.648,-57.4222 77.8096,-59.4463"/>
<polygon fill="midnightblue" stroke="midnightblue" points="77.3029,-62.9187 87.8225,-61.6585 78.813,-56.0835 77.3029,-62.9187"/>
</g>
<!-- Node3 -->
<g id="node3" class="node"><title>Node3</title>
<g id="a_node3"><a xlink:href="printing_8c.html#ad62df87f7908fc3dd518b4f9f2cba2d2" target="_top" xlink:title="Print specified integer number. ">
<polygon fill="none" stroke="black" points="86,-19.5 86,-38.5 140,-38.5 140,-19.5 86,-19.5"/>
<text text-anchor="middle" x="113" y="-26.5" font-family="Helvetica,sans-Serif" font-size="10.00">printnum</text>
</a>
</g>
</g>
<!-- Node1&#45;&gt;Node3 -->
<g id="edge2" class="edge"><title>Node1&#45;&gt;Node3</title>
<path fill="none" stroke="midnightblue" d="M50.4141,-42.6062C58.3378,-40.8556 67.3041,-38.8747 75.8937,-36.977"/>
<polygon fill="midnightblue" stroke="midnightblue" points="76.7094,-40.3812 85.7189,-34.8063 75.1993,-33.5461 76.7094,-40.3812"/>
</g>
<!-- Node4 -->
<g id="node4" class="node"><title>Node4</title>
<g id="a_node4"><a xlink:href="main_8c.html#adf3033740afb6eb9200e539dbf783239" target="_top" xlink:title="Pop a byte from the STACK. ">
<polygon fill="none" stroke="black" points="179,-38.5 179,-57.5 235,-57.5 235,-38.5 179,-38.5"/>
<text text-anchor="middle" x="207" y="-45.5" font-family="Helvetica,sans-Serif" font-size="10.00">pop_byte</text>
</a>
</g>
</g>
<!-- Node3&#45;&gt;Node4 -->
<g id="edge3" class="edge"><title>Node3&#45;&gt;Node4</title>
<path fill="none" stroke="midnightblue" d="M140.117,-34.3938C149.107,-36.2503 159.351,-38.3659 169.038,-40.3666"/>
<polygon fill="midnightblue" stroke="midnightblue" points="168.355,-43.7992 178.856,-42.3941 169.77,-36.9438 168.355,-43.7992"/>
</g>
<!-- Node5 -->
<g id="node5" class="node"><title>Node5</title>
<g id="a_node5"><a xlink:href="main_8c.html#a55596b0bb88dc1bd3952f30685e42564" target="_top" xlink:title="Push a byte in the STACK. ">
<polygon fill="none" stroke="black" points="176,-0.5 176,-19.5 238,-19.5 238,-0.5 176,-0.5"/>
<text text-anchor="middle" x="207" y="-7.5" font-family="Helvetica,sans-Serif" font-size="10.00">push_byte</text>
</a>
</g>
</g>
<!-- Node3&#45;&gt;Node5 -->
<g id="edge4" class="edge"><title>Node3&#45;&gt;Node5</title>
<path fill="none" stroke="midnightblue" d="M140.117,-23.6062C148.136,-21.9502 157.152,-20.0881 165.881,-18.2854"/>
<polygon fill="midnightblue" stroke="midnightblue" points="166.834,-21.6626 175.92,-16.2123 165.418,-14.8072 166.834,-21.6626"/>
</g>
</g>
</svg>
