<?xml version="1.0" encoding="UTF-8" standalone="no"?>
<!DOCTYPE svg PUBLIC "-//W3C//DTD SVG 1.1//EN"
 "http://www.w3.org/Graphics/SVG/1.1/DTD/svg11.dtd">
<!-- Generated by graphviz version 2.38.0 (20140413.2041)
 -->
<!-- Title: newline Pages: 1 -->
<svg width="435pt" height="256pt"
 viewBox="0.00 0.00 435.00 256.00" xmlns="http://www.w3.org/2000/svg" xmlns:xlink="http://www.w3.org/1999/xlink">
<g id="graph0" class="graph" transform="scale(1 1) rotate(0) translate(4 252)">
<title>newline</title>
<!-- Node1 -->
<g id="node1" class="node"><title>Node1</title>
<polygon fill="#bfbfbf" stroke="black" points="0,-76.5 0,-95.5 50,-95.5 50,-76.5 0,-76.5"/>
<text text-anchor="middle" x="25" y="-83.5" font-family="Helvetica,sans-Serif" font-size="10.00">newline</text>
</g>
<!-- Node2 -->
<g id="node2" class="node"><title>Node2</title>
<g id="a_node2"><a xlink:href="interpreter_8h.html#ad8667f20f0a1f7689ba90c07ea0460af" target="_top" xlink:title="Initialization of language interpreter. ">
<polygon fill="none" stroke="black" points="187.5,-228.5 187.5,-247.5 245.5,-247.5 245.5,-228.5 187.5,-228.5"/>
<text text-anchor="middle" x="216.5" y="-235.5" font-family="Helvetica,sans-Serif" font-size="10.00">basic_init</text>
</a>
</g>
</g>
<!-- Node1&#45;&gt;Node2 -->
<g id="edge1" class="edge"><title>Node1&#45;&gt;Node2</title>
<path fill="none" stroke="midnightblue" d="M42.9071,-102.861C54.7194,-114.44 70.9997,-130.006 86,-143 124.509,-176.358 134.152,-184.94 176,-214 183.25,-219.034 191.563,-224.174 198.686,-228.398"/>
<polygon fill="midnightblue" stroke="midnightblue" points="45.089,-100.097 35.5138,-95.5617 40.171,-105.078 45.089,-100.097"/>
</g>
<!-- Node4 -->
<g id="node4" class="node"><title>Node4</title>
<g id="a_node4"><a xlink:href="interpreter_8c.html#afe087d3248bda92aa0ace94a8d3839b8" target="_top" xlink:title="Print appropriate error mesage. ">
<polygon fill="none" stroke="black" points="176,-38.5 176,-57.5 257,-57.5 257,-38.5 176,-38.5"/>
<text text-anchor="middle" x="216.5" y="-45.5" font-family="Helvetica,sans-Serif" font-size="10.00">error_message</text>
</a>
</g>
</g>
<!-- Node1&#45;&gt;Node4 -->
<g id="edge3" class="edge"><title>Node1&#45;&gt;Node4</title>
<path fill="none" stroke="midnightblue" d="M59.8471,-74.2357C68.3144,-71.5832 77.4282,-68.9725 86,-67 115.784,-60.1461 150.019,-55.2495 175.805,-52.1454"/>
<polygon fill="midnightblue" stroke="midnightblue" points="58.7121,-70.9242 50.2754,-77.333 60.8672,-77.5843 58.7121,-70.9242"/>
</g>
<!-- Node6 -->
<g id="node6" class="node"><title>Node6</title>
<g id="a_node6"><a xlink:href="main_8h.html#af44d438dc813084f712e286e88697bca" target="_top" xlink:title="Get line(s) from EEPROM, SERIAL or STDIO. ">
<polygon fill="none" stroke="black" points="88,-0.5 88,-19.5 138,-19.5 138,-0.5 88,-0.5"/>
<text text-anchor="middle" x="113" y="-7.5" font-family="Helvetica,sans-Serif" font-size="10.00">get_line</text>
</a>
</g>
</g>
<!-- Node1&#45;&gt;Node6 -->
<g id="edge6" class="edge"><title>Node1&#45;&gt;Node6</title>
<path fill="none" stroke="midnightblue" d="M44.6626,-69.5075C61.9374,-54.2413 87.0256,-32.0704 101.196,-19.5473"/>
<polygon fill="midnightblue" stroke="midnightblue" points="42.0676,-67.1299 36.892,-76.3745 46.703,-72.3752 42.0676,-67.1299"/>
</g>
<!-- Node7 -->
<g id="node7" class="node"><title>Node7</title>
<g id="a_node7"><a xlink:href="printing_8h.html#a8788c3947bf9ede0778e41c57171473a" target="_top" xlink:title="Print a program line. ">
<polygon fill="none" stroke="black" points="88,-76.5 88,-95.5 138,-95.5 138,-76.5 88,-76.5"/>
<text text-anchor="middle" x="113" y="-83.5" font-family="Helvetica,sans-Serif" font-size="10.00">printline</text>
</a>
</g>
</g>
<!-- Node1&#45;&gt;Node7 -->
<g id="edge8" class="edge"><title>Node1&#45;&gt;Node7</title>
<path fill="none" stroke="midnightblue" d="M60.4455,-86C69.6172,-86 79.33,-86 87.8225,-86"/>
<polygon fill="midnightblue" stroke="midnightblue" points="60.4141,-82.5001 50.4141,-86 60.4141,-89.5001 60.4141,-82.5001"/>
</g>
<!-- Node8 -->
<g id="node8" class="node"><title>Node8</title>
<g id="a_node8"><a xlink:href="printing_8h.html#aa66328790b870e8b5b77352e26dc1fe9" target="_top" xlink:title="Print selected message from FLASH (with new&#45;line) ">
<polygon fill="none" stroke="black" points="86,-114.5 86,-133.5 140,-133.5 140,-114.5 86,-114.5"/>
<text text-anchor="middle" x="113" y="-121.5" font-family="Helvetica,sans-Serif" font-size="10.00">printmsg</text>
</a>
</g>
</g>
<!-- Node1&#45;&gt;Node8 -->
<g id="edge10" class="edge"><title>Node1&#45;&gt;Node8</title>
<path fill="none" stroke="midnightblue" d="M57.0193,-99.7062C68.0497,-104.58 80.2232,-109.959 90.3055,-114.414"/>
<polygon fill="midnightblue" stroke="midnightblue" points="58.2629,-96.4293 47.7014,-95.589 55.4337,-102.832 58.2629,-96.4293"/>
</g>
<!-- Node3 -->
<g id="node3" class="node"><title>Node3</title>
<g id="a_node3"><a xlink:href="main_8h.html#a840291bc02cba5474a4cb46a9b9566fe" target="_top" xlink:title="Program entry point – the main function. ">
<polygon fill="none" stroke="black" points="389,-190.5 389,-209.5 427,-209.5 427,-190.5 389,-190.5"/>
<text text-anchor="middle" x="408" y="-197.5" font-family="Helvetica,sans-Serif" font-size="10.00">main</text>
</a>
</g>
</g>
<!-- Node2&#45;&gt;Node3 -->
<g id="edge2" class="edge"><title>Node2&#45;&gt;Node3</title>
<path fill="none" stroke="midnightblue" d="M255.561,-232.077C282.805,-227.639 320.296,-221.124 353,-214 364.923,-211.403 378.191,-207.971 388.591,-205.155"/>
<polygon fill="midnightblue" stroke="midnightblue" points="254.969,-228.628 245.653,-233.674 256.083,-235.538 254.969,-228.628"/>
</g>
<!-- Node5 -->
<g id="node5" class="node"><title>Node5</title>
<g id="a_node5"><a xlink:href="interpreter_8h.html#a08a98a5503e4f3e1a5a19222d425275a" target="_top" xlink:title="The interpreter main loop. ">
<polygon fill="none" stroke="black" points="293,-76.5 293,-95.5 353,-95.5 353,-76.5 293,-76.5"/>
<text text-anchor="middle" x="323" y="-83.5" font-family="Helvetica,sans-Serif" font-size="10.00">interpreter</text>
</a>
</g>
</g>
<!-- Node4&#45;&gt;Node5 -->
<g id="edge4" class="edge"><title>Node4&#45;&gt;Node5</title>
<path fill="none" stroke="midnightblue" d="M253.574,-61.118C267.396,-66.1439 282.893,-71.7791 295.639,-76.4141"/>
<polygon fill="midnightblue" stroke="midnightblue" points="254.464,-57.7172 243.87,-57.589 252.072,-64.2958 254.464,-57.7172"/>
</g>
<!-- Node5&#45;&gt;Node3 -->
<g id="edge5" class="edge"><title>Node5&#45;&gt;Node3</title>
<path fill="none" stroke="midnightblue" d="M337.183,-104.107C354.978,-128.548 386.051,-171.227 399.941,-190.305"/>
<polygon fill="midnightblue" stroke="midnightblue" points="339.792,-101.744 331.077,-95.7196 334.133,-105.864 339.792,-101.744"/>
</g>
<!-- Node6&#45;&gt;Node5 -->
<g id="edge7" class="edge"><title>Node6&#45;&gt;Node5</title>
<path fill="none" stroke="midnightblue" d="M148.551,-9.07208C178.507,-9.52766 222.368,-13.2844 257,-29 281.328,-40.0401 303.25,-63.2848 314.35,-76.4246"/>
<polygon fill="midnightblue" stroke="midnightblue" points="148.198,-5.57098 138.186,-9.03755 148.174,-12.5709 148.198,-5.57098"/>
</g>
<!-- Node7&#45;&gt;Node4 -->
<g id="edge9" class="edge"><title>Node7&#45;&gt;Node4</title>
<path fill="none" stroke="midnightblue" d="M147.661,-73.3978C161.408,-68.2513 177.048,-62.3958 189.844,-57.6051"/>
<polygon fill="midnightblue" stroke="midnightblue" points="146.192,-70.2105 138.054,-76.9945 148.646,-76.7661 146.192,-70.2105"/>
</g>
<!-- Node8&#45;&gt;Node2 -->
<g id="edge11" class="edge"><title>Node8&#45;&gt;Node2</title>
<path fill="none" stroke="midnightblue" d="M123.621,-142.455C134.435,-161.937 153.46,-192.715 176,-214 181.951,-219.619 189.43,-224.571 196.275,-228.495"/>
<polygon fill="midnightblue" stroke="midnightblue" points="126.697,-140.784 118.865,-133.648 120.537,-144.11 126.697,-140.784"/>
</g>
<!-- Node8&#45;&gt;Node3 -->
<g id="edge19" class="edge"><title>Node8&#45;&gt;Node3</title>
<path fill="none" stroke="midnightblue" d="M140.072,-140.294C158.185,-157.961 156.499,-171.042 176,-181 247.675,-217.6 348.349,-208.609 388.964,-202.924"/>
<polygon fill="midnightblue" stroke="midnightblue" points="142.249,-137.548 132.427,-133.575 137.628,-142.805 142.249,-137.548"/>
</g>
<!-- Node8&#45;&gt;Node4 -->
<g id="edge16" class="edge"><title>Node8&#45;&gt;Node4</title>
<path fill="none" stroke="midnightblue" d="M136.406,-108.038C137.64,-107.033 138.846,-106.016 140,-105 157.463,-89.6292 157.207,-80.7133 176,-67 180.918,-63.4115 186.619,-60.2104 192.135,-57.5049"/>
<polygon fill="midnightblue" stroke="midnightblue" points="133.928,-105.528 128.124,-114.391 138.189,-111.082 133.928,-105.528"/>
</g>
<!-- Node9 -->
<g id="node9" class="node"><title>Node9</title>
<g id="a_node9"><a xlink:href="interpreter_8c.html#ae0c498ea10540cc81b1388062c7cf86e" target="_top" xlink:title="Execute specified line. ">
<polygon fill="none" stroke="black" points="187,-76.5 187,-95.5 246,-95.5 246,-76.5 187,-76.5"/>
<text text-anchor="middle" x="216.5" y="-83.5" font-family="Helvetica,sans-Serif" font-size="10.00">execution</text>
</a>
</g>
</g>
<!-- Node8&#45;&gt;Node9 -->
<g id="edge12" class="edge"><title>Node8&#45;&gt;Node9</title>
<path fill="none" stroke="midnightblue" d="M149.039,-110.882C162.463,-105.856 177.515,-100.221 189.895,-95.5859"/>
<polygon fill="midnightblue" stroke="midnightblue" points="147.751,-107.627 139.613,-114.411 150.205,-114.183 147.751,-107.627"/>
</g>
<!-- Node10 -->
<g id="node10" class="node"><title>Node10</title>
<g id="a_node10"><a xlink:href="interpreter_8c.html#ad441e17fe29b6b71e917f8ff03fd347c" target="_top" xlink:title="Perform a warm&#45;reset. ">
<polygon fill="none" stroke="black" points="182.5,-114.5 182.5,-133.5 250.5,-133.5 250.5,-114.5 182.5,-114.5"/>
<text text-anchor="middle" x="216.5" y="-121.5" font-family="Helvetica,sans-Serif" font-size="10.00">warm_reset</text>
</a>
</g>
</g>
<!-- Node8&#45;&gt;Node10 -->
<g id="edge14" class="edge"><title>Node8&#45;&gt;Node10</title>
<path fill="none" stroke="midnightblue" d="M150.187,-124C160.606,-124 171.919,-124 182.157,-124"/>
<polygon fill="midnightblue" stroke="midnightblue" points="150.139,-120.5 140.139,-124 150.139,-127.5 150.139,-120.5"/>
</g>
<!-- Node11 -->
<g id="node11" class="node"><title>Node11</title>
<g id="a_node11"><a xlink:href="io_8h.html#ac1d977279fb3e9ff3927d2e62e4737a2" target="_top" xlink:title="Keyboard data decoding. ">
<polygon fill="none" stroke="black" points="184.5,-152.5 184.5,-171.5 248.5,-171.5 248.5,-152.5 184.5,-152.5"/>
<text text-anchor="middle" x="216.5" y="-159.5" font-family="Helvetica,sans-Serif" font-size="10.00">kb_decode</text>
</a>
</g>
</g>
<!-- Node8&#45;&gt;Node11 -->
<g id="edge17" class="edge"><title>Node8&#45;&gt;Node11</title>
<path fill="none" stroke="midnightblue" d="M149.039,-137.118C162.463,-142.144 177.515,-147.779 189.895,-152.414"/>
<polygon fill="midnightblue" stroke="midnightblue" points="150.205,-133.817 139.613,-133.589 147.751,-140.373 150.205,-133.817"/>
</g>
<!-- Node9&#45;&gt;Node5 -->
<g id="edge13" class="edge"><title>Node9&#45;&gt;Node5</title>
<path fill="none" stroke="midnightblue" d="M256.318,-86C268.377,-86 281.46,-86 292.752,-86"/>
<polygon fill="midnightblue" stroke="midnightblue" points="256.055,-82.5001 246.055,-86 256.055,-89.5001 256.055,-82.5001"/>
</g>
<!-- Node10&#45;&gt;Node5 -->
<g id="edge15" class="edge"><title>Node10&#45;&gt;Node5</title>
<path fill="none" stroke="midnightblue" d="M253.574,-110.882C267.396,-105.856 282.893,-100.221 295.639,-95.5859"/>
<polygon fill="midnightblue" stroke="midnightblue" points="252.072,-107.704 243.87,-114.411 254.464,-114.283 252.072,-107.704"/>
</g>
<!-- Node12 -->
<g id="node12" class="node"><title>Node12</title>
<g id="a_node12"><a xlink:href="io_8c.html#afea150fcd685610cb9f7672fce361e53" target="_top" xlink:title="ISR: Gather bits sent from the keyboard and form packets. ">
<polygon fill="none" stroke="black" points="306,-152.5 306,-171.5 340,-171.5 340,-152.5 306,-152.5"/>
<text text-anchor="middle" x="323" y="-159.5" font-family="Helvetica,sans-Serif" font-size="10.00">ISR</text>
</a>
</g>
</g>
<!-- Node11&#45;&gt;Node12 -->
<g id="edge18" class="edge"><title>Node11&#45;&gt;Node12</title>
<path fill="none" stroke="midnightblue" d="M258.576,-162C275.069,-162 293.12,-162 305.733,-162"/>
<polygon fill="midnightblue" stroke="midnightblue" points="258.571,-158.5 248.571,-162 258.57,-165.5 258.571,-158.5"/>
</g>
</g>
</svg>
